<?xml version="1.0" standalone="no"?>
<!DOCTYPE svg PUBLIC "-//W3C//DTD SVG 1.1//EN" "http://www.w3.org/Graphics/SVG/1.1/DTD/svg11.dtd" >
<svg xmlns="http://www.w3.org/2000/svg" xmlns:xlink="http://www.w3.org/1999/xlink" version="1.1">
<metadata>
Created by FontForge 20170731 at Wed Oct 31 21:16:54 2012
 By Aleksey,,,
(c) 2011 Bernd Montag
</metadata>
<defs>
<font id="SansationLightItalic" horiz-adv-x="1165" >
  <font-face 
    font-family="Sansation Light"
    font-weight="300"
    font-style="italic"
    font-stretch="normal"
    units-per-em="2048"
    panose-1="2 0 0 0 0 0 0 0 0 0"
    ascent="1638"
    descent="-410"
    x-height="1050"
    cap-height="1430"
    bbox="-231.98 -434 2253.72 1854"
    underline-thickness="90"
    underline-position="-299"
    unicode-range="U+0020-FB02"
  />
<missing-glyph horiz-adv-x="1124" 
d="M50 0v1280h1024v-1280h-1024zM82 32h960v1216h-960v-1216z" />
    <glyph glyph-name="ffi" unicode="ffi" horiz-adv-x="1628" 
d="M930 1050h596l-210 -1050h-105l194 970h-491l-178 -890q-64 -318 -245 -448l-62 65q141 85 201 383l178 890h-491l-178 -890q-64 -318 -245 -448l-62 65q142 85 202 383l206 1031q76 381 408 381q99 0 181 -40l-18 -90q-76 40 -182 40q-226 0 -283 -283l-13 -69h491
l14 71q77 381 469 381q149 0 265 -70l-18 -90q-110 70 -266 70q-286 0 -343 -283z" />
    <glyph glyph-name="ffl" unicode="ffl" horiz-adv-x="1637" 
d="M240 1111q76 381 408 381q99 0 181 -40l-18 -90q-76 40 -182 40q-226 0 -283 -283l-13 -69h491l14 71q76 381 488 381q169 0 295 -70l-286 -1432h-105l275 1378q-72 34 -198 34q-306 0 -363 -283l-15 -79h315l-16 -80h-314l-178 -890q-64 -318 -245 -448l-62 65
q141 85 201 383l178 890h-491l-178 -890q-64 -318 -245 -448l-62 65q142 85 202 383z" />
    <glyph glyph-name="ff" unicode="ff" horiz-adv-x="1209" 
d="M809 970h-492l-178 -890q-64 -318 -245 -448l-62 65q142 85 202 383l204 1021q76 381 408 381q99 0 181 -40l-18 -90q-76 40 -182 40q-226 0 -283 -283l-11 -59h492l10 51q76 381 448 381q129 0 226 -40l-18 -90q-91 40 -227 40q-266 0 -325 -293l-9 -49h395l-16 -80
h-395l-178 -890q-64 -318 -245 -448l-62 65q142 85 202 383z" />
    <glyph glyph-name="fj" unicode="fj" horiz-adv-x="1021" 
d="M725 80q-64 -318 -245 -448l-62 65q142 85 202 383l178 890h-481l-178 -890q-64 -318 -245 -448l-62 65q142 85 202 383l208 1041q76 381 468 381q149 0 265 -70l-18 -90q-110 70 -266 70q-286 0 -343 -283l-15 -79h586z" />
    <glyph glyph-name="ffj" unicode="ffj" horiz-adv-x="1618" 
d="M1322 80q-64 -318 -245 -448l-62 65q142 85 202 383l178 890h-481l-178 -890q-64 -318 -245 -448l-62 65q141 85 201 383l178 890h-491l-178 -890q-64 -318 -245 -448l-62 65q142 85 202 383l206 1031q76 381 408 381q99 0 181 -40l-18 -90q-76 40 -182 40
q-226 0 -283 -283l-13 -69h491l14 71q77 381 469 381q149 0 265 -70l-18 -90q-110 70 -266 70q-286 0 -343 -283l-15 -79h586z" />
    <glyph glyph-name="fb" unicode="fb" horiz-adv-x="1744" 
d="M899 800q249 250 465 250q338 0 239 -494q-111 -556 -554 -556q-226 0 -407 43l267 1335q-72 34 -198 34q-306 0 -363 -283l-15 -79h315l-18 -90h-315l-176 -880q-64 -318 -245 -448l-62 65q142 85 202 383l208 1041q76 381 488 381q169 0 295 -70zM763 123
q165 -29 295 -29q350 0 444 469q78 387 -169 387q-214 0 -455 -254z" />
    <glyph glyph-name="ffb" unicode="ffb" horiz-adv-x="2340" 
d="M240 1111q76 381 408 381q99 0 181 -40l-18 -90q-76 40 -182 40q-226 0 -283 -283l-13 -69h491l14 71q76 381 488 381q169 0 295 -70l-126 -632q249 250 465 250q338 0 239 -494q-111 -556 -554 -556q-226 0 -407 43l267 1335q-72 34 -198 34q-306 0 -363 -283l-15 -79
h315l-16 -80h-314l-178 -890q-64 -318 -245 -448l-62 65q141 85 201 383l178 890h-491l-178 -890q-64 -318 -245 -448l-62 65q142 85 202 383zM1359 123q165 -29 295 -29q350 0 444 469q78 387 -169 387q-214 0 -455 -254z" />
    <glyph glyph-name="fh" unicode="fh" horiz-adv-x="1781" 
d="M886 736q247 314 510 314q293 0 232 -305l-149 -745h-105l149 745q42 211 -151 211q-259 0 -509 -333l-124 -623h-105l275 1378q-72 34 -198 34q-306 0 -363 -283l-15 -79h315l-18 -90h-315l-176 -880q-64 -318 -245 -448l-62 65q142 85 202 383l208 1041q76 381 488 381
q169 0 295 -70z" />
    <glyph glyph-name="ffh" unicode="ffh" horiz-adv-x="2377" 
d="M240 1111q76 381 408 381q99 0 181 -40l-18 -90q-76 40 -182 40q-226 0 -283 -283l-13 -69h491l14 71q76 381 488 381q169 0 295 -70l-139 -696q247 314 510 314q293 0 232 -305l-149 -745h-105l149 745q42 211 -151 211q-259 0 -509 -333l-124 -623h-105l275 1378
q-72 34 -198 34q-306 0 -363 -283l-15 -79h315l-16 -80h-314l-178 -890q-64 -318 -245 -448l-62 65q141 85 201 383l178 890h-491l-178 -890q-64 -318 -245 -448l-62 65q142 85 202 383z" />
    <glyph glyph-name="fk" unicode="fk" horiz-adv-x="1737" 
d="M892 768q250 282 520 282q292 0 237 -273q-46 -230 -423 -364l294 -413h-129l-265 395l12 63q364 111 404 310q39 192 -171 192q-243 0 -499 -294l-133 -666h-105l275 1378q-72 34 -198 34q-306 0 -363 -283l-15 -79h315l-18 -90h-315l-176 -880q-64 -318 -245 -448
l-62 65q142 85 202 383l208 1041q76 381 488 381q169 0 295 -70z" />
    <glyph glyph-name="ffk" unicode="ffk" horiz-adv-x="2333" 
d="M240 1111q76 381 408 381q99 0 181 -40l-18 -90q-76 40 -182 40q-226 0 -283 -283l-13 -69h491l14 71q76 381 488 381q169 0 295 -70l-133 -664q250 282 520 282q292 0 237 -273q-46 -230 -423 -364l294 -413h-129l-265 395l12 63q364 111 404 310q39 192 -171 192
q-243 0 -499 -294l-133 -666h-105l275 1378q-72 34 -198 34q-306 0 -363 -283l-15 -79h315l-16 -80h-314l-178 -890q-64 -318 -245 -448l-62 65q142 85 202 383l24 120h-1l154 770h-491l-178 -890q-64 -318 -245 -448l-62 65q142 85 202 383z" />
    <glyph glyph-name="fi" unicode="fi" horiz-adv-x="1021" 
d="M333 1050h586l-210 -1050h-105l194 970h-481l-178 -890q-64 -318 -245 -448l-62 65q142 85 202 383l208 1041q76 381 468 381q149 0 265 -70l-18 -90q-110 70 -266 70q-286 0 -343 -283z" />
    <glyph glyph-name="fl" unicode="fl" horiz-adv-x="1041" 
d="M242 1121q76 381 488 381q169 0 295 -70l-286 -1432h-105l275 1378q-72 34 -198 34q-306 0 -363 -283l-15 -79h315l-18 -90h-315l-176 -880q-64 -318 -245 -448l-62 65q142 85 202 383z" />
    <glyph glyph-name=".notdef" horiz-adv-x="1124" 
d="M50 0v1280h1024v-1280h-1024zM82 32h960v1216h-960v-1216z" />
    <glyph glyph-name=".null" horiz-adv-x="20" 
 />
    <glyph glyph-name="nonmarkingreturn" horiz-adv-x="410" 
 />
    <glyph glyph-name="space" unicode=" " horiz-adv-x="500" 
 />
    <glyph glyph-name="exclam" unicode="!" horiz-adv-x="425" 
d="M409 1430l-212 -1060h-105l212 1060h105zM144 105l-21 -105h-105l21 105h105z" />
    <glyph glyph-name="quotedbl" unicode="&#x22;" horiz-adv-x="625" 
d="M659 1430l-117 -435h-55l57 435h115zM369 1430l-117 -435h-55l57 435h115z" />
    <glyph glyph-name="numbersign" unicode="#" horiz-adv-x="1903" 
d="M772 906l-197 -438h457l197 438h-457zM260 -5l175 379h-392l39 94h392l196 438h-401l39 94h402l195 425h100l-195 -425h458l198 430h100l-197 -430h482l-39 -94h-482l-196 -438h491l-39 -94h-492l-176 -379h-100l176 379h-458l-176 -379h-100z" />
    <glyph glyph-name="dollar" unicode="$" horiz-adv-x="1030" 
d="M585 1238l38 192h95l-38 -190q154 -4 306 -50l-20 -100q-163 60 -331 60q-332 0 -374 -210q-36 -180 189 -180h130q350 0 296 -270q-53 -267 -405 -296l-39 -194h-95l38 190q-167 1 -329 50l20 100q163 -60 332 -60q331 0 373 210q34 170 -211 170h-130q-330 0 -274 280
q55 276 429 298z" />
    <glyph glyph-name="percent" unicode="%" horiz-adv-x="1362" 
d="M93 0h-125l1303 1430h125zM447 1005q174 0 209 177q35 174 -139 174q-178 0 -213 -174q-35 -177 143 -177zM204 1180q52 260 330 260q274 0 222 -260q-52 -259 -326 -259q-278 0 -226 259zM851 74q174 0 209 177q35 174 -139 174q-178 0 -213 -174q-35 -177 143 -177z
M608 249q52 260 330 260q274 0 222 -260q-52 -259 -326 -259q-278 0 -226 259z" />
    <glyph glyph-name="ampersand" unicode="&#x26;" horiz-adv-x="1295" 
d="M177 1045q77 385 587 385q185 0 350 -50l-18 -90q-175 50 -347 50q-408 0 -466 -290q-56 -280 279 -280h468l34 172h73l-12 -172h172l-18 -90h-162l-38 -190q-99 -493 -617 -493q-495 0 -416 397q50 247 290 333q-210 65 -159 318zM546 680q-337 0 -394 -281
q-61 -309 320 -309q422 0 502 402l38 188h-466z" />
    <glyph glyph-name="quotesingle" unicode="'" horiz-adv-x="335" 
d="M369 1430l-117 -435h-55l57 435h115z" />
    <glyph glyph-name="parenleft" unicode="(" horiz-adv-x="525" 
d="M559 1430q-291 -452 -381 -905q-91 -453 19 -905h-105q-110 452 -19 905q90 453 381 905h105z" />
    <glyph glyph-name="parenright" unicode=")" horiz-adv-x="525" 
d="M359 1430q110 -452 19 -905t-381 -905h-105q290 452 381 905t-19 905h105z" />
    <glyph glyph-name="asterisk" unicode="*" horiz-adv-x="830" 
d="M482 1430h156l-76 -232l229 101l18 -147l-236 -43l125 -170l-142 -92l-72 205l-153 -204l-107 89l196 171l-222 42l78 150l190 -103z" />
    <glyph glyph-name="plus" unicode="+" horiz-adv-x="970" 
d="M412 570l66 330h100l-66 -330h320l-18 -90h-320l-66 -330h-100l66 330h-330l18 90h330z" />
    <glyph glyph-name="comma" unicode="," horiz-adv-x="305" 
d="M175 185l-237 -435h-105l237 435h105z" />
    <glyph glyph-name="hyphen" unicode="-" horiz-adv-x="720" 
d="M582 570l-18 -90h-500l18 90h500z" />
    <glyph glyph-name="hyphen" unicode="&#x2010;" horiz-adv-x="720" 
d="M582 570l-18 -90h-500l18 90h500z" />
    <glyph glyph-name="period" unicode="." horiz-adv-x="355" 
d="M128 125l-25 -125h-135l25 125h135z" />
    <glyph glyph-name="slash" unicode="/" horiz-adv-x="985" 
d="M8 0h-115l1011 1430h115z" />
    <glyph glyph-name="zero" unicode="0" horiz-adv-x="1445" 
d="M602 80q492 0 620 639q126 631 -366 631q-503 0 -629 -631q-128 -639 375 -639zM111 713q145 727 763 727q607 0 462 -727q-145 -723 -752 -723q-586 0 -473 723z" />
    <glyph glyph-name="one" unicode="1" horiz-adv-x="605" 
d="M118 0l262 1311h-150l12 59l269 70l-288 -1440h-105z" />
    <glyph glyph-name="two" unicode="2" horiz-adv-x="1230" 
d="M-32 0l18 90q996 607 1061 930q66 330 -354 330q-220 0 -437 -110l20 100q215 100 435 100q525 0 441 -420q-74 -370 -1010 -930h824l-18 -90h-980z" />
    <glyph glyph-name="three" unicode="3" horiz-adv-x="1160" 
d="M244 1380q212 60 412 60q515 0 437 -390q-51 -256 -303 -325q225 -65 173 -325q-82 -410 -597 -410q-200 0 -388 60l20 100q186 -70 386 -70q410 0 474 320q56 280 -276 280h-328l18 90h325q335 0 391 280q60 300 -350 300q-200 0 -414 -70z" />
    <glyph glyph-name="four" unicode="4" horiz-adv-x="1220" 
d="M845 0h-105l68 340h-822l18 90l825 1000h114l-826 -1000h709l114 568h105l-114 -568l151 -36l-11 -54h-158z" />
    <glyph glyph-name="five" unicode="5" horiz-adv-x="1145" 
d="M309 1430h824l-18 -90h-736l-138 -522q191 22 320 22q510 0 430 -400q-90 -450 -620 -450q-200 0 -388 60l20 100q186 -70 396 -70q415 0 487 360q62 310 -343 310q-225 0 -430 -50z" />
    <glyph glyph-name="six" unicode="6" horiz-adv-x="1250" 
d="M78 550q111 556 843 923l30 -77q-491 -263 -652 -539q194 63 369 63q524 0 434 -450q-96 -480 -609 -480q-527 0 -415 560zM520 80q403 0 481 390q72 360 -350 360q-214 0 -398 -68q-52 -70 -79 -206q-95 -476 346 -476z" />
    <glyph glyph-name="seven" unicode="7" horiz-adv-x="1135" 
d="M254 1430h970l-18 -90l-930 -1340h-121l940 1340h-859z" />
    <glyph glyph-name="eight" unicode="8" horiz-adv-x="1260" 
d="M53 424q48 243 316 321q-195 85 -145 333q73 366 553 366t407 -366q-50 -248 -284 -333q241 -78 193 -321q-87 -434 -607 -434t-433 434zM1075 1058q58 292 -325 292q-367 0 -425 -292q-54 -268 326 -268q370 0 424 268zM987 418q56 282 -367 282q-407 0 -463 -282
q-68 -338 352 -338q410 0 478 338z" />
    <glyph glyph-name="nine" unicode="9" horiz-adv-x="1210" 
d="M1185 883q-111 -556 -843 -923l-40 77q501 263 662 539q-194 -63 -369 -63q-524 0 -434 450q96 480 609 480q527 0 415 -560zM743 1353q-403 0 -481 -390q-72 -360 350 -360q214 0 398 68q52 70 79 206q95 476 -346 476z" />
    <glyph glyph-name="colon" unicode=":" horiz-adv-x="395" 
d="M353 1050l-25 -125h-135l25 125h135zM168 125l-25 -125h-135l25 125h135z" />
    <glyph glyph-name="semicolon" unicode=";" horiz-adv-x="545" 
d="M260 185l-237 -435h-105l237 435h105zM453 1050l-25 -125h-135l25 125h135z" />
    <glyph glyph-name="less" unicode="&#x3c;" horiz-adv-x="1120" 
d="M62 470l22 110l984 420l-22 -110l-887 -369l741 -361l-22 -110z" />
    <glyph glyph-name="equal" unicode="=" horiz-adv-x="970" 
d="M802 420l-18 -90h-750l18 90h750zM862 720l-18 -90h-750l18 90h750z" />
    <glyph glyph-name="greater" unicode="&#x3e;" horiz-adv-x="1120" 
d="M-22 50l22 110l885 361l-739 369l22 110l816 -420l-22 -110z" />
    <glyph glyph-name="question" unicode="?" horiz-adv-x="1135" 
d="M284 105l-21 -105h-105l21 105h105zM244 1380q220 50 410 50q515 0 437 -390t-575 -390h-123l-56 -280h-105l74 370h225q395 0 455 300t-350 300q-190 0 -410 -50z" />
    <glyph glyph-name="at" unicode="@" horiz-adv-x="2170" 
d="M1419 932q-130 24 -270 24q-375 0 -461 -433q-85 -423 172 -423q244 0 444 254zM1356 88q-30 -148 110 -148q285 0 405 600q162 810 -644 810q-834 0 -996 -810q-166 -830 599 -830l-18 -90q-870 0 -686 920q180 900 1104 900q926 0 746 -900q-138 -690 -525 -690
q-248 0 -203 224l35 176q-208 -250 -444 -250q-358 0 -254 521q106 529 591 529q213 0 363 -43z" />
    <glyph glyph-name="A" unicode="A" horiz-adv-x="1492" 
d="M12 0h-119l933 1430h125l364 -1430h-118l-116 480h-601l49 90h531l-187 778z" />
    <glyph glyph-name="B" unicode="B" horiz-adv-x="1330" 
d="M18 0l286 1430h610q408 0 341 -333q-48 -244 -365 -349q303 -53 247 -335q-83 -413 -530 -413h-589zM614 90q346 0 410 320q57 283 -376 283h-80l14 71q509 45 565 326q50 250 -258 250h-498l-250 -1250h473z" />
    <glyph glyph-name="C" unicode="C" horiz-adv-x="1405" 
d="M1128 50q-207 -60 -412 -60q-750 0 -601 745q141 705 891 705q205 0 388 -60l-18 -90q-183 60 -368 60q-665 0 -788 -615q-131 -655 534 -655q185 0 392 60z" />
    <glyph glyph-name="D" unicode="D" horiz-adv-x="1470" 
d="M536 90q595 0 728 664q117 586 -478 586h-395l-250 -1250h395zM18 0l286 1430h510q700 0 565 -676q-151 -754 -861 -754h-500z" />
    <glyph glyph-name="E" unicode="E" horiz-adv-x="1248" 
d="M1243 1430l-18 -90h-834l-114 -570h800l-18 -90h-800l-118 -590h848l-18 -90h-953l286 1430h939z" />
    <glyph glyph-name="F" unicode="F" horiz-adv-x="1174" 
d="M1243 1430l-18 -90h-834l-114 -570h800l-18 -90h-800l-136 -680h-105l286 1430h939z" />
    <glyph glyph-name="G" unicode="G" horiz-adv-x="1405" 
d="M1129 56q-196 -66 -396 -66q-767 0 -618 745q141 705 891 705q205 0 388 -60l-18 -90q-183 60 -368 60q-665 0 -788 -615q-131 -655 515 -655q132 0 303 44l105 526h105z" />
    <glyph glyph-name="H" unicode="H" horiz-adv-x="1505" 
d="M18 0l286 1430h105l-132 -660h975l132 660h105l-286 -1430h-105l136 680h-975l-136 -680h-105z" />
    <glyph glyph-name="I" unicode="I" horiz-adv-x="525" 
d="M459 1430l-286 -1430h-105l286 1430h105z" />
    <glyph glyph-name="J" unicode="J" horiz-adv-x="650" 
d="M634 1430l-204 -1018q-82 -412 -537 -412l18 90q350 0 414 322l204 1018h105z" />
    <glyph glyph-name="K" unicode="K" horiz-adv-x="1325" 
d="M409 1430l-286 -1430h-105l286 1430h105zM1390 1430l-833 -701l601 -729h-147l-563 698l14 72l774 660h154z" />
    <glyph glyph-name="L" unicode="L" horiz-adv-x="1143" 
d="M409 1430l-268 -1340h828l-18 -90h-933l286 1430h105z" />
    <glyph glyph-name="M" unicode="M" horiz-adv-x="1770" 
d="M18 0l286 1430h105l384 -1307l866 1307h95l-286 -1430h-95l247 1237l-815 -1237h-86l-357 1247l-249 -1247h-95z" />
    <glyph glyph-name="N" unicode="N" horiz-adv-x="1505" 
d="M18 0l286 1430h115l720 -1276l255 1276h95l-286 -1430h-85l-743 1312l-262 -1312h-95z" />
    <glyph glyph-name="O" unicode="O" horiz-adv-x="1645" 
d="M702 80q592 0 720 639q126 631 -466 631q-603 0 -729 -631q-128 -639 475 -639zM111 713q145 727 863 727q707 0 562 -727q-145 -723 -852 -723q-718 0 -573 723z" />
    <glyph glyph-name="P" unicode="P" horiz-adv-x="1263" 
d="M18 0l286 1430h600q418 0 339 -393q-77 -387 -767 -493l1 96q586 79 648 389q61 308 -257 308h-478l-267 -1337h-105z" />
    <glyph glyph-name="Q" unicode="Q" horiz-adv-x="1645" 
d="M702 80q592 0 719 639q127 631 -465 631q-603 0 -730 -631q-127 -639 476 -639zM613 -8q-640 35 -503 721q146 727 864 727q707 0 561 -727q-141 -704 -814 -723q44 -286 342 -290q100 0 186 30l-18 -90q-86 -30 -186 -30q-405 0 -432 382z" />
    <glyph glyph-name="R" unicode="R" horiz-adv-x="1235" 
d="M18 0l286 1430h590q388 0 319 -343q-64 -318 -505 -421l350 -666h-124l-342 663l14 73q433 63 489 343q51 258 -237 258h-468l-267 -1337h-105z" />
    <glyph glyph-name="S" unicode="S" horiz-adv-x="1310" 
d="M18 50l22 110q209 -80 480 -80q449 0 517 340q50 250 -242 250h-294q-399 0 -327 360q82 410 667 410q240 0 453 -60l-20 -100q-211 70 -451 70q-480 0 -544 -320q-52 -260 242 -260h294q397 0 327 -350q-86 -430 -640 -430q-271 0 -484 60z" />
    <glyph glyph-name="T" unicode="T" horiz-adv-x="1095" 
d="M1229 1430l-18 -90h-490l-268 -1340h-105l268 1340h-480l18 90h1075z" />
    <glyph glyph-name="U" unicode="U" horiz-adv-x="1470" 
d="M128 552l176 878h105l-176 -878q-94 -472 376 -472t564 472l176 878h105l-176 -878q-112 -562 -687 -562t-463 562z" />
    <glyph glyph-name="V" unicode="V" horiz-adv-x="1492" 
d="M1601 1430l-913 -1430h-165l-344 1430h108l331 -1349l864 1349h119z" />
    <glyph glyph-name="W" unicode="W" horiz-adv-x="1869" 
d="M179 1430h99l-23 -1329l728 1329h105l207 -1342l543 1342h91l-575 -1430h-152l-191 1306l-714 -1306h-149z" />
    <glyph glyph-name="X" unicode="X" horiz-adv-x="1320" 
d="M599 715l-420 715h120l373 -636l627 636h130l-705 -715l419 -715h-119l-373 636l-627 -636h-131z" />
    <glyph glyph-name="Y" unicode="Y" horiz-adv-x="1250" 
d="M179 1430h125l297 -830l643 830h115l-722 -930l-100 -500h-105l100 500z" />
    <glyph glyph-name="Z" unicode="Z" horiz-adv-x="1270" 
d="M1279 1430l-18 -90l-1117 -1250h847l-18 -90h-980l16 80l1136 1260h-864l18 90h980z" />
    <glyph glyph-name="bracketleft" unicode="[" horiz-adv-x="565" 
d="M674 1430l-18 -90h-275l-326 -1630h275l-18 -90h-370l362 1810h370z" />
    <glyph glyph-name="backslash" unicode="\" horiz-adv-x="975" 
d="M179 1430h105l439 -1430h-105z" />
    <glyph glyph-name="bracketright" unicode="]" horiz-adv-x="565" 
d="M549 1430l-362 -1810h-370l18 90h275l326 1630h-275l18 90h370z" />
    <glyph glyph-name="asciicircum" unicode="^" horiz-adv-x="1070" 
d="M604 1430h150l254 -730h-110l-234 673l-496 -673h-110z" />
    <glyph glyph-name="underscore" unicode="_" horiz-adv-x="1070" 
d="M893 0l-18 -90h-1000l18 90h1000z" />
    <glyph glyph-name="grave" unicode="`" horiz-adv-x="523" 
d="M519 1191h-84l-191 239h159z" />
    <glyph glyph-name="a" unicode="a" horiz-adv-x="1127" 
d="M906 932q-130 24 -270 24q-375 0 -461 -433q-85 -423 172 -423q244 0 444 254zM825 0h-85l30 250q-208 -250 -444 -250q-358 0 -254 521q106 529 591 529q213 0 363 -43z" />
    <glyph glyph-name="b" unicode="b" horiz-adv-x="1128" 
d="M148 123q165 -29 295 -29q350 0 444 469q77 387 -170 387q-214 0 -454 -254zM304 1430h105l-126 -630q249 250 465 250q338 0 240 -494q-112 -556 -555 -556q-226 0 -406 43z" />
    <glyph glyph-name="c" unicode="c" horiz-adv-x="970" 
d="M764 130q-156 -130 -356 -130q-440 0 -333 535q103 515 593 515q150 0 274 -30l-18 -90q-134 30 -264 30q-385 0 -470 -425q-89 -445 246 -445q180 0 348 140z" />
    <glyph glyph-name="d" unicode="d" horiz-adv-x="1127" 
d="M825 0h-85l30 250q-208 -250 -444 -250q-358 0 -254 521q106 529 591 529q146 0 263 -20l80 400h105zM906 932q-130 24 -270 24q-375 0 -461 -433q-85 -423 172 -423q244 0 444 254z" />
    <glyph glyph-name="e" unicode="e" horiz-adv-x="1075" 
d="M978 776q-57 -284 -427 -284h-380q-80 -402 296 -402q209 0 376 140l-20 -100q-165 -130 -374 -130q-481 0 -374 537q103 513 576 513q382 0 327 -274zM190 586h378q267 0 306 193q36 183 -241 183q-350 0 -443 -376z" />
    <glyph glyph-name="f" unicode="f" horiz-adv-x="612" 
d="M333 1050h395l-18 -90h-395l-176 -880q-64 -318 -245 -448l-62 65q142 85 202 383l204 1021q76 381 448 381q129 0 226 -40l-18 -90q-91 40 -227 40q-266 0 -325 -293z" />
    <glyph glyph-name="g" unicode="g" horiz-adv-x="1127" 
d="M906 932q-130 24 -270 24q-375 0 -461 -433q-85 -423 172 -423q244 0 444 254zM825 0q-76 -380 -539 -380q-194 0 -334 50l18 90q143 -50 336 -50q356 0 414 290l50 250q-208 -250 -444 -250q-358 0 -254 521q106 529 591 529q213 0 363 -43z" />
    <glyph glyph-name="h" unicode="h" 
d="M18 0l286 1430h105l-139 -694q247 314 510 314q293 0 232 -305l-149 -745h-105l149 745q42 211 -151 211q-259 0 -508 -333l-125 -623h-105z" />
    <glyph glyph-name="i" unicode="i" horiz-adv-x="465" 
d="M439 1430l-24 -120h-125l24 120h125zM353 1050l-210 -1050h-105l210 1050h105z" />
    <glyph glyph-name="j" unicode="j" horiz-adv-x="465" 
d="M439 1430l-24 -120h-125l24 120h125zM353 1050l-194 -970q-64 -318 -245 -448l-62 65q142 85 202 383l194 970h105z" />
    <glyph glyph-name="k" unicode="k" horiz-adv-x="1111" 
d="M8 0l286 1430h105l-132 -662q249 282 519 282q292 0 237 -273q-46 -230 -422 -364l293 -413h-129l-265 395l13 63q364 111 404 310q38 192 -172 192q-243 0 -499 -294l-133 -666h-105z" />
    <glyph glyph-name="l" unicode="l" horiz-adv-x="465" 
d="M429 1430l-286 -1430h-105l286 1430h105z" />
    <glyph glyph-name="m" unicode="m" horiz-adv-x="1795" 
d="M18 0l210 1050h85l-42 -312q204 312 452 312q290 0 229 -304q213 304 459 304q292 0 225 -335l-143 -715h-105l143 715q48 241 -140 241q-258 0 -454 -336l-124 -620h-105l143 715q48 241 -148 241q-246 0 -456 -336l-124 -620h-105z" />
    <glyph glyph-name="n" unicode="n" 
d="M18 0l210 1050h85l-43 -314q247 314 510 314q293 0 232 -305l-149 -745h-105l149 745q42 211 -151 211q-259 0 -508 -333l-125 -623h-105z" />
    <glyph glyph-name="o" unicode="o" horiz-adv-x="1160" 
d="M454 80q365 0 455 449q88 441 -277 441t-453 -441q-90 -449 275 -449zM73 525q107 535 577 535t363 -535q-107 -534 -577 -534q-468 0 -363 534z" />
    <glyph glyph-name="p" unicode="p" horiz-adv-x="1128" 
d="M148 123q165 -29 295 -29q350 0 444 469q77 387 -170 387q-214 0 -455 -254zM228 1049h85l-30 -249q249 250 465 250q338 0 239 -494q-111 -556 -554 -556q-165 0 -305 23l-81 -403h-105z" />
    <glyph glyph-name="q" unicode="q" horiz-adv-x="1127" 
d="M906 932q-130 24 -270 24q-375 0 -461 -433q-85 -423 172 -423q244 0 444 254zM749 -380h-105l126 630q-208 -250 -444 -250q-358 0 -254 521q106 529 591 529q213 0 363 -43z" />
    <glyph glyph-name="r" unicode="r" horiz-adv-x="685" 
d="M18 0l210 1050h85l-55 -374q216 374 460 374l-21 -104q-238 0 -457 -363l-117 -583h-105z" />
    <glyph glyph-name="s" unicode="s" horiz-adv-x="1030" 
d="M8 50l20 100q163 -60 332 -60q331 0 373 210q34 170 -211 170h-130q-330 0 -274 280q60 300 497 300q168 0 333 -50l-20 -100q-163 60 -331 60q-332 0 -374 -210q-36 -180 189 -180h130q350 0 296 -270q-60 -300 -496 -300q-169 0 -334 50z" />
    <glyph glyph-name="t" unicode="t" horiz-adv-x="627" 
d="M258 1220h64l-15 -170h305l-18 -90h-286l-133 -663q-41 -207 111 -207h134l-18 -90h-132q-256 0 -199 283z" />
    <glyph glyph-name="u" unicode="u" 
d="M1073 1050l-210 -1050h-85l43 314q-247 -314 -530 -314q-273 0 -212 305l149 745h105l-149 -745q-42 -211 131 -211q279 0 528 333l125 623h105z" />
    <glyph glyph-name="v" unicode="v" horiz-adv-x="1030" 
d="M78 1050h120l192 -959l578 959h120l-657 -1050h-122z" />
    <glyph glyph-name="w" unicode="w" horiz-adv-x="1675" 
d="M288 1050h105q-145 -225 -206 -530q-86 -430 169 -430q305 0 397 460l100 500h105l-100 -500q-92 -460 213 -460q255 0 341 430q61 305 6 530h105q55 -225 -6 -530q-104 -520 -464 -520q-305 0 -292 339q-118 -339 -423 -339q-360 0 -256 520q61 305 206 530z" />
    <glyph glyph-name="x" unicode="x" horiz-adv-x="1010" 
d="M406 525l-303 525h120l256 -444l434 444h130l-512 -525l302 -525h-120l-256 444l-434 -444h-130z" />
    <glyph glyph-name="y" unicode="y" 
d="M821 314q-247 -314 -530 -314q-273 0 -212 305l149 745h105l-149 -745q-42 -211 131 -211q279 0 528 333l125 623h105l-210 -1050q-76 -380 -539 -380q-194 0 -334 50l18 90q143 -50 336 -50q356 0 414 290z" />
    <glyph glyph-name="z" unicode="z" horiz-adv-x="990" 
d="M198 1050h750l-18 -90l-821 -870h627l-18 -90h-750l18 90l819 870h-625z" />
    <glyph glyph-name="braceleft" unicode="{" horiz-adv-x="590" 
d="M699 1430q-165 -176 -226 -478q-70 -352 -275 -427q175 -75 105 -427q-61 -302 34 -478h-105q-95 176 -34 478q76 382 -134 382l18 90q210 0 286 382q61 302 226 478h105z" />
    <glyph glyph-name="bar" unicode="|" horiz-adv-x="425" 
d="M409 1430l-362 -1810h-105l362 1810h105z" />
    <glyph glyph-name="braceright" unicode="}" horiz-adv-x="590" 
d="M284 1430q95 -176 34 -478q-76 -382 134 -382l-18 -90q-210 0 -286 -382q-61 -302 -226 -478h-105q165 176 226 478q70 352 275 427q-175 75 -105 427q61 302 -34 478h105z" />
    <glyph glyph-name="asciitilde" unicode="~" horiz-adv-x="970" 
d="M78 550q70 61 174 61q86 0 195 -41q109 -40 199 -40q109 0 190 60l-18 -90q-70 -60 -174 -60q-86 0 -195 40q-109 41 -199 41q-109 0 -190 -61z" />
    <glyph glyph-name="nonbreakingspace" unicode="&#xa0;" horiz-adv-x="518" 
 />
    <glyph glyph-name="exclamdown" unicode="&#xa1;" horiz-adv-x="425" 
d="M-58 -380l212 1060h105l-212 -1060h-105zM207 945l21 105h105l-21 -105h-105z" />
    <glyph glyph-name="cent" unicode="&#xa2;" horiz-adv-x="970" 
d="M617 1237l38 193h115l-38 -189q130 -4 238 -30l-18 -90q-134 30 -264 30q-385 0 -470 -425q-89 -445 246 -445q180 0 348 140l-20 -100q-121 -101 -268 -123l-40 -198h-115l39 192q-408 17 -305 534q95 472 514 511z" />
    <glyph glyph-name="sterling" unicode="&#xa3;" horiz-adv-x="1237" 
d="M-20 62q201 75 257 351q23 117 -19 291t-13 323q83 413 621 413q290 0 427 -100l-24 -120q-132 130 -418 130q-424 0 -488 -321q-29 -144 3 -259h446l-18 -90h-414q26 -164 6 -264q-27 -137 -123 -298q41 4 85 4q137 0 289 -43q57 -17 117 -17q145 0 303 98l-22 -110
q-137 -84 -301 -84q-94 0 -195 28q-123 32 -240 32q-153 0 -297 -56z" />
    <glyph glyph-name="currency" unicode="&#xa4;" horiz-adv-x="1119" 
d="M262 786l-112 120l83 72l97 -141q123 74 277 74t234 -77l152 138l56 -66l-168 -126q61 -107 33 -245q-33 -169 -130 -262l116 -110l-84 -72l-92 133q-134 -80 -279 -80q-144 0 -247 80l-142 -133l-57 62l160 120q-56 103 -27 252q32 157 130 261zM216 529
q-61 -306 244 -306t366 306q61 304 -244 304t-366 -304z" />
    <glyph glyph-name="yen" unicode="&#xa5;" horiz-adv-x="1270" 
d="M204 1430h125l310 -661l580 661h135l-633 -700h373l-18 -90h-416l-34 -171h416l-18 -90h-416l-76 -379h-105l76 379h-389l18 90h389l34 171h-389l18 90h347z" />
    <glyph glyph-name="brokenbar" unicode="&#xa6;" horiz-adv-x="425" 
d="M193 350l-146 -730h-105l146 730h105zM408 1430l-146 -730h-104l146 730h104z" />
    <glyph glyph-name="section" unicode="&#xa7;" horiz-adv-x="1070" 
d="M26 40l20 100q163 -60 352 -60q331 0 371 200q34 170 -241 170h-110q-360 0 -306 270q30 148 203 206q-152 50 -117 224q58 290 515 290q168 0 333 -50l-20 -100q-163 60 -331 60q-352 0 -392 -200q-34 -170 221 -170h110q380 0 327 -267q-32 -160 -208 -214
q152 -62 121 -219q-58 -290 -494 -290q-189 0 -354 50zM446 538h110q265 0 298 166q37 187 -228 187h-110q-265 0 -300 -174q-35 -179 230 -179z" />
    <glyph glyph-name="dieresis" unicode="&#xa8;" horiz-adv-x="635" 
d="M685 1410l-26 -130h-135l26 130h135zM365 1410l-26 -130h-135l26 130h135z" />
    <glyph glyph-name="copyright" unicode="&#xa9;" horiz-adv-x="1785" 
d="M752 80q652 0 780 639q126 631 -506 631q-643 0 -769 -631q-128 -639 495 -639zM153 723q143 717 891 717q737 0 594 -717q-147 -733 -884 -733q-748 0 -601 733zM1108 336q-135 -51 -300 -51q-416 0 -327 443q83 416 499 416q165 0 280 -51l-20 -98q-113 58 -264 58
q-325 0 -390 -325q-71 -352 254 -352q151 0 288 58z" />
    <glyph glyph-name="ordfeminine" unicode="&#xaa;" horiz-adv-x="629" 
d="M572 1342q-25 12 -95 12q-167 0 -206 -192q-35 -176 69 -176q107 0 186 127zM568 906h-73l15 125q-84 -125 -202 -125q-169 0 -118 255q54 270 307 270q106 0 171 -22z" />
    <glyph glyph-name="guillemotleft" unicode="&#xab;" horiz-adv-x="869" 
d="M392 525l333 375h122l-333 -375l183 -375h-122zM73 525l333 375h122l-333 -375l183 -375h-122z" />
    <glyph glyph-name="logicalnot" unicode="&#xac;" horiz-adv-x="1105" 
d="M178 1050h885l-68 -340h-90l50 250h-795z" />
    <glyph glyph-name="minus" unicode="&#xad;" horiz-adv-x="970" 
d="M832 570l-18 -90h-750l18 90h750z" />
    <glyph glyph-name="minus" unicode="&#x2212;" horiz-adv-x="970" 
d="M832 570l-18 -90h-750l18 90h750z" />
    <glyph glyph-name="registered" unicode="&#xae;" horiz-adv-x="1183" 
d="M424 756l107 536h229q153 0 127 -128q-21 -105 -181 -155l134 -253h-91l-123 241l9 45q159 25 178 119q14 74 -72 74h-153l-95 -479h-69zM581 664q360 0 432 361q74 369 -286 369q-357 0 -431 -369q-72 -361 285 -361zM223 1023q85 427 515 427q433 0 348 -427
q-83 -415 -516 -415q-418 0 -347 415z" />
    <glyph glyph-name="macron" unicode="&#xaf;" horiz-adv-x="700" 
d="M744 1430l-18 -90h-500l18 90h500z" />
    <glyph glyph-name="macron" unicode="&#x2c9;" horiz-adv-x="700" 
d="M744 1430l-18 -90h-500l18 90h500z" />
    <glyph glyph-name="degree" unicode="&#xb0;" horiz-adv-x="772" 
d="M443 985q184 0 221 187q37 184 -147 184q-188 0 -225 -184q-37 -187 151 -187zM202 1170q52 260 330 260q274 0 222 -260q-52 -259 -326 -259q-278 0 -226 259z" />
    <glyph glyph-name="plusminus" unicode="&#xb1;" horiz-adv-x="970" 
d="M432 720l66 330h110l-66 -330h320l-18 -90h-320l-66 -330h-110l66 330h-320l18 90h320zM736 90l-18 -90h-750l18 90h750z" />
    <glyph glyph-name="twosuperior" unicode="&#xb2;" horiz-adv-x="610" 
d="M60 710l19 95q438 253 468 405q25 125 -135 125q-110 0 -218 -55l20 100q107 50 217 50q263 0 219 -220q-35 -175 -418 -405h337l-19 -95h-490z" />
    <glyph glyph-name="threesuperior" unicode="&#xb3;" horiz-adv-x="598" 
d="M198 1400q106 30 206 30q278 0 237 -204q-22 -108 -125 -153q86 -43 64 -153q-43 -214 -321 -214q-100 0 -194 30l20 100q93 -36 193 -36q176 0 200 120q21 106 -115 106h-164l19 94h162q138 0 159 106q22 110 -154 110q-100 0 -207 -36z" />
    <glyph glyph-name="acute" unicode="&#xb4;" horiz-adv-x="523" 
d="M408 1430h159l-287 -239h-84z" />
    <glyph glyph-name="mu" unicode="&#xb5;" 
d="M141 93l-94 -473h-105l286 1430h105l-149 -745q-42 -211 131 -211q279 0 528 333l125 623h105l-210 -1050h-85l43 314q-247 -314 -500 -314q-134 0 -180 93z" />
    <glyph glyph-name="mu" unicode="&#x3bc;" 
d="M141 93l-94 -473h-105l286 1430h105l-149 -745q-42 -211 131 -211q279 0 528 333l125 623h105l-210 -1050h-85l43 314q-247 -314 -500 -314q-134 0 -180 93z" />
    <glyph glyph-name="paragraph" unicode="&#xb6;" horiz-adv-x="973" 
d="M225 -434l194 972q-443 0 -353 448q88 444 531 444h510l-18 -90h-150l-354 -1774h-100l354 1774h-160l-354 -1774h-100z" />
    <glyph glyph-name="periodcentered" unicode="&#xb7;" horiz-adv-x="430" 
d="M83 525q19 95 114 95t76 -95t-114 -95t-76 95z" />
    <glyph glyph-name="periodcentered" unicode="&#x2219;" horiz-adv-x="430" 
d="M83 525q19 95 114 95t76 -95t-114 -95t-76 95z" />
    <glyph glyph-name="cedilla" unicode="&#xb8;" horiz-adv-x="657" 
d="M-98 -284q96 -60 204 -60q148 0 167 95q18 94 -105 94h-153l177 230h95l-111 -152q224 0 190 -172q-35 -173 -276 -173q-108 0 -206 50z" />
    <glyph glyph-name="onesuperior" unicode="&#xb9;" horiz-adv-x="348" 
d="M136 710l120 601h-76l11 55l190 60l-143 -716h-102z" />
    <glyph glyph-name="ordmasculine" unicode="&#xba;" horiz-adv-x="680" 
d="M394 980q158 0 196 190q37 186 -121 186q-157 0 -194 -186q-38 -190 119 -190zM191 1168q53 262 293 262t187 -262q-52 -262 -292 -262q-238 0 -188 262z" />
    <glyph glyph-name="guillemotright" unicode="&#xbb;" horiz-adv-x="869" 
d="M70 150h-122l333 375l-183 375h122l183 -375zM389 150h-122l333 375l-183 375h122l183 -375z" />
    <glyph glyph-name="onequarter" unicode="&#xbc;" horiz-adv-x="1469" 
d="M93 0h-125l1231 1430h125zM878 690q106 30 206 30q277 0 236 -204q-21 -108 -124 -153q85 -43 63 -153q-43 -214 -320 -214q-100 0 -194 30l20 100q93 -36 193 -36q174 0 198 120q21 106 -115 106h-164l19 94h163q137 0 158 106q22 110 -152 110q-100 0 -207 -36z
M239 710l120 601h-76l11 55l190 60l-143 -716h-102z" />
    <glyph glyph-name="onehalf" unicode="&#xbd;" horiz-adv-x="1462" 
d="M93 0h-125l1231 1430h125zM720 0l19 95q439 253 469 405q25 125 -135 125q-110 0 -219 -55l20 100q108 50 218 50q262 0 218 -220q-35 -175 -419 -405h338l-19 -95h-490zM239 710l120 601h-76l11 55l190 60l-143 -716h-102z" />
    <glyph glyph-name="threequarters" unicode="&#xbe;" horiz-adv-x="1510" 
d="M184 0h-125l1231 1430h125zM1134 0h-102l30 150h-362l19 94l332 470h102l-327 -470h255l61 304h102l-61 -304l66 -38l-11 -56h-74zM248 1400q106 30 206 30q277 0 236 -204q-21 -108 -124 -153q85 -43 63 -153q-43 -214 -320 -214q-100 0 -194 30l20 100q93 -36 193 -36
q174 0 198 120q21 106 -115 106h-164l19 94h163q137 0 158 106q22 110 -152 110q-100 0 -207 -36z" />
    <glyph glyph-name="questiondown" unicode="&#xbf;" horiz-adv-x="1135" 
d="M777 945l21 105h105l-21 -105h-105zM817 -330q-220 -50 -410 -50q-515 0 -437 390t575 390h123l56 280h105l-74 -370h-225q-395 0 -455 -300t350 -300q190 0 410 50z" />
    <glyph glyph-name="Agrave" unicode="&#xc0;" horiz-adv-x="1492" 
d="M12 0h-119l933 1430h125l364 -1430h-118l-116 480h-601l49 90h531l-187 778zM950 1571h-84l-191 239h159z" />
    <glyph glyph-name="Aacute" unicode="&#xc1;" horiz-adv-x="1492" 
d="M12 0h-119l933 1430h125l364 -1430h-118l-116 480h-601l49 90h531l-187 778zM1006 1810h159l-287 -239h-84z" />
    <glyph glyph-name="Acircumflex" unicode="&#xc2;" horiz-adv-x="1492" 
d="M12 0h-119l933 1430h125l364 -1430h-118l-116 480h-601l49 90h531l-187 778zM895 1810h110l143 -260h-100l-113 194l-187 -194h-100z" />
    <glyph glyph-name="Atilde" unicode="&#xc3;" horiz-adv-x="1492" 
d="M12 0h-119l933 1430h125l364 -1430h-118l-116 480h-601l49 90h531l-187 778zM691 1764q69 46 139 46q52 0 105 -26t109 -26q75 0 155 46l-18 -90q-69 -46 -139 -46q-52 0 -105 26t-109 26q-75 0 -155 -46z" />
    <glyph glyph-name="Adieresis" unicode="&#xc4;" horiz-adv-x="1492" 
d="M12 0h-119l933 1430h125l364 -1430h-118l-116 480h-601l49 90h531l-187 778zM1174 1790l-26 -130h-135l26 130h135zM854 1790l-26 -130h-135l26 130h135z" />
    <glyph glyph-name="Aring" unicode="&#xc5;" horiz-adv-x="1492" 
d="M902 1482q134 0 162 137q27 134 -107 134q-138 0 -165 -134q-28 -137 110 -137zM15 0h-122l929 1424q-144 28 -111 193q40 200 258 200q214 0 174 -200q-33 -168 -190 -194l362 -1423h-115l-116 480h-601l49 90h531l-187 778z" />
    <glyph glyph-name="AE" unicode="&#xc6;" horiz-adv-x="1895" 
d="M-107 0l893 1430h1098l-18 -90h-918l126 -570h643l-18 -90h-604l138 -590h403l-18 -90h-491l-286 1353l-460 -783h471l10 -90h-557l-283 -480h-129z" />
    <glyph glyph-name="Ccedilla" unicode="&#xc7;" horiz-adv-x="1405" 
d="M630 -7q-655 41 -515 742q141 705 891 705q205 0 388 -60l-18 -90q-183 60 -368 60q-665 0 -788 -615q-131 -655 534 -655q185 0 392 60l-18 -90q-202 -59 -402 -60l-49 -67q224 0 189 -172q-34 -173 -275 -173q-108 0 -206 50l17 88q96 -60 204 -60q148 0 167 95
q19 94 -104 94h-153z" />
    <glyph glyph-name="Egrave" unicode="&#xc8;" horiz-adv-x="1248" 
d="M1243 1430l-18 -90h-834l-114 -570h800l-18 -90h-800l-118 -590h848l-18 -90h-953l286 1430h939zM900 1571h-84l-191 239h159z" />
    <glyph glyph-name="Eacute" unicode="&#xc9;" horiz-adv-x="1248" 
d="M1243 1430l-18 -90h-834l-114 -570h800l-18 -90h-800l-118 -590h848l-18 -90h-953l286 1430h939zM897 1810h159l-287 -239h-84z" />
    <glyph glyph-name="Ecircumflex" unicode="&#xca;" horiz-adv-x="1248" 
d="M1243 1430l-18 -90h-834l-114 -570h800l-18 -90h-800l-118 -590h848l-18 -90h-953l286 1430h939zM786 1810h110l143 -260h-100l-113 194l-187 -194h-100z" />
    <glyph glyph-name="Edieresis" unicode="&#xcb;" horiz-adv-x="1248" 
d="M1243 1430l-18 -90h-834l-114 -570h800l-18 -90h-800l-118 -590h848l-18 -90h-953l286 1430h939zM1064 1790l-26 -130h-135l26 130h135zM744 1790l-26 -130h-135l26 130h135z" />
    <glyph glyph-name="Igrave" unicode="&#xcc;" horiz-adv-x="525" 
d="M459 1430l-286 -1430h-105l286 1430h105zM486 1571h-84l-191 239h159z" />
    <glyph glyph-name="Iacute" unicode="&#xcd;" horiz-adv-x="525" 
d="M459 1430l-286 -1430h-105l286 1430h105zM563 1810h159l-287 -239h-84z" />
    <glyph glyph-name="Icircumflex" unicode="&#xce;" horiz-adv-x="525" 
d="M460 1430l-286 -1430h-105l286 1430h105zM432 1810h110l143 -260h-100l-113 194l-187 -194h-100z" />
    <glyph glyph-name="Idieresis" unicode="&#xcf;" horiz-adv-x="525" 
d="M469 1430l-286 -1430h-105l286 1430h105zM710 1790l-26 -130h-135l26 130h135zM390 1790l-26 -130h-135l26 130h135z" />
    <glyph glyph-name="Eth" unicode="&#xd0;" horiz-adv-x="1470" 
d="M277 770h445l-18 -90h-445l-118 -590h395q595 0 728 664q117 586 -478 586h-395zM154 680h-200l18 90h200l132 660h510q700 0 565 -676q-151 -754 -861 -754h-500z" />
    <glyph glyph-name="Ntilde" unicode="&#xd1;" horiz-adv-x="1505" 
d="M18 0l286 1430h115l720 -1276l255 1276h95l-286 -1430h-85l-743 1312l-262 -1312h-95zM698 1764q69 46 139 46q52 0 105 -26t109 -26q75 0 155 46l-18 -90q-69 -46 -139 -46q-52 0 -105 26t-109 26q-75 0 -155 -46z" />
    <glyph glyph-name="Ograve" unicode="&#xd2;" horiz-adv-x="1645" 
d="M702 80q592 0 720 639q126 631 -466 631q-603 0 -729 -631q-128 -639 475 -639zM111 713q145 727 863 727q707 0 562 -727q-145 -723 -852 -723q-718 0 -573 723zM1106 1571h-84l-191 239h159z" />
    <glyph glyph-name="Oacute" unicode="&#xd3;" horiz-adv-x="1645" 
d="M702 80q592 0 720 639q126 631 -466 631q-603 0 -729 -631q-128 -639 475 -639zM111 713q145 727 863 727q707 0 562 -727q-145 -723 -852 -723q-718 0 -573 723zM1103 1810h159l-287 -239h-84z" />
    <glyph glyph-name="Ocircumflex" unicode="&#xd4;" horiz-adv-x="1645" 
d="M702 80q592 0 720 639q126 631 -466 631q-603 0 -729 -631q-128 -639 475 -639zM111 713q145 727 863 727q707 0 562 -727q-145 -723 -852 -723q-718 0 -573 723zM992 1810h110l143 -260h-100l-113 194l-187 -194h-100z" />
    <glyph glyph-name="Otilde" unicode="&#xd5;" horiz-adv-x="1645" 
d="M702 80q592 0 720 639q126 631 -466 631q-603 0 -729 -631q-128 -639 475 -639zM111 713q145 727 863 727q707 0 562 -727q-145 -723 -852 -723q-718 0 -573 723zM788 1764q69 46 139 46q52 0 105 -26t109 -26q75 0 155 46l-18 -90q-69 -46 -139 -46q-52 0 -105 26
t-109 26q-75 0 -155 -46z" />
    <glyph glyph-name="Odieresis" unicode="&#xd6;" horiz-adv-x="1645" 
d="M702 80q592 0 720 639q126 631 -466 631q-603 0 -729 -631q-128 -639 475 -639zM111 713q145 727 863 727q707 0 562 -727q-145 -723 -852 -723q-718 0 -573 723zM1260 1790l-26 -130h-135l26 130h135zM940 1790l-26 -130h-135l26 130h135z" />
    <glyph glyph-name="multiply" unicode="&#xd7;" horiz-adv-x="821" 
d="M306 525l-187 233l85 71l187 -233l271 226l51 -64l-271 -226l186 -233l-85 -71l-186 233l-280 -233l-51 64z" />
    <glyph glyph-name="Oslash" unicode="&#xd8;" horiz-adv-x="1645" 
d="M361 164q122 -84 341 -84q592 0 720 639q66 329 -64 487zM288 232l996 1040q-120 78 -328 78q-603 0 -729 -631q-66 -328 61 -487zM282 82l-79 -82h-137l138 145q-171 179 -93 568q145 727 863 727q245 0 388 -87l73 77h138l-134 -139q176 -180 97 -578
q-145 -723 -852 -723q-256 0 -402 92z" />
    <glyph glyph-name="Ugrave" unicode="&#xd9;" horiz-adv-x="1470" 
d="M128 552l176 878h105l-176 -878q-94 -472 376 -472t564 472l176 878h105l-176 -878q-112 -562 -687 -562t-463 562zM999 1571h-84l-191 239h159z" />
    <glyph glyph-name="Uacute" unicode="&#xda;" horiz-adv-x="1470" 
d="M128 552l176 878h105l-176 -878q-94 -472 376 -472t564 472l176 878h105l-176 -878q-112 -562 -687 -562t-463 562zM985 1810h159l-287 -239h-84z" />
    <glyph glyph-name="Ucircumflex" unicode="&#xdb;" horiz-adv-x="1470" 
d="M128 552l176 878h105l-176 -878q-94 -472 376 -472t564 472l176 878h105l-176 -878q-112 -562 -687 -562t-463 562zM884 1810h110l143 -260h-100l-113 194l-187 -194h-100z" />
    <glyph glyph-name="Udieresis" unicode="&#xdc;" horiz-adv-x="1470" 
d="M128 552l176 878h105l-176 -878q-94 -472 376 -472t564 472l176 878h105l-176 -878q-112 -562 -687 -562t-463 562zM1173 1790l-26 -130h-135l26 130h135zM853 1790l-26 -130h-135l26 130h135z" />
    <glyph glyph-name="Yacute" unicode="&#xdd;" horiz-adv-x="1250" 
d="M179 1430h125l297 -830l643 830h115l-722 -930l-100 -500h-105l100 500zM885 1810h159l-287 -239h-84z" />
    <glyph glyph-name="Thorn" unicode="&#xde;" horiz-adv-x="1263" 
d="M18 0l286 1430h105l-62 -308h505q408 0 340 -343q-78 -387 -665 -479l-11 86q497 85 557 385q52 258 -256 258h-488l-206 -1029h-105z" />
    <glyph glyph-name="germandbls" unicode="&#xdf;" horiz-adv-x="1166" 
d="M137 70q-65 -325 -243 -438l-62 65q142 85 202 383l175 879q94 468 548 468q400 0 325 -377l-11 -55q-345 -103 -378 -268q-21 -117 85 -164l64 -29q184 -83 151 -263q-54 -271 -428 -271h-202l18 90h204q257 0 295 192q23 133 -97 186l-72 30q-157 66 -123 234
q43 210 383 318q57 287 -239 287q-342 0 -418 -381z" />
    <glyph glyph-name="agrave" unicode="&#xe0;" horiz-adv-x="1127" 
d="M906 932q-130 24 -270 24q-375 0 -461 -433q-85 -423 172 -423q244 0 444 254zM825 0h-85l30 250q-208 -250 -444 -250q-358 0 -254 521q106 529 591 529q213 0 363 -43zM792 1191h-84l-191 239h159z" />
    <glyph glyph-name="aacute" unicode="&#xe1;" horiz-adv-x="1127" 
d="M906 932q-130 24 -270 24q-375 0 -461 -433q-85 -423 172 -423q244 0 444 254zM825 0h-85l30 250q-208 -250 -444 -250q-358 0 -254 521q106 529 591 529q213 0 363 -43zM789 1430h159l-287 -239h-84z" />
    <glyph glyph-name="acircumflex" unicode="&#xe2;" horiz-adv-x="1127" 
d="M906 932q-130 24 -270 24q-375 0 -461 -433q-85 -423 172 -423q244 0 444 254zM825 0h-85l30 250q-208 -250 -444 -250q-358 0 -254 521q106 529 591 529q213 0 363 -43zM678 1430h110l143 -260h-100l-113 194l-187 -194h-100z" />
    <glyph glyph-name="atilde" unicode="&#xe3;" horiz-adv-x="1127" 
d="M906 932q-130 24 -270 24q-375 0 -461 -433q-85 -423 172 -423q244 0 444 254zM825 0h-85l30 250q-208 -250 -444 -250q-358 0 -254 521q106 529 591 529q213 0 363 -43zM474 1384q69 46 139 46q52 0 105 -26t109 -26q75 0 155 46l-18 -90q-69 -46 -139 -46
q-52 0 -105 26t-109 26q-75 0 -155 -46z" />
    <glyph glyph-name="adieresis" unicode="&#xe4;" horiz-adv-x="1127" 
d="M906 932q-130 24 -270 24q-375 0 -461 -433q-85 -423 172 -423q244 0 444 254zM825 0h-85l30 250q-208 -250 -444 -250q-358 0 -254 521q106 529 591 529q213 0 363 -43zM956 1410l-26 -130h-135l26 130h135zM636 1410l-26 -130h-135l26 130h135z" />
    <glyph glyph-name="aring" unicode="&#xe5;" horiz-adv-x="1127" 
d="M906 932q-130 24 -270 24q-375 0 -461 -433q-85 -423 172 -423q244 0 444 254zM825 0h-85l30 250q-208 -250 -444 -250q-358 0 -254 521q106 529 591 529q213 0 363 -43zM694 1226q134 0 161 137q27 134 -107 134q-138 0 -165 -134q-27 -137 111 -137zM503 1361
q40 200 258 200q214 0 174 -200q-40 -199 -254 -199q-218 0 -178 199z" />
    <glyph glyph-name="ae" unicode="&#xe6;" horiz-adv-x="1775" 
d="M466 510q-301 0 -343 -210t208 -210q192 0 385 102l60 298q-163 20 -310 20zM890 586h378q267 0 306 193q36 183 -241 183q-350 0 -443 -376zM814 155q-256 -155 -501 -155q-355 0 -296 297q61 303 467 303q147 0 310 -20l28 139q48 241 -255 241q-162 0 -342 -50l18 90
q180 50 342 50q296 0 333 -195q131 195 433 195q382 0 327 -274q-57 -284 -427 -284h-380q-80 -402 296 -402q209 0 376 140l-20 -100q-165 -130 -374 -130q-258 0 -335 155z" />
    <glyph glyph-name="ccedilla" unicode="&#xe7;" horiz-adv-x="970" 
d="M353 2q-378 33 -278 533q103 515 593 515q150 0 274 -30l-18 -90q-134 30 -264 30q-385 0 -470 -425q-89 -445 246 -445q180 0 348 140l-20 -100q-139 -116 -314 -129l-57 -78q224 0 189 -172q-34 -173 -275 -173q-108 0 -206 50l17 88q96 -60 204 -60q148 0 167 95
q19 94 -104 94h-153z" />
    <glyph glyph-name="egrave" unicode="&#xe8;" horiz-adv-x="1075" 
d="M978 776q-57 -284 -427 -284h-380q-80 -402 296 -402q209 0 376 140l-20 -100q-165 -130 -374 -130q-481 0 -374 537q103 513 576 513q382 0 327 -274zM190 586h378q267 0 306 193q36 183 -241 183q-350 0 -443 -376zM791 1191h-84l-191 239h159z" />
    <glyph glyph-name="eacute" unicode="&#xe9;" horiz-adv-x="1075" 
d="M978 776q-57 -284 -427 -284h-380q-80 -402 296 -402q209 0 376 140l-20 -100q-165 -130 -374 -130q-481 0 -374 537q103 513 576 513q382 0 327 -274zM190 586h378q267 0 306 193q36 183 -241 183q-350 0 -443 -376zM748 1430h159l-287 -239h-84z" />
    <glyph glyph-name="ecircumflex" unicode="&#xea;" horiz-adv-x="1075" 
d="M978 776q-57 -284 -427 -284h-380q-80 -402 296 -402q209 0 376 140l-20 -100q-165 -130 -374 -130q-481 0 -374 537q103 513 576 513q382 0 327 -274zM190 586h378q267 0 306 193q36 183 -241 183q-350 0 -443 -376zM637 1430h110l143 -260h-100l-113 194l-187 -194
h-100z" />
    <glyph glyph-name="edieresis" unicode="&#xeb;" horiz-adv-x="1075" 
d="M978 776q-57 -284 -427 -284h-380q-80 -402 296 -402q209 0 376 140l-20 -100q-165 -130 -374 -130q-481 0 -374 537q103 513 576 513q382 0 327 -274zM190 586h378q267 0 306 193q36 183 -241 183q-350 0 -443 -376zM925 1410l-26 -130h-135l26 130h135zM605 1410
l-26 -130h-135l26 130h135z" />
    <glyph glyph-name="igrave" unicode="&#xec;" horiz-adv-x="445" 
d="M343 1050l-210 -1050h-105l210 1050h105zM426 1191h-84l-191 239h159z" />
    <glyph glyph-name="iacute" unicode="&#xed;" horiz-adv-x="445" 
d="M343 1050l-210 -1050h-105l210 1050h105zM423 1430h159l-287 -239h-84z" />
    <glyph glyph-name="icircumflex" unicode="&#xee;" horiz-adv-x="445" 
d="M344 1050l-210 -1050h-105l210 1050h105zM312 1430h110l143 -260h-100l-113 194l-187 -194h-100z" />
    <glyph glyph-name="idieresis" unicode="&#xef;" horiz-adv-x="445" 
d="M353 1050l-210 -1050h-105l210 1050h105zM600 1410l-26 -130h-135l26 130h135zM280 1410l-26 -130h-135l26 130h135z" />
    <glyph glyph-name="eth" unicode="&#xf0;" horiz-adv-x="1140" 
d="M910 586q23 116 33 254q-94 130 -318 130q-362 0 -448 -430q-92 -460 271 -460q361 0 462 506zM941 1282q172 -205 75 -692q-120 -600 -587 -600q-463 0 -353 550q102 510 556 510q207 0 316 -100q-21 186 -116 283l-272 -122l18 89l188 84q-94 56 -234 56h-216l18 90
h218q210 0 331 -93l208 93l-18 -89z" />
    <glyph glyph-name="ntilde" unicode="&#xf1;" 
d="M18 0l210 1050h85l-43 -314q247 314 510 314q293 0 232 -305l-149 -745h-105l149 745q42 211 -151 211q-259 0 -508 -333l-125 -623h-105zM468 1384q69 46 139 46q52 0 105 -26t109 -26q75 0 155 46l-18 -90q-69 -46 -139 -46q-52 0 -105 26t-109 26q-75 0 -155 -46z" />
    <glyph glyph-name="ograve" unicode="&#xf2;" horiz-adv-x="1160" 
d="M454 80q365 0 455 449q88 441 -277 441t-453 -441q-90 -449 275 -449zM73 525q107 535 577 535t363 -535q-107 -534 -577 -534q-468 0 -363 534zM784 1191h-84l-191 239h159z" />
    <glyph glyph-name="oacute" unicode="&#xf3;" horiz-adv-x="1160" 
d="M454 80q365 0 455 449q88 441 -277 441t-453 -441q-90 -449 275 -449zM73 525q107 535 577 535t363 -535q-107 -534 -577 -534q-468 0 -363 534zM780 1430h159l-287 -239h-84z" />
    <glyph glyph-name="ocircumflex" unicode="&#xf4;" horiz-adv-x="1160" 
d="M454 80q365 0 455 449q88 441 -277 441t-453 -441q-90 -449 275 -449zM73 525q107 535 577 535t363 -535q-107 -534 -577 -534q-468 0 -363 534zM669 1430h110l143 -260h-100l-113 194l-187 -194h-100z" />
    <glyph glyph-name="otilde" unicode="&#xf5;" horiz-adv-x="1160" 
d="M454 80q365 0 455 449q88 441 -277 441t-453 -441q-90 -449 275 -449zM73 525q107 535 577 535t363 -535q-107 -534 -577 -534q-468 0 -363 534zM465 1384q69 46 139 46q52 0 105 -26t109 -26q75 0 155 46l-18 -90q-69 -46 -139 -46q-52 0 -105 26t-109 26
q-75 0 -155 -46z" />
    <glyph glyph-name="odieresis" unicode="&#xf6;" horiz-adv-x="1160" 
d="M454 80q365 0 455 449q88 441 -277 441t-453 -441q-90 -449 275 -449zM73 525q107 535 577 535t363 -535q-107 -534 -577 -534q-468 0 -363 534zM948 1410l-26 -130h-135l26 130h135zM628 1410l-26 -130h-135l26 130h135z" />
    <glyph glyph-name="divide" unicode="&#xf7;" horiz-adv-x="1005" 
d="M867 570l-18 -90h-785l18 90h785zM489 280l-26 -130h-145l26 130h145zM613 900l-26 -130h-145l26 130h145z" />
    <glyph glyph-name="oslash" unicode="&#xf8;" horiz-adv-x="1160" 
d="M104 136q-81 133 -31 389q107 535 577 535q176 0 271 -75l62 65h138l-135 -140q77 -133 27 -385q-107 -534 -577 -534q-171 0 -265 72l-61 -63h-137zM903 823l-657 -682q73 -61 208 -61q365 0 455 449q37 186 -6 294zM188 223l656 683q-73 64 -212 64q-365 0 -453 -441
q-39 -196 9 -306z" />
    <glyph glyph-name="ugrave" unicode="&#xf9;" 
d="M1073 1050l-210 -1050h-85l43 314q-247 -314 -530 -314q-273 0 -212 305l149 745h105l-149 -745q-42 -211 131 -211q279 0 528 333l125 623h105zM786 1191h-84l-191 239h159z" />
    <glyph glyph-name="uacute" unicode="&#xfa;" 
d="M1073 1050l-210 -1050h-85l43 314q-247 -314 -530 -314q-273 0 -212 305l149 745h105l-149 -745q-42 -211 131 -211q279 0 528 333l125 623h105zM783 1430h159l-287 -239h-84z" />
    <glyph glyph-name="ucircumflex" unicode="&#xfb;" 
d="M1073 1050l-210 -1050h-85l43 314q-247 -314 -530 -314q-273 0 -212 305l149 745h105l-149 -745q-42 -211 131 -211q279 0 528 333l125 623h105zM672 1430h110l143 -260h-100l-113 194l-187 -194h-100z" />
    <glyph glyph-name="udieresis" unicode="&#xfc;" 
d="M1073 1050l-210 -1050h-85l43 314q-247 -314 -530 -314q-273 0 -212 305l149 745h105l-149 -745q-42 -211 131 -211q279 0 528 333l125 623h105zM950 1410l-26 -130h-135l26 130h135zM630 1410l-26 -130h-135l26 130h135z" />
    <glyph glyph-name="yacute" unicode="&#xfd;" 
d="M821 314q-247 -314 -530 -314q-273 0 -212 305l149 745h105l-149 -745q-42 -211 131 -211q279 0 528 333l125 623h105l-210 -1050q-76 -380 -539 -380q-194 0 -334 50l18 90q143 -50 336 -50q356 0 414 290zM783 1430h159l-287 -239h-84z" />
    <glyph glyph-name="thorn" unicode="&#xfe;" horiz-adv-x="1128" 
d="M148 123q165 -29 295 -29q350 0 444 469q77 387 -170 387q-214 0 -455 -254zM304 1430h105l-126 -630q249 250 465 250q338 0 239 -494q-111 -556 -554 -556q-165 0 -305 23l-81 -403h-105z" />
    <glyph glyph-name="ydieresis" unicode="&#xff;" 
d="M821 314q-247 -314 -530 -314q-273 0 -212 305l149 745h105l-149 -745q-42 -211 131 -211q279 0 528 333l125 623h105l-210 -1050q-76 -380 -539 -380q-194 0 -334 50l18 90q143 -50 336 -50q356 0 414 290zM950 1410l-26 -130h-135l26 130h135zM630 1410l-26 -130h-135
l26 130h135z" />
    <glyph glyph-name="Amacron" unicode="&#x100;" horiz-adv-x="1492" 
d="M12 0h-119l933 1430h125l364 -1430h-118l-116 480h-601l49 90h531l-187 778zM1200 1810l-18 -90h-500l18 90h500z" />
    <glyph glyph-name="amacron" unicode="&#x101;" horiz-adv-x="1127" 
d="M906 932q-130 24 -270 24q-375 0 -461 -433q-85 -423 172 -423q244 0 444 254zM825 0h-85l30 250q-208 -250 -444 -250q-358 0 -254 521q106 529 591 529q213 0 363 -43zM983 1430l-18 -90h-500l18 90h500z" />
    <glyph glyph-name="Abreve" unicode="&#x102;" horiz-adv-x="1492" 
d="M12 0h-119l933 1430h125l364 -1430h-118l-116 480h-601l49 90h531l-187 778zM695 1810h85q-36 -180 134 -180t206 180h85q-52 -260 -307 -260t-203 260z" />
    <glyph glyph-name="abreve" unicode="&#x103;" horiz-adv-x="1127" 
d="M906 932q-130 24 -270 24q-375 0 -461 -433q-85 -423 172 -423q244 0 444 254zM825 0h-85l30 250q-208 -250 -444 -250q-358 0 -254 521q106 529 591 529q213 0 363 -43zM478 1430h85q-36 -180 134 -180t206 180h85q-52 -260 -307 -260t-203 260z" />
    <glyph glyph-name="Aogonek" unicode="&#x104;" horiz-adv-x="1492" 
d="M12 0h-119l933 1430h125l364 -1430q-267 -126 -288 -228q-23 -118 102 -118q85 0 141 20l-16 -80q-65 -20 -153 -20q-211 0 -177 173q31 151 273 253l-116 480h-601l49 90h531l-187 778z" />
    <glyph glyph-name="aogonek" unicode="&#x105;" horiz-adv-x="1127" 
d="M906 932q-130 24 -270 24q-375 0 -461 -433q-85 -423 172 -423q244 0 444 254zM734 20l36 230q-208 -250 -444 -250q-358 0 -254 521q106 529 591 529q213 0 363 -43l-201 -1007q-267 -126 -288 -228q-23 -118 102 -118q85 0 141 20l-16 -80q-65 -20 -153 -20
q-211 0 -177 173q31 151 300 273z" />
    <glyph glyph-name="Cacute" unicode="&#x106;" horiz-adv-x="1405" 
d="M1128 50q-207 -60 -412 -60q-750 0 -601 745q141 705 891 705q205 0 388 -60l-18 -90q-183 60 -368 60q-665 0 -788 -615q-131 -655 534 -655q185 0 392 60zM1035 1810h159l-287 -239h-84z" />
    <glyph glyph-name="cacute" unicode="&#x107;" horiz-adv-x="970" 
d="M764 130q-156 -130 -356 -130q-440 0 -333 535q103 515 593 515q150 0 274 -30l-18 -90q-134 30 -264 30q-385 0 -470 -425q-89 -445 246 -445q180 0 348 140zM725 1430h159l-287 -239h-84z" />
    <glyph glyph-name="Ccircumflex" unicode="&#x108;" horiz-adv-x="1405" 
d="M1128 50q-207 -60 -412 -60q-750 0 -601 745q141 705 891 705q205 0 388 -60l-18 -90q-183 60 -368 60q-665 0 -788 -615q-131 -655 534 -655q185 0 392 60zM984 1810h110l143 -260h-100l-113 194l-187 -194h-100z" />
    <glyph glyph-name="ccircumflex" unicode="&#x109;" horiz-adv-x="970" 
d="M764 130q-156 -130 -356 -130q-440 0 -333 535q103 515 593 515q150 0 274 -30l-18 -90q-134 30 -264 30q-385 0 -470 -425q-89 -445 246 -445q180 0 348 140zM624 1430h110l143 -260h-100l-113 194l-187 -194h-100z" />
    <glyph glyph-name="Cdotaccent" unicode="&#x10a;" horiz-adv-x="1405" 
d="M1128 50q-207 -60 -412 -60q-750 0 -601 745q141 705 891 705q205 0 388 -60l-18 -90q-183 60 -368 60q-665 0 -788 -615q-131 -655 534 -655q185 0 392 60zM1102 1810l-30 -150h-165l30 150h165z" />
    <glyph glyph-name="cdotaccent" unicode="&#x10b;" horiz-adv-x="970" 
d="M764 130q-156 -130 -356 -130q-440 0 -333 535q103 515 593 515q150 0 274 -30l-18 -90q-134 30 -264 30q-385 0 -470 -425q-89 -445 246 -445q180 0 348 140zM762 1430l-30 -150h-165l30 150h165z" />
    <glyph glyph-name="Ccaron" unicode="&#x10c;" horiz-adv-x="1405" 
d="M1128 50q-207 -60 -412 -60q-750 0 -601 745q141 705 891 705q205 0 388 -60l-18 -90q-183 60 -368 60q-665 0 -788 -615q-131 -655 534 -655q185 0 392 60zM750 1810h100l109 -194l191 194h100l-247 -260h-110z" />
    <glyph glyph-name="ccaron" unicode="&#x10d;" horiz-adv-x="970" 
d="M764 130q-156 -130 -356 -130q-440 0 -333 535q103 515 593 515q150 0 274 -30l-18 -90q-134 30 -264 30q-385 0 -470 -425q-89 -445 246 -445q180 0 348 140zM429 1430h100l109 -194l191 194h100l-247 -260h-110z" />
    <glyph glyph-name="Dcaron" unicode="&#x10e;" horiz-adv-x="1470" 
d="M536 90q595 0 728 664q117 586 -478 586h-395l-250 -1250h395zM18 0l286 1430h510q700 0 565 -676q-151 -754 -861 -754h-500zM659 1810h100l109 -194l191 194h100l-247 -260h-110z" />
    <glyph glyph-name="dcaron" unicode="&#x10f;" horiz-adv-x="1127" 
d="M825 0h-85l30 250q-208 -250 -444 -250q-358 0 -254 521q106 529 591 529q146 0 263 -20l80 400h105zM906 932q-130 24 -270 24q-375 0 -461 -433q-85 -423 172 -423q244 0 444 254zM1476 1430l-237 -435h-115l237 435h115z" />
    <glyph glyph-name="Dcroat" unicode="&#x110;" horiz-adv-x="1520" 
d="M277 770h445l-18 -90h-445l-118 -590h395q595 0 728 664q117 586 -478 586h-395zM154 680h-200l18 90h200l132 660h510q700 0 565 -676q-151 -754 -861 -754h-500z" />
    <glyph glyph-name="dcroat" unicode="&#x111;" horiz-adv-x="1127" 
d="M906 932q-130 24 -270 24q-375 0 -461 -433q-85 -423 172 -423q244 0 444 254zM972 1260l34 170h105l-286 -1430h-85l30 250q-208 -250 -444 -250q-358 0 -254 521q106 529 591 529q146 0 263 -20l28 140h-722l18 90h722z" />
    <glyph glyph-name="Emacron" unicode="&#x112;" horiz-adv-x="1248" 
d="M1243 1430l-18 -90h-834l-114 -570h800l-18 -90h-800l-118 -590h848l-18 -90h-953l286 1430h939zM1091 1810l-18 -90h-500l18 90h500z" />
    <glyph glyph-name="emacron" unicode="&#x113;" horiz-adv-x="1075" 
d="M978 776q-57 -284 -427 -284h-380q-80 -402 296 -402q209 0 376 140l-20 -100q-165 -130 -374 -130q-481 0 -374 537q103 513 576 513q382 0 327 -274zM190 586h378q267 0 306 193q36 183 -241 183q-350 0 -443 -376zM942 1430l-18 -90h-500l18 90h500z" />
    <glyph glyph-name="Ebreve" unicode="&#x114;" horiz-adv-x="1248" 
d="M1243 1430l-18 -90h-834l-114 -570h800l-18 -90h-800l-118 -590h848l-18 -90h-953l286 1430h939zM586 1810h85q-36 -180 134 -180t206 180h85q-52 -260 -307 -260t-203 260z" />
    <glyph glyph-name="ebreve" unicode="&#x115;" horiz-adv-x="1075" 
d="M978 776q-57 -284 -427 -284h-380q-80 -402 296 -402q209 0 376 140l-20 -100q-165 -130 -374 -130q-481 0 -374 537q103 513 576 513q382 0 327 -274zM190 586h378q267 0 306 193q36 183 -241 183q-350 0 -443 -376zM437 1430h85q-36 -180 134 -180t206 180h85
q-52 -260 -307 -260t-203 260z" />
    <glyph glyph-name="Edotaccent" unicode="&#x116;" horiz-adv-x="1248" 
d="M1243 1430l-18 -90h-834l-114 -570h800l-18 -90h-800l-118 -590h848l-18 -90h-953l286 1430h939zM923 1810l-30 -150h-165l30 150h165z" />
    <glyph glyph-name="edotaccent" unicode="&#x117;" horiz-adv-x="1075" 
d="M978 776q-57 -284 -427 -284h-380q-80 -402 296 -402q209 0 376 140l-20 -100q-165 -130 -374 -130q-481 0 -374 537q103 513 576 513q382 0 327 -274zM190 586h378q267 0 306 193q36 183 -241 183q-350 0 -443 -376zM774 1430l-30 -150h-165l30 150h165z" />
    <glyph glyph-name="Eogonek" unicode="&#x118;" horiz-adv-x="1248" 
d="M846 0h-828l286 1430h939l-18 -90h-834l-114 -570h800l-18 -90h-800l-118 -590h848l-18 -90q-267 -126 -288 -228q-23 -118 102 -118q85 0 141 20l-16 -80q-65 -20 -153 -20q-211 0 -177 173q31 151 266 253z" />
    <glyph glyph-name="eogonek" unicode="&#x119;" horiz-adv-x="1075" 
d="M190 586h378q267 0 306 193q36 183 -241 183q-350 0 -443 -376zM651 43q-97 -43 -202 -43q-481 0 -374 537q103 513 576 513q382 0 327 -274q-57 -284 -427 -284h-380q-80 -402 296 -402q209 0 376 140l-24 -120q-285 -216 -310 -338q-23 -118 102 -118q85 0 141 20
l-16 -80q-65 -20 -153 -20q-211 0 -177 173q28 137 245 296z" />
    <glyph glyph-name="Ecaron" unicode="&#x11a;" horiz-adv-x="1248" 
d="M1243 1430l-18 -90h-834l-114 -570h800l-18 -90h-800l-118 -590h848l-18 -90h-953l286 1430h939zM591 1810h100l109 -194l191 194h100l-247 -260h-110z" />
    <glyph glyph-name="ecaron" unicode="&#x11b;" horiz-adv-x="1075" 
d="M978 776q-57 -284 -427 -284h-380q-80 -402 296 -402q209 0 376 140l-20 -100q-165 -130 -374 -130q-481 0 -374 537q103 513 576 513q382 0 327 -274zM190 586h378q267 0 306 193q36 183 -241 183q-350 0 -443 -376zM452 1430h100l109 -194l191 194h100l-247 -260h-110z
" />
    <glyph glyph-name="Gcircumflex" unicode="&#x11c;" horiz-adv-x="1405" 
d="M1129 56q-196 -66 -396 -66q-767 0 -618 745q141 705 891 705q205 0 388 -60l-18 -90q-183 60 -368 60q-665 0 -788 -615q-131 -655 515 -655q132 0 303 44l105 526h105zM924 1810h110l143 -260h-100l-113 194l-187 -194h-100z" />
    <glyph glyph-name="gcircumflex" unicode="&#x11d;" horiz-adv-x="1127" 
d="M906 932q-130 24 -270 24q-375 0 -461 -433q-85 -423 172 -423q244 0 444 254zM825 0q-76 -380 -539 -380q-194 0 -334 50l18 90q143 -50 336 -50q356 0 414 290l50 250q-208 -250 -444 -250q-358 0 -254 521q106 529 591 529q213 0 363 -43zM658 1430h110l143 -260h-100
l-113 194l-187 -194h-100z" />
    <glyph glyph-name="Gbreve" unicode="&#x11e;" horiz-adv-x="1405" 
d="M1129 56q-196 -66 -396 -66q-767 0 -618 745q141 705 891 705q205 0 388 -60l-18 -90q-183 60 -368 60q-665 0 -788 -615q-131 -655 515 -655q132 0 303 44l105 526h105zM754 1810h85q-36 -180 134 -180t206 180h85q-52 -260 -307 -260t-203 260z" />
    <glyph glyph-name="gbreve" unicode="&#x11f;" horiz-adv-x="1127" 
d="M906 932q-130 24 -270 24q-375 0 -461 -433q-85 -423 172 -423q244 0 444 254zM825 0q-76 -380 -539 -380q-194 0 -334 50l18 90q143 -50 336 -50q356 0 414 290l50 250q-208 -250 -444 -250q-358 0 -254 521q106 529 591 529q213 0 363 -43zM458 1430h85
q-36 -180 134 -180t206 180h85q-52 -260 -307 -260t-203 260z" />
    <glyph glyph-name="Gdotaccent" unicode="&#x120;" horiz-adv-x="1405" 
d="M1129 56q-196 -66 -396 -66q-767 0 -618 745q141 705 891 705q205 0 388 -60l-18 -90q-183 60 -368 60q-665 0 -788 -615q-131 -655 515 -655q132 0 303 44l105 526h105zM1102 1810l-30 -150h-165l30 150h165z" />
    <glyph glyph-name="gdotaccent" unicode="&#x121;" horiz-adv-x="1127" 
d="M906 932q-130 24 -270 24q-375 0 -461 -433q-85 -423 172 -423q244 0 444 254zM825 0q-76 -380 -539 -380q-194 0 -334 50l18 90q143 -50 336 -50q356 0 414 290l50 250q-208 -250 -444 -250q-358 0 -254 521q106 529 591 529q213 0 363 -43zM795 1430l-30 -150h-165
l30 150h165z" />
    <glyph glyph-name="Gcommaaccent" unicode="&#x122;" horiz-adv-x="1405" 
d="M1129 56q-196 -66 -396 -66q-767 0 -618 745q141 705 891 705q205 0 388 -60l-18 -90q-183 60 -368 60q-665 0 -788 -615q-131 -655 515 -655q132 0 303 44l105 526h105zM651 -100l-206 -280h-105l206 280h105z" />
    <glyph glyph-name="gcommaaccent" unicode="&#x123;" horiz-adv-x="1127" 
d="M906 932q-130 24 -270 24q-375 0 -461 -433q-85 -423 172 -423q244 0 444 254zM825 0q-76 -380 -539 -380q-194 0 -334 50l18 90q143 -50 336 -50q356 0 414 290l50 250q-208 -250 -444 -250q-358 0 -254 521q106 529 591 529q213 0 363 -43zM888 1430l-206 -280h-105
l206 280h105z" />
    <glyph glyph-name="Hcircumflex" unicode="&#x124;" horiz-adv-x="1505" 
d="M18 0l286 1430h105l-132 -660h975l132 660h105l-286 -1430h-105l136 680h-975l-136 -680h-105zM902 1810h110l143 -260h-100l-113 194l-187 -194h-100z" />
    <glyph glyph-name="hcircumflex" unicode="&#x125;" 
d="M19 0l286 1430h105l-139 -694q247 314 510 314q293 0 232 -305l-149 -745h-105l149 745q42 211 -151 211q-259 0 -508 -333l-125 -623h-105zM372 1835h110l143 -260h-100l-113 194l-187 -194h-100z" />
    <glyph glyph-name="Hbar" unicode="&#x126;" horiz-adv-x="1505" 
d="M1326 1140l58 290h105l-286 -1430h-105l136 680h-975l-136 -680h-105l286 1430h105l-58 -290h975zM333 1050l-56 -280h975l56 280h-975z" />
    <glyph glyph-name="hbar" unicode="&#x127;" 
d="M357 1170l-87 -434q247 314 510 314q293 0 232 -305l-149 -745h-105l149 745q42 211 -151 211q-259 0 -508 -333l-125 -623h-105l286 1430h105l-34 -170h730l-18 -90h-730z" />
    <glyph glyph-name="Itilde" unicode="&#x128;" horiz-adv-x="525" 
d="M460 1430l-286 -1430h-105l286 1430h105zM218 1764q69 46 139 46q52 0 105 -26t109 -26q75 0 155 46l-18 -90q-69 -46 -139 -46q-52 0 -105 26t-109 26q-75 0 -155 -46z" />
    <glyph glyph-name="itilde" unicode="&#x129;" horiz-adv-x="445" 
d="M344 1050l-210 -1050h-105l210 1050h105zM108 1384q69 46 139 46q52 0 105 -26t109 -26q75 0 155 46l-18 -90q-69 -46 -139 -46q-52 0 -105 26t-109 26q-75 0 -155 -46z" />
    <glyph glyph-name="Imacron" unicode="&#x12a;" horiz-adv-x="525" 
d="M460 1430l-286 -1430h-105l286 1430h105zM727 1810l-18 -90h-500l18 90h500z" />
    <glyph glyph-name="imacron" unicode="&#x12b;" horiz-adv-x="445" 
d="M344 1050l-210 -1050h-105l210 1050h105zM617 1430l-18 -90h-500l18 90h500z" />
    <glyph glyph-name="Ibreve" unicode="&#x12c;" horiz-adv-x="525" 
d="M460 1430l-286 -1430h-105l286 1430h105zM222 1810h85q-36 -180 134 -180t206 180h85q-52 -260 -307 -260t-203 260z" />
    <glyph glyph-name="ibreve" unicode="&#x12d;" horiz-adv-x="445" 
d="M344 1050l-210 -1050h-105l210 1050h105zM112 1430h85q-36 -180 134 -180t206 180h85q-52 -260 -307 -260t-203 260z" />
    <glyph glyph-name="Iogonek" unicode="&#x12e;" horiz-adv-x="525" 
d="M68 0l286 1430h105l-286 -1430q-247 -126 -267 -228q-24 -118 101 -118q85 0 141 20l-16 -80q-65 -20 -153 -20q-211 0 -176 173q30 151 265 253z" />
    <glyph glyph-name="iogonek" unicode="&#x12f;" horiz-adv-x="465" 
d="M439 1430l-24 -120h-125l24 120h125zM38 0l210 1050h105l-210 -1050q-247 -126 -267 -228q-24 -118 101 -118q85 0 141 20l-16 -80q-65 -20 -153 -20q-211 0 -176 173q30 151 265 253z" />
    <glyph glyph-name="Idotaccent" unicode="&#x130;" horiz-adv-x="525" 
d="M459 1430l-286 -1430h-105l286 1430h105zM559 1810l-30 -150h-165l30 150h165z" />
    <glyph glyph-name="dotlessi" unicode="&#x131;" horiz-adv-x="445" 
d="M343 1050l-210 -1050h-105l210 1050h105z" />
    <glyph glyph-name="IJ" unicode="&#x132;" horiz-adv-x="1175" 
d="M459 1430l-286 -1430h-105l286 1430h105zM1159 1430l-204 -1018q-82 -412 -537 -412l18 90q350 0 414 322l204 1018h105z" />
    <glyph glyph-name="ij" unicode="&#x133;" horiz-adv-x="930" 
d="M439 1430l-24 -120h-125l24 120h125zM353 1050l-210 -1050h-105l210 1050h105zM904 1430l-24 -120h-125l24 120h125zM818 1050l-194 -970q-64 -318 -245 -448l-62 65q142 85 202 383l194 970h105z" />
    <glyph glyph-name="Jcircumflex" unicode="&#x134;" horiz-adv-x="650" 
d="M635 1430l-204 -1018q-82 -412 -537 -412l18 90q350 0 414 322l204 1018h105zM592 1810h110l143 -260h-100l-113 194l-187 -194h-100z" />
    <glyph glyph-name="jcircumflex" unicode="&#x135;" horiz-adv-x="465" 
d="M353 1050l-194 -970q-64 -318 -245 -448l-62 65q142 85 202 383l194 970h105zM319 1430h110l143 -260h-100l-114 194l-186 -194h-100z" />
    <glyph glyph-name="Kcommaaccent" unicode="&#x136;" horiz-adv-x="1325" 
d="M409 1430l-286 -1430h-105l286 1430h105zM1390 1430l-833 -701l601 -729h-147l-563 698l14 72l774 660h154zM596 -100l-206 -280h-105l206 280h105z" />
    <glyph glyph-name="kcommaaccent" unicode="&#x137;" horiz-adv-x="1101" 
d="M8 0l286 1430h105l-132 -662q249 282 519 282q292 0 237 -273q-46 -230 -422 -364l293 -413h-129l-265 395l13 63q364 111 404 310q38 192 -172 192q-243 0 -499 -294l-133 -666h-105zM474 -100l-206 -280h-105l206 280h105z" />
    <glyph glyph-name="kgreenlandic" unicode="&#x138;" horiz-adv-x="996" 
d="M1054 1050l-590 -502l386 -548h-127l-359 525l15 73l537 452h138zM8 0l210 1050h105l-210 -1050h-105z" />
    <glyph glyph-name="Lacute" unicode="&#x139;" horiz-adv-x="1143" 
d="M409 1430l-268 -1340h828l-18 -90h-933l286 1430h105zM537 1810h159l-287 -239h-84z" />
    <glyph glyph-name="lacute" unicode="&#x13a;" horiz-adv-x="465" 
d="M429 1430l-286 -1430h-105l286 1430h105zM579 1835h159l-287 -239h-84z" />
    <glyph glyph-name="Lcommaaccent" unicode="&#x13b;" horiz-adv-x="1143" 
d="M409 1430l-268 -1340h828l-18 -90h-933l286 1430h105zM542 -100l-206 -280h-105l206 280h105z" />
    <glyph glyph-name="lcommaaccent" unicode="&#x13c;" horiz-adv-x="465" 
d="M429 1430l-286 -1430h-105l286 1430h105zM118 -100l-206 -280h-105l206 280h105z" />
    <glyph glyph-name="Lcaron" unicode="&#x13d;" horiz-adv-x="1143" 
d="M409 1430l-268 -1340h828l-18 -90h-933l286 1430h105zM894 1430l-237 -435h-115l237 435h115z" />
    <glyph glyph-name="lcaron" unicode="&#x13e;" horiz-adv-x="465" 
d="M429 1430l-286 -1430h-105l286 1430h105zM794 1430l-237 -435h-115l237 435h115z" />
    <glyph glyph-name="Ldot" unicode="&#x13f;" horiz-adv-x="1143" 
d="M409 1430l-268 -1340h828l-18 -90h-933l286 1430h105zM533 715q19 95 114 95t76 -95t-114 -95t-76 95z" />
    <glyph glyph-name="ldot" unicode="&#x140;" horiz-adv-x="465" 
d="M429 1430l-286 -1430h-105l286 1430h105zM377 566q19 95 114 95t76 -95t-114 -95t-76 95z" />
    <glyph glyph-name="Lslash" unicode="&#x141;" horiz-adv-x="1143" 
d="M136 592l-172 -110l22 110l172 110l146 728h105l-130 -650l462 296l-22 -110l-462 -296l-116 -580h828l-18 -90h-933z" />
    <glyph glyph-name="lslash" unicode="&#x142;" horiz-adv-x="465" 
d="M178 703l146 727h105l-130 -649l172 111l-22 -110l-172 -111l-134 -671h-105l118 593l-172 -111l22 110z" />
    <glyph glyph-name="Nacute" unicode="&#x143;" horiz-adv-x="1505" 
d="M18 0l286 1430h115l720 -1276l255 1276h95l-286 -1430h-85l-743 1312l-262 -1312h-95zM1013 1810h159l-287 -239h-84z" />
    <glyph glyph-name="nacute" unicode="&#x144;" 
d="M18 0l210 1050h85l-43 -314q247 314 510 314q293 0 232 -305l-149 -745h-105l149 745q42 211 -151 211q-259 0 -508 -333l-125 -623h-105zM783 1430h159l-287 -239h-84z" />
    <glyph glyph-name="Ncommaaccent" unicode="&#x145;" horiz-adv-x="1505" 
d="M18 0l286 1430h115l720 -1276l255 1276h95l-286 -1430h-85l-743 1312l-262 -1312h-95zM668 -100l-206 -280h-105l206 280h105z" />
    <glyph glyph-name="ncommaaccent" unicode="&#x146;" 
d="M18 0l210 1050h85l-43 -314q247 314 510 314q293 0 232 -305l-149 -745h-105l149 745q42 211 -151 211q-259 0 -508 -333l-125 -623h-105zM548 -100l-206 -280h-105l206 280h105z" />
    <glyph glyph-name="Ncaron" unicode="&#x147;" horiz-adv-x="1505" 
d="M18 0l286 1430h115l720 -1276l255 1276h95l-286 -1430h-85l-743 1312l-262 -1312h-95zM707 1810h100l109 -194l191 194h100l-247 -260h-110z" />
    <glyph glyph-name="ncaron" unicode="&#x148;" 
d="M18 0l210 1050h85l-43 -314q247 314 510 314q293 0 232 -305l-149 -745h-105l149 745q42 211 -151 211q-259 0 -508 -333l-125 -623h-105zM477 1430h100l109 -194l191 194h100l-247 -260h-110z" />
    <glyph glyph-name="napostrophe" unicode="&#x149;" 
d="M259 1430l-237 -435h-115l237 435h115zM18 0l210 1050h85l-43 -314q247 314 510 314q293 0 232 -305l-149 -745h-105l149 745q42 211 -151 211q-259 0 -508 -333l-125 -623h-105z" />
    <glyph glyph-name="Eng" unicode="&#x14a;" horiz-adv-x="1505" 
d="M1394 1430h95l-270 -1350q-64 -318 -245 -448l-62 65q135 75 197 318l-734 1297l-262 -1312h-95l286 1430h115l720 -1276z" />
    <glyph glyph-name="eng" unicode="&#x14b;" 
d="M907 745q42 211 -151 211q-259 0 -508 -333l-125 -623h-105l210 1050h85l-43 -314q247 314 510 314q293 0 232 -305l-133 -665q-64 -318 -245 -448l-62 65q142 85 202 383z" />
    <glyph glyph-name="Omacron" unicode="&#x14c;" horiz-adv-x="1645" 
d="M702 80q592 0 720 639q126 631 -466 631q-603 0 -729 -631q-128 -639 475 -639zM111 713q145 727 863 727q707 0 562 -727q-145 -723 -852 -723q-718 0 -573 723zM1317 1810l-18 -90h-500l18 90h500z" />
    <glyph glyph-name="omacron" unicode="&#x14d;" horiz-adv-x="1160" 
d="M454 80q365 0 455 449q88 441 -277 441t-453 -441q-90 -449 275 -449zM73 525q107 535 577 535t363 -535q-107 -534 -577 -534q-468 0 -363 534zM974 1430l-18 -90h-500l18 90h500z" />
    <glyph glyph-name="Obreve" unicode="&#x14e;" horiz-adv-x="1645" 
d="M702 80q592 0 720 639q126 631 -466 631q-603 0 -729 -631q-128 -639 475 -639zM111 713q145 727 863 727q707 0 562 -727q-145 -723 -852 -723q-718 0 -573 723zM812 1810h85q-36 -180 134 -180t206 180h85q-52 -260 -307 -260t-203 260z" />
    <glyph glyph-name="obreve" unicode="&#x14f;" horiz-adv-x="1160" 
d="M454 80q365 0 455 449q88 441 -277 441t-453 -441q-90 -449 275 -449zM73 525q107 535 577 535t363 -535q-107 -534 -577 -534q-468 0 -363 534zM469 1430h85q-36 -180 134 -180t206 180h85q-52 -260 -307 -260t-203 260z" />
    <glyph glyph-name="Ohungarumlaut" unicode="&#x150;" horiz-adv-x="1645" 
d="M702 80q592 0 720 639q126 631 -466 631q-603 0 -729 -631q-128 -639 475 -639zM111 713q145 727 863 727q707 0 562 -727q-145 -723 -852 -723q-718 0 -573 723zM979 1810h159l-287 -239h-84zM1260 1810h159l-287 -239h-84z" />
    <glyph glyph-name="ohungarumlaut" unicode="&#x151;" horiz-adv-x="1160" 
d="M454 80q365 0 455 449q88 441 -277 441t-453 -441q-90 -449 275 -449zM73 525q107 535 577 535t363 -535q-107 -534 -577 -534q-468 0 -363 534zM666 1430h159l-287 -239h-84zM947 1430h159l-287 -239h-84z" />
    <glyph glyph-name="OE" unicode="&#x152;" horiz-adv-x="2235" 
d="M704 90q592 0 718 629q124 621 -468 621q-603 0 -727 -621q-126 -629 477 -629zM111 713q143 717 861 717h1257l-18 -90h-855q248 -137 191 -570h515l-18 -90h-515q-119 -447 -435 -590h882l-18 -90h-1272q-718 0 -575 713z" />
    <glyph glyph-name="oe" unicode="&#x153;" horiz-adv-x="1910" 
d="M454 80q365 0 455 449q88 441 -277 441t-453 -441q-90 -449 275 -449zM1025 586h378q267 0 306 193q36 183 -241 183q-350 0 -443 -376zM899 254q-156 -263 -463 -263q-468 0 -363 534q107 535 577 535q313 0 366 -258q155 248 470 248q382 0 327 -274
q-57 -284 -427 -284h-380q-80 -402 296 -402q209 0 376 140l-20 -100q-165 -130 -374 -130q-328 0 -385 254z" />
    <glyph glyph-name="Racute" unicode="&#x154;" horiz-adv-x="1235" 
d="M18 0l286 1430h590q388 0 319 -343q-64 -318 -505 -421l350 -666h-124l-342 663l14 73q433 63 489 343q51 258 -237 258h-468l-267 -1337h-105zM840 1810h159l-287 -239h-84z" />
    <glyph glyph-name="racute" unicode="&#x155;" horiz-adv-x="685" 
d="M18 0l210 1050h85l-55 -374q216 374 460 374l-21 -104q-238 0 -457 -363l-117 -583h-105zM605 1430h159l-287 -239h-84z" />
    <glyph glyph-name="Rcommaaccent" unicode="&#x156;" horiz-adv-x="1235" 
d="M18 0l286 1430h590q388 0 319 -343q-64 -318 -505 -421l350 -666h-124l-342 663l14 73q433 63 489 343q51 258 -237 258h-468l-267 -1337h-105zM546 -100l-206 -280h-105l206 280h105z" />
    <glyph glyph-name="rcommaaccent" unicode="&#x157;" horiz-adv-x="685" 
d="M19 0l210 1050h85l-55 -374q216 374 460 374l-21 -104q-238 0 -457 -363l-117 -583h-105zM101 -100l-206 -280h-105l206 280h105z" />
    <glyph glyph-name="Rcaron" unicode="&#x158;" horiz-adv-x="1235" 
d="M18 0l286 1430h590q388 0 319 -343q-64 -318 -505 -421l350 -666h-124l-342 663l14 73q433 63 489 343q51 258 -237 258h-468l-267 -1337h-105zM552 1810h100l109 -194l191 194h100l-247 -260h-110z" />
    <glyph glyph-name="rcaron" unicode="&#x159;" horiz-adv-x="685" 
d="M18 0l210 1050h85l-55 -374q216 374 460 374l-21 -104q-238 0 -457 -363l-117 -583h-105zM299 1430h100l109 -194l191 194h100l-247 -260h-110z" />
    <glyph glyph-name="Sacute" unicode="&#x15a;" horiz-adv-x="1310" 
d="M18 50l22 110q209 -80 480 -80q449 0 517 340q50 250 -242 250h-294q-399 0 -327 360q82 410 667 410q240 0 453 -60l-20 -100q-211 70 -451 70q-480 0 -544 -320q-52 -260 242 -260h294q397 0 327 -350q-86 -430 -640 -430q-271 0 -484 60zM915 1810h159l-287 -239h-84z
" />
    <glyph glyph-name="sacute" unicode="&#x15b;" horiz-adv-x="1030" 
d="M8 50l20 100q163 -60 332 -60q331 0 373 210q34 170 -211 170h-130q-330 0 -274 280q60 300 497 300q168 0 333 -50l-20 -100q-163 60 -331 60q-332 0 -374 -210q-36 -180 189 -180h130q350 0 296 -270q-60 -300 -496 -300q-169 0 -334 50zM715 1430h159l-287 -239h-84z
" />
    <glyph glyph-name="Scircumflex" unicode="&#x15c;" horiz-adv-x="1310" 
d="M18 50l22 110q209 -80 480 -80q449 0 517 340q50 250 -242 250h-294q-399 0 -327 360q82 410 667 410q240 0 453 -60l-20 -100q-211 70 -451 70q-480 0 -544 -320q-52 -260 242 -260h294q397 0 327 -350q-86 -430 -640 -430q-271 0 -484 60zM834 1810h110l143 -260h-100
l-113 194l-187 -194h-100z" />
    <glyph glyph-name="scircumflex" unicode="&#x15d;" horiz-adv-x="1030" 
d="M8 50l20 100q163 -60 332 -60q331 0 373 210q34 170 -211 170h-130q-330 0 -274 280q60 300 497 300q168 0 333 -50l-20 -100q-163 60 -331 60q-332 0 -374 -210q-36 -180 189 -180h130q350 0 296 -270q-60 -300 -496 -300q-169 0 -334 50zM614 1430h110l143 -260h-100
l-113 194l-187 -194h-100z" />
    <glyph glyph-name="Scedilla" unicode="&#x15e;" horiz-adv-x="1310" 
d="M424 -9q-224 8 -406 59l22 110q209 -80 480 -80q449 0 517 340q50 250 -242 250h-294q-399 0 -327 360q82 410 667 410q240 0 453 -60l-20 -100q-211 70 -451 70q-480 0 -544 -320q-52 -260 242 -260h294q397 0 327 -350q-84 -422 -620 -430l-49 -67q224 0 189 -172
q-34 -173 -275 -173q-108 0 -206 50l17 88q96 -60 204 -60q148 0 167 95q19 94 -104 94h-153z" />
    <glyph glyph-name="scedilla" unicode="&#x15f;" horiz-adv-x="1030" 
d="M321 0q-158 3 -313 50l20 100q163 -60 332 -60q331 0 373 210q34 170 -211 170h-130q-330 0 -274 280q60 300 497 300q168 0 333 -50l-20 -100q-163 60 -331 60q-332 0 -374 -210q-36 -180 189 -180h130q350 0 296 -270q-54 -272 -417 -297l-58 -80q224 0 189 -172
q-34 -173 -275 -173q-108 0 -206 50l17 88q96 -60 204 -60q148 0 167 95q19 94 -104 94h-153z" />
    <glyph glyph-name="Scaron" unicode="&#x160;" horiz-adv-x="1310" 
d="M18 50l22 110q209 -80 480 -80q449 0 517 340q50 250 -242 250h-294q-399 0 -327 360q82 410 667 410q240 0 453 -60l-20 -100q-211 70 -451 70q-480 0 -544 -320q-52 -260 242 -260h294q397 0 327 -350q-86 -430 -640 -430q-271 0 -484 60zM609 1810h100l109 -194
l191 194h100l-247 -260h-110z" />
    <glyph glyph-name="scaron" unicode="&#x161;" horiz-adv-x="1030" 
d="M8 50l20 100q163 -60 332 -60q331 0 373 210q34 170 -211 170h-130q-330 0 -274 280q60 300 497 300q168 0 333 -50l-20 -100q-163 60 -331 60q-332 0 -374 -210q-36 -180 189 -180h130q350 0 296 -270q-60 -300 -496 -300q-169 0 -334 50zM409 1430h100l109 -194
l191 194h100l-247 -260h-110z" />
    <glyph glyph-name="Tcommaaccent" unicode="&#x162;" horiz-adv-x="1095" 
d="M1229 1430l-18 -90h-490l-268 -1340h-105l268 1340h-480l18 90h1075zM424 -100l-206 -280h-105l206 280h105z" />
    <glyph glyph-name="Tcommaaccent" unicode="&#x21a;" horiz-adv-x="1095" 
d="M1229 1430l-18 -90h-490l-268 -1340h-105l268 1340h-480l18 90h1075zM424 -100l-206 -280h-105l206 280h105z" />
    <glyph glyph-name="tcommaaccent" unicode="&#x163;" horiz-adv-x="627" 
d="M258 1220h64l-15 -170h305l-18 -90h-286l-133 -663q-41 -207 111 -207h134l-18 -90h-132q-256 0 -199 283zM218 -100l-206 -280h-105l206 280h105z" />
    <glyph glyph-name="tcommaaccent" unicode="&#x21b;" horiz-adv-x="627" 
d="M258 1220h64l-15 -170h305l-18 -90h-286l-133 -663q-41 -207 111 -207h134l-18 -90h-132q-256 0 -199 283zM218 -100l-206 -280h-105l206 280h105z" />
    <glyph glyph-name="Tcaron" unicode="&#x164;" horiz-adv-x="1095" 
d="M1229 1430l-18 -90h-490l-268 -1340h-105l268 1340h-480l18 90h1075zM502 1810h100l109 -194l191 194h100l-247 -260h-110z" />
    <glyph glyph-name="tcaron" unicode="&#x165;" horiz-adv-x="627" 
d="M258 1220h64l-15 -170h305l-18 -90h-286l-133 -663q-41 -207 111 -207h134l-18 -90h-132q-256 0 -199 283zM1003 1430l-237 -435h-115l237 435h115z" />
    <glyph glyph-name="Tbar" unicode="&#x166;" horiz-adv-x="1095" 
d="M500 760l116 580h-480l18 90h1075l-18 -90h-490l-116 -580h490l-18 -90h-490l-134 -670h-105l134 670h-480l18 90h480z" />
    <glyph glyph-name="tbar" unicode="&#x167;" horiz-adv-x="627" 
d="M133 593l125 627h64l-15 -170h305l-18 -90h-286l-73 -367h286l-18 -90h-286l-41 -206q-42 -207 110 -207h134l-18 -90h-132q-256 0 -199 283l44 220h-156l18 90h156z" />
    <glyph glyph-name="Utilde" unicode="&#x168;" horiz-adv-x="1470" 
d="M128 552l176 878h105l-176 -878q-94 -472 376 -472t564 472l176 878h105l-176 -878q-112 -562 -687 -562t-463 562zM680 1764q69 46 139 46q52 0 105 -26t109 -26q75 0 155 46l-18 -90q-69 -46 -139 -46q-52 0 -105 26t-109 26q-75 0 -155 -46z" />
    <glyph glyph-name="utilde" unicode="&#x169;" 
d="M1073 1050l-210 -1050h-85l43 314q-247 -314 -530 -314q-273 0 -212 305l149 745h105l-149 -745q-42 -211 131 -211q279 0 528 333l125 623h105zM468 1384q69 46 139 46q52 0 105 -26t109 -26q75 0 155 46l-18 -90q-69 -46 -139 -46q-52 0 -105 26t-109 26
q-75 0 -155 -46z" />
    <glyph glyph-name="Umacron" unicode="&#x16a;" horiz-adv-x="1470" 
d="M128 552l176 878h105l-176 -878q-94 -472 376 -472t564 472l176 878h105l-176 -878q-112 -562 -687 -562t-463 562zM1189 1810l-18 -90h-500l18 90h500z" />
    <glyph glyph-name="umacron" unicode="&#x16b;" 
d="M1073 1050l-210 -1050h-85l43 314q-247 -314 -530 -314q-273 0 -212 305l149 745h105l-149 -745q-42 -211 131 -211q279 0 528 333l125 623h105zM977 1430l-18 -90h-500l18 90h500z" />
    <glyph glyph-name="Ubreve" unicode="&#x16c;" horiz-adv-x="1470" 
d="M128 552l176 878h105l-176 -878q-94 -472 376 -472t564 472l176 878h105l-176 -878q-112 -562 -687 -562t-463 562zM684 1810h85q-36 -180 134 -180t206 180h85q-52 -260 -307 -260t-203 260z" />
    <glyph glyph-name="ubreve" unicode="&#x16d;" 
d="M1073 1050l-210 -1050h-85l43 314q-247 -314 -530 -314q-273 0 -212 305l149 745h105l-149 -745q-42 -211 131 -211q279 0 528 333l125 623h105zM472 1430h85q-36 -180 134 -180t206 180h85q-52 -260 -307 -260t-203 260z" />
    <glyph glyph-name="Uring" unicode="&#x16e;" horiz-adv-x="1470" 
d="M128 552l176 878h105l-176 -878q-94 -472 376 -472t564 472l176 878h105l-176 -878q-112 -562 -687 -562t-463 562zM880 1508q134 0 161 137q27 134 -107 134q-138 0 -165 -134q-27 -137 111 -137zM689 1643q40 200 258 200q214 0 174 -200q-40 -199 -254 -199
q-218 0 -178 199z" />
    <glyph glyph-name="uring" unicode="&#x16f;" 
d="M1073 1050l-210 -1050h-85l43 314q-247 -314 -530 -314q-273 0 -212 305l149 745h105l-149 -745q-42 -211 131 -211q279 0 528 333l125 623h105zM688 1226q134 0 161 137q27 134 -107 134q-138 0 -165 -134q-27 -137 111 -137zM497 1361q40 200 258 200q214 0 174 -200
q-40 -199 -254 -199q-218 0 -178 199z" />
    <glyph glyph-name="Uhungarumlaut" unicode="&#x170;" horiz-adv-x="1470" 
d="M128 552l176 878h105l-176 -878q-94 -472 376 -472t564 472l176 878h105l-176 -878q-112 -562 -687 -562t-463 562zM841 1810h159l-287 -239h-84zM1122 1810h159l-287 -239h-84z" />
    <glyph glyph-name="uhungarumlaut" unicode="&#x171;" 
d="M1073 1050l-210 -1050h-85l43 314q-247 -314 -530 -314q-273 0 -212 305l149 745h105l-149 -745q-42 -211 131 -211q279 0 528 333l125 623h105zM639 1430h159l-287 -239h-84zM920 1430h159l-287 -239h-84z" />
    <glyph glyph-name="Uogonek" unicode="&#x172;" horiz-adv-x="1470" 
d="M580 -10q-563 6 -452 562l176 878h105l-176 -878q-94 -472 376 -472t564 472l176 878h105l-176 -878q-101 -508 -580 -557q-239 -123 -259 -223q-23 -118 102 -118q85 0 141 20l-16 -80q-65 -20 -153 -20q-211 0 -177 173q29 144 244 243z" />
    <glyph glyph-name="uogonek" unicode="&#x173;" 
d="M780 10l41 304q-247 -314 -530 -314q-273 0 -212 305l149 745h105l-149 -745q-42 -211 131 -211q279 0 528 333l125 623h105l-210 -1050q-267 -126 -288 -228q-23 -118 102 -118q85 0 141 20l-16 -80q-65 -20 -153 -20q-211 0 -177 173q31 151 308 263z" />
    <glyph glyph-name="Wcircumflex" unicode="&#x174;" horiz-adv-x="1869" 
d="M179 1430h99l-23 -1329l728 1329h105l207 -1342l543 1342h91l-575 -1430h-152l-191 1306l-714 -1306h-149zM1059 1810h110l143 -260h-100l-113 194l-187 -194h-100z" />
    <glyph glyph-name="wcircumflex" unicode="&#x175;" horiz-adv-x="1675" 
d="M288 1050h105q-145 -225 -206 -530q-86 -430 169 -430q305 0 397 460l100 500h105l-100 -500q-92 -460 213 -460q255 0 341 430q61 305 6 530h105q55 -225 -6 -530q-104 -520 -464 -520q-305 0 -292 339q-118 -339 -423 -339q-360 0 -256 520q61 305 206 530zM927 1430
h110l143 -260h-100l-113 194l-187 -194h-100z" />
    <glyph glyph-name="Ycircumflex" unicode="&#x176;" horiz-adv-x="1250" 
d="M179 1430h125l297 -830l643 830h115l-722 -930l-100 -500h-105l100 500zM774 1810h110l143 -260h-100l-113 194l-187 -194h-100z" />
    <glyph glyph-name="ycircumflex" unicode="&#x177;" 
d="M821 314q-247 -314 -530 -314q-273 0 -212 305l149 745h105l-149 -745q-42 -211 131 -211q279 0 528 333l125 623h105l-210 -1050q-76 -380 -539 -380q-194 0 -334 50l18 90q143 -50 336 -50q356 0 414 290zM672 1430h110l143 -260h-100l-113 194l-187 -194h-100z" />
    <glyph glyph-name="Ydieresis" unicode="&#x178;" horiz-adv-x="1250" 
d="M179 1430h125l297 -830l643 830h115l-722 -930l-100 -500h-105l100 500zM1043 1790l-26 -130h-135l26 130h135zM723 1790l-26 -130h-135l26 130h135z" />
    <glyph glyph-name="Zacute" unicode="&#x179;" horiz-adv-x="1270" 
d="M1279 1430l-18 -90l-1117 -1250h847l-18 -90h-980l16 80l1136 1260h-864l18 90h980zM895 1810h159l-287 -239h-84z" />
    <glyph glyph-name="zacute" unicode="&#x17a;" horiz-adv-x="990" 
d="M198 1050h750l-18 -90l-821 -870h627l-18 -90h-750l18 90l819 870h-625zM695 1430h159l-287 -239h-84z" />
    <glyph glyph-name="Zdot" unicode="&#x17b;" horiz-adv-x="1270" 
d="M1279 1430l-18 -90l-1117 -1250h847l-18 -90h-980l16 80l1136 1260h-864l18 90h980zM922 1810l-30 -150h-165l30 150h165z" />
    <glyph glyph-name="zdot" unicode="&#x17c;" horiz-adv-x="990" 
d="M198 1050h750l-18 -90l-821 -870h627l-18 -90h-750l18 90l819 870h-625zM722 1430l-30 -150h-165l30 150h165z" />
    <glyph glyph-name="Zcaron" unicode="&#x17d;" horiz-adv-x="1270" 
d="M1279 1430l-18 -90l-1117 -1250h847l-18 -90h-980l16 80l1146 1260h-874l18 90h980zM644 1831h100l109 -194l191 194h100l-247 -260h-110z" />
    <glyph glyph-name="zcaron" unicode="&#x17e;" horiz-adv-x="990" 
d="M198 1050h750l-18 -90l-821 -870h627l-18 -90h-750l18 90l819 870h-625zM389 1430h100l109 -194l191 194h100l-247 -260h-110z" />
    <glyph glyph-name="longs" unicode="&#x17f;" horiz-adv-x="486" 
d="M238 1101q76 381 498 381q129 0 226 -40l-18 -90q-91 40 -227 40q-316 0 -375 -293l-203 -1019q-64 -318 -245 -448l-62 65q148 115 202 383z" />
    <glyph glyph-name="florin" unicode="&#x192;" horiz-adv-x="987" 
d="M1053 1340q-23 5 -45 5q-173 0 -281 -275l-64 -150h210l-38 -90h-210l-334 -850q-146 -364 -398 -364q-25 0 -51 4l18 90q23 -5 45 -5q173 0 281 275l334 850h-180l38 90h180l64 150q146 364 398 364q25 0 51 -4z" />
    <glyph glyph-name="Scommaaccent" unicode="&#x218;" horiz-adv-x="1310" 
d="M18 50l22 110q209 -80 480 -80q449 0 517 340q50 250 -242 250h-294q-399 0 -327 360q82 410 667 410q240 0 453 -60l-20 -100q-211 70 -451 70q-480 0 -544 -320q-52 -260 242 -260h294q397 0 327 -350q-86 -430 -640 -430q-271 0 -484 60zM571 -100l-206 -280h-105
l206 280h105z" />
    <glyph glyph-name="scommaaccent" unicode="&#x219;" horiz-adv-x="1030" 
d="M8 50l20 100q163 -60 332 -60q331 0 373 210q34 170 -211 170h-130q-330 0 -274 280q60 300 497 300q168 0 333 -50l-20 -100q-163 60 -331 60q-332 0 -374 -210q-36 -180 189 -180h130q350 0 296 -270q-60 -300 -496 -300q-169 0 -334 50zM481 -100l-206 -280h-105
l206 280h105z" />
    <glyph glyph-name="circumflex" unicode="&#x2c6;" horiz-adv-x="700" 
d="M439 1430h110l143 -260h-100l-113 194l-187 -194h-100z" />
    <glyph glyph-name="caron" unicode="&#x2c7;" horiz-adv-x="700" 
d="M244 1430h100l109 -194l191 194h100l-247 -260h-110z" />
    <glyph glyph-name="breve" unicode="&#x2d8;" horiz-adv-x="710" 
d="M244 1430h85q-36 -180 134 -180t206 180h85q-52 -260 -307 -260t-203 260z" />
    <glyph glyph-name="dotaccent" unicode="&#x2d9;" horiz-adv-x="365" 
d="M409 1430l-30 -150h-165l30 150h165z" />
    <glyph glyph-name="ring" unicode="&#x2da;" horiz-adv-x="632" 
d="M421 1226q134 0 161 137q27 134 -107 134q-138 0 -165 -134q-27 -137 111 -137zM230 1361q40 200 258 200q214 0 174 -200q-40 -199 -254 -199q-218 0 -178 199z" />
    <glyph glyph-name="ogonek" unicode="&#x2db;" horiz-adv-x="560" 
d="M298 0q-267 -126 -287 -228q-24 -118 101 -118q85 0 141 20l-16 -80q-65 -20 -153 -20q-211 0 -176 173q30 151 265 253h125z" />
    <glyph glyph-name="tilde" unicode="&#x2dc;" horiz-adv-x="700" 
d="M235 1384q69 46 139 46q52 0 105 -26t109 -26q75 0 155 46l-18 -90q-69 -46 -139 -46q-52 0 -105 26t-109 26q-75 0 -155 -46z" />
    <glyph glyph-name="hungarumlaut" unicode="&#x2dd;" horiz-adv-x="804" 
d="M408 1430h159l-287 -239h-84zM689 1430h159l-287 -239h-84z" />
    <glyph glyph-name="commaccent" unicode="&#x326;" horiz-adv-x="305" 
d="M118 -100l-206 -280h-105l206 280h105z" />
    <glyph glyph-name="uni037E" unicode="&#x37e;" horiz-adv-x="545" 
d="M260 185l-237 -435h-105l237 435h105zM453 1050l-25 -125h-135l25 125h135z" />
    <glyph glyph-name="tonos" unicode="&#x384;" horiz-adv-x="523" 
d="M408 1430h159l-287 -239h-84z" />
    <glyph glyph-name="dieresistonos" unicode="&#x385;" horiz-adv-x="855" 
d="M895 1410l-26 -130h-135l26 130h135zM375 1410l-26 -130h-135l26 130h135zM558 1430h159l-287 -239h-84z" />
    <glyph glyph-name="Alphatonos" unicode="&#x386;" horiz-adv-x="1492" 
d="M408 1430h159l-287 -239h-84zM12 0h-119l933 1430h125l364 -1430h-118l-116 480h-601l49 90h531l-187 778z" />
    <glyph glyph-name="anoteleia" unicode="&#x387;" horiz-adv-x="355" 
d="M314 1050l-25 -125h-135l25 125h135z" />
    <glyph glyph-name="Epsilontonos" unicode="&#x388;" horiz-adv-x="1421" 
d="M258 1430h159l-287 -239h-84zM1416 1430l-18 -90h-834l-114 -570h800l-18 -90h-800l-118 -590h848l-18 -90h-953l286 1430h939z" />
    <glyph glyph-name="Etatonos" unicode="&#x389;" horiz-adv-x="1678" 
d="M258 1430h159l-287 -239h-84zM191 0l286 1430h105l-132 -660h975l132 660h105l-286 -1430h-105l136 680h-975l-136 -680h-105z" />
    <glyph glyph-name="Iotatonos" unicode="&#x38a;" horiz-adv-x="698" 
d="M258 1430h159l-287 -239h-84zM632 1430l-286 -1430h-105l286 1430h105z" />
    <glyph glyph-name="Omicrontonos" unicode="&#x38c;" horiz-adv-x="1668" 
d="M258 1430h159l-287 -239h-84zM725 80q592 0 720 639q126 631 -466 631q-603 0 -729 -631q-128 -639 475 -639zM134 713q145 727 863 727q707 0 562 -727q-145 -723 -852 -723q-718 0 -573 723z" />
    <glyph glyph-name="Upsilontonos" unicode="&#x38e;" horiz-adv-x="1523" 
d="M258 1430h159l-287 -239h-84zM452 1430h125l297 -830l643 830h115l-722 -930l-100 -500h-105l100 500z" />
    <glyph glyph-name="Omegatonos" unicode="&#x38f;" horiz-adv-x="1633" 
d="M258 1430h159l-287 -239h-84zM16 0l18 90h355q-308 310 -224 730q126 630 811 630t559 -630q-84 -420 -516 -730h355l-18 -90h-500l18 90q476 330 556 730q108 540 -472 540t-688 -540q-80 -400 264 -730l-18 -90h-500z" />
    <glyph glyph-name="iotadieresistonos" unicode="&#x390;" horiz-adv-x="465" 
d="M353 1050l-210 -1050h-105l210 1050h105zM760 1410l-26 -130h-135l26 130h135zM240 1410l-26 -130h-135l26 130h135zM423 1430h159l-287 -239h-84z" />
    <glyph glyph-name="Alpha" unicode="&#x391;" horiz-adv-x="1492" 
d="M12 0h-119l933 1430h125l364 -1430h-118l-116 480h-601l49 90h531l-187 778z" />
    <glyph glyph-name="Beta" unicode="&#x392;" horiz-adv-x="1330" 
d="M18 0l286 1430h610q408 0 341 -333q-48 -244 -365 -349q303 -53 247 -335q-83 -413 -530 -413h-589zM614 90q346 0 410 320q57 283 -376 283h-80l14 71q509 45 565 326q50 250 -258 250h-498l-250 -1250h473z" />
    <glyph glyph-name="Gamma" unicode="&#x393;" horiz-adv-x="1013" 
d="M18 0l286 1430h853l-18 -90h-748l-268 -1340h-105z" />
    <glyph glyph-name="Delta" unicode="&#x394;" horiz-adv-x="1492" 
d="M-107 0l933 1430h126l363 -1430h-1422zM1174 90l-301 1258l-801 -1258h1102z" />
    <glyph glyph-name="Delta" unicode="&#x2206;" horiz-adv-x="1492" 
d="M-107 0l933 1430h126l363 -1430h-1422zM1174 90l-301 1258l-801 -1258h1102z" />
    <glyph glyph-name="Epsilon" unicode="&#x395;" horiz-adv-x="1248" 
d="M1243 1430l-18 -90h-834l-114 -570h800l-18 -90h-800l-118 -590h848l-18 -90h-953l286 1430h939z" />
    <glyph glyph-name="Zeta" unicode="&#x396;" horiz-adv-x="1270" 
d="M1279 1430l-18 -90l-1117 -1250h847l-18 -90h-980l16 80l1136 1260h-864l18 90h980z" />
    <glyph glyph-name="Eta" unicode="&#x397;" horiz-adv-x="1505" 
d="M18 0l286 1430h105l-132 -660h975l132 660h105l-286 -1430h-105l136 680h-975l-136 -680h-105z" />
    <glyph glyph-name="Theta" unicode="&#x398;" horiz-adv-x="1645" 
d="M498 783h675l-20 -100h-675zM702 80q592 0 720 639q126 631 -466 631q-603 0 -729 -631q-128 -639 475 -639zM111 713q145 727 863 727q707 0 562 -727q-145 -723 -852 -723q-718 0 -573 723z" />
    <glyph glyph-name="Iota" unicode="&#x399;" horiz-adv-x="525" 
d="M459 1430l-286 -1430h-105l286 1430h105z" />
    <glyph glyph-name="Kappa" unicode="&#x39a;" horiz-adv-x="1325" 
d="M409 1430l-286 -1430h-105l286 1430h105zM1390 1430l-833 -701l601 -729h-147l-563 698l14 72l774 660h154z" />
    <glyph glyph-name="Lambda" unicode="&#x39b;" horiz-adv-x="1492" 
d="M12 0h-119l933 1430h125l364 -1430h-118l-324 1348z" />
    <glyph glyph-name="Mu" unicode="&#x39c;" horiz-adv-x="1770" 
d="M18 0l286 1430h105l384 -1307l866 1307h95l-286 -1430h-95l247 1237l-815 -1237h-86l-357 1247l-249 -1247h-95z" />
    <glyph glyph-name="Nu" unicode="&#x39d;" horiz-adv-x="1505" 
d="M18 0l286 1430h115l720 -1276l255 1276h95l-286 -1430h-85l-743 1312l-262 -1312h-95z" />
    <glyph glyph-name="Xi" unicode="&#x39e;" horiz-adv-x="1196" 
d="M-22 100h996l-20 -100h-996zM244 1430h996l-20 -100h-996zM175 783h876l-20 -100h-876z" />
    <glyph glyph-name="Omicron" unicode="&#x39f;" horiz-adv-x="1645" 
d="M702 80q592 0 720 639q126 631 -466 631q-603 0 -729 -631q-128 -639 475 -639zM111 713q145 727 863 727q707 0 562 -727q-145 -723 -852 -723q-718 0 -573 723z" />
    <glyph glyph-name="Pi" unicode="&#x3a0;" horiz-adv-x="1425" 
d="M18 0l286 1430h1105l-286 -1430h-105l268 1340h-895l-268 -1340h-105z" />
    <glyph glyph-name="Rho" unicode="&#x3a1;" horiz-adv-x="1263" 
d="M18 0l286 1430h600q418 0 339 -393q-77 -387 -767 -493l1 96q586 79 648 389q61 308 -257 308h-478l-267 -1337h-105z" />
    <glyph glyph-name="Sigma" unicode="&#x3a3;" horiz-adv-x="1180" 
d="M244 1430h980l-18 -90h-870l392 -590l-612 -660h840l-18 -90h-980l18 90l627 660l-377 590z" />
    <glyph glyph-name="Tau" unicode="&#x3a4;" horiz-adv-x="1095" 
d="M1229 1430l-18 -90h-490l-268 -1340h-105l268 1340h-480l18 90h1075z" />
    <glyph glyph-name="Upsilon" unicode="&#x3a5;" horiz-adv-x="1250" 
d="M179 1430h125l297 -830l643 830h115l-722 -930l-100 -500h-105l100 500z" />
    <glyph glyph-name="Phi" unicode="&#x3a6;" horiz-adv-x="1644" 
d="M651 113q-663 37 -548 610q111 557 788 594l23 113h104l-22 -112q663 -34 551 -595q-116 -578 -793 -611l-22 -112h-104zM669 204l204 1022q-563 -36 -657 -507q-96 -478 453 -515zM977 1227l-204 -1024q562 34 659 516q95 475 -455 508z" />
    <glyph glyph-name="Chi" unicode="&#x3a7;" horiz-adv-x="1320" 
d="M599 715l-420 715h125l373 -636l627 636h125l-705 -715l419 -715h-125l-373 636l-627 -636h-125z" />
    <glyph glyph-name="Psi" unicode="&#x3a8;" horiz-adv-x="1650" 
d="M739 541l178 889h104l-178 -889q512 20 597 447l89 442h105l-89 -442q-103 -517 -720 -537l-90 -451h-104l90 451q-609 20 -506 537l89 442h105l-89 -442q-85 -427 419 -447z" />
    <glyph glyph-name="Omega" unicode="&#x3a9;" horiz-adv-x="1610" 
d="M-7 0l18 90h355q-308 310 -224 730q126 630 811 630t559 -630q-84 -420 -516 -730h355l-18 -90h-500l18 90q476 330 556 730q108 540 -472 540t-688 -540q-80 -400 264 -730l-18 -90h-500z" />
    <glyph glyph-name="Omega" unicode="&#x2126;" horiz-adv-x="1610" 
d="M-7 0l18 90h355q-308 310 -224 730q126 630 811 630t559 -630q-84 -420 -516 -730h355l-18 -90h-500l18 90q476 330 556 730q108 540 -472 540t-688 -540q-80 -400 264 -730l-18 -90h-500z" />
    <glyph glyph-name="Iotadieresis" unicode="&#x3aa;" horiz-adv-x="525" 
d="M459 1430l-286 -1430h-105l286 1430h105zM690 1790l-26 -130h-135l26 130h135zM370 1790l-26 -130h-135l26 130h135z" />
    <glyph glyph-name="Upsilondieresis" unicode="&#x3ab;" horiz-adv-x="1250" 
d="M179 1430h125l297 -830l643 830h115l-722 -930l-100 -500h-105l100 500zM1053 1790l-26 -130h-135l26 130h135zM733 1790l-26 -130h-135l26 130h135z" />
    <glyph glyph-name="alphatonos" unicode="&#x3ac;" horiz-adv-x="1379" 
d="M63 525q105 525 545 525q331 0 392 -425l240 425h107l-314 -528l90 -522h-110l-59 406q-260 -406 -556 -406q-438 0 -335 525zM416 90q245 0 513 439q-84 431 -339 431q-335 0 -421 -431q-88 -439 247 -439zM870 1430h159l-287 -239h-84z" />
    <glyph glyph-name="epsilontonos" unicode="&#x3ad;" horiz-adv-x="925" 
d="M865 910q-138 60 -308 60q-290 0 -328 -192q-38 -188 287 -188h195l-18 -90h-198q-332 0 -374 -210t258 -210q170 0 332 60l-20 -100q-160 -50 -330 -50q-405 0 -345 300q40 200 269 255q-196 59 -161 233q56 282 461 282q160 0 300 -50zM663 1430h159l-287 -239h-84z
" />
    <glyph glyph-name="etatonos" unicode="&#x3ae;" horiz-adv-x="1185" 
d="M18 0l210 1050h85l-43 -314q247 314 510 314q293 0 232 -305l-225 -1125h-105l225 1125q42 211 -151 211q-259 0 -508 -333l-125 -623h-105zM793 1430h159l-287 -239h-84z" />
    <glyph glyph-name="iotatonos" unicode="&#x3af;" horiz-adv-x="465" 
d="M353 1050l-210 -1050h-105l210 1050h105zM433 1430h159l-287 -239h-84z" />
    <glyph glyph-name="upsilondieresistonos" unicode="&#x3b0;" horiz-adv-x="1210" 
d="M96 438l122 612h105l-122 -612q-72 -358 278 -358t422 358l122 612h105l-122 -612q-90 -448 -545 -448t-365 448zM1073 1410l-26 -130h-135l26 130h135zM553 1410l-26 -130h-135l26 130h135zM736 1430h159l-287 -239h-84z" />
    <glyph glyph-name="alpha" unicode="&#x3b1;" horiz-adv-x="1379" 
d="M63 525q105 525 545 525q331 0 392 -425l240 425h107l-314 -528l90 -522h-110l-59 406q-260 -406 -556 -406q-438 0 -335 525zM416 90q245 0 513 439q-84 431 -339 431q-335 0 -421 -431q-88 -439 247 -439z" />
    <glyph glyph-name="beta" unicode="&#x3b2;" horiz-adv-x="1196" 
d="M-64 -362l247 1233q111 559 605 559q410 0 343 -336q-52 -262 -316 -325q311 -37 241 -388q-77 -383 -491 -383q-136 0 -280 60l18 90q145 -60 282 -60q307 0 366 293q67 338 -384 339l12 58q409 54 461 316q49 246 -277 246q-382 0 -476 -472l-246 -1230h-105z" />
    <glyph glyph-name="gamma" unicode="&#x3b3;" horiz-adv-x="1080" 
d="M103 1050h115l197 -927l573 927h115l-666 -1050l-76 -380h-105l76 380z" />
    <glyph glyph-name="delta" unicode="&#x3b4;" horiz-adv-x="1200" 
d="M449 -10q-493 0 -385 540q102 510 595 510q86 0 176 -30q-217 213 -493 340l16 80h785l-16 -80h-597q622 -315 536 -810q-110 -550 -617 -550zM960 536q85 424 -317 424q-392 0 -478 -430q-90 -450 303 -450q401 0 492 456z" />
    <glyph glyph-name="epsilon" unicode="&#x3b5;" horiz-adv-x="925" 
d="M865 910q-138 60 -308 60q-290 0 -328 -192q-38 -188 287 -188h195l-18 -90h-198q-332 0 -374 -210t258 -210q170 0 332 60l-20 -100q-160 -50 -330 -50q-405 0 -345 300q40 200 269 255q-196 59 -161 233q56 282 461 282q160 0 300 -50z" />
    <glyph glyph-name="zeta" unicode="&#x3b6;" horiz-adv-x="1003" 
d="M447 1430h650l-18 -90q-852 -493 -937 -919q-66 -331 232 -331h201q244 0 211 -163q-41 -206 -384 -327l-24 78q285 99 315 247q15 75 -131 75h-201q-403 0 -320 417q90 449 886 923h-498z" />
    <glyph glyph-name="eta" unicode="&#x3b7;" 
d="M18 0l210 1050h85l-43 -314q247 314 510 314q293 0 232 -305l-225 -1125h-105l225 1125q42 211 -151 211q-259 0 -508 -333l-125 -623h-105z" />
    <glyph glyph-name="theta" unicode="&#x3b8;" horiz-adv-x="1245" 
d="M233 700q-118 -620 269 -620q376 0 506 620h-775zM1025 790q91 560 -269 560q-370 0 -504 -560h773zM121 713q145 727 653 727q497 0 352 -727q-145 -723 -642 -723q-508 0 -363 723z" />
    <glyph glyph-name="iota" unicode="&#x3b9;" horiz-adv-x="465" 
d="M353 1050l-210 -1050h-105l210 1050h105z" />
    <glyph glyph-name="kappa" unicode="&#x3ba;" horiz-adv-x="996" 
d="M1054 1050l-590 -502l386 -548h-127l-359 525l15 73l537 452h138zM8 0l210 1050h105l-210 -1050h-105z" />
    <glyph glyph-name="lambda" unicode="&#x3bb;" horiz-adv-x="1091" 
d="M561 1051q-47 237 -216 303l48 84q217 -71 276 -357l240 -1081h-116l-199 945l-575 -945h-121z" />
    <glyph glyph-name="nu" unicode="&#x3bd;" horiz-adv-x="1030" 
d="M78 1050h120l192 -959l578 959h120l-657 -1050h-122z" />
    <glyph glyph-name="xi" unicode="&#x3be;" horiz-adv-x="1018" 
d="M765 1430h244l-18 -90h-243q-302 0 -347 -224t258 -224h232l-18 -90h-222q-408 0 -484 -381q-66 -331 232 -331h221q224 0 189 -173q-39 -196 -382 -317l-26 68q289 119 315 247q17 85 -109 85h-221q-403 0 -320 417q67 332 356 431q-169 54 -125 274q62 308 468 308z
" />
    <glyph glyph-name="omicron" unicode="&#x3bf;" horiz-adv-x="1200" 
d="M476 90q395 0 483 439q86 431 -309 431t-481 -431q-88 -439 307 -439zM63 525q105 525 605 525t395 -525q-105 -524 -605 -524q-498 0 -395 524z" />
    <glyph glyph-name="pi" unicode="&#x3c0;" horiz-adv-x="1385" 
d="M81 990q152 60 302 60h970l-18 -90h-245l-128 -640q-46 -231 136 -231q11 0 23 1l-18 -90q-34 -5 -63 -5q-248 0 -183 325l128 640h-515l-192 -961h-105l192 961q-150 0 -302 -60z" />
    <glyph glyph-name="rho" unicode="&#x3c1;" horiz-adv-x="1212" 
d="M131 164q176 -64 330 -64q427 0 517 450q81 406 -314 406q-375 0 -456 -406zM685 1050q495 0 395 -500q-110 -550 -638 -550q-146 0 -332 60l-88 -440h-105l186 930q100 500 582 500z" />
    <glyph glyph-name="sigma1" unicode="&#x3c2;" horiz-adv-x="993" 
d="M954 910q-102 50 -255 50q-449 0 -527 -389q-57 -283 215 -357l148 -45q285 -74 245 -274q-55 -275 -495 -275l18 90q337 0 373 181q27 136 -183 190l-187 61q-304 79 -235 425q97 483 646 483q153 0 255 -50z" />
    <glyph glyph-name="sigma" unicode="&#x3c3;" horiz-adv-x="1277" 
d="M476 90q395 0 483 439q86 431 -299 431q-405 0 -491 -431q-88 -439 307 -439zM63 525q105 525 615 525h617l-18 -90h-311q158 -129 97 -435q-105 -524 -605 -524q-498 0 -395 524z" />
    <glyph glyph-name="tau" unicode="&#x3c4;" horiz-adv-x="769" 
d="M68 1050h694l-18 -90h-315l-118 -590q-56 -281 166 -281q11 0 23 1l-18 -90q-34 -4 -64 -4q-287 0 -212 374l118 590h-274z" />
    <glyph glyph-name="upsilon" unicode="&#x3c5;" horiz-adv-x="1210" 
d="M96 438l122 612h105l-122 -612q-72 -358 278 -358t422 358l122 612h105l-122 -612q-90 -448 -545 -448t-365 448z" />
    <glyph glyph-name="phi" unicode="&#x3c6;" horiz-adv-x="1505" 
d="M348 1050h125q-245 -225 -300 -500q-92 -460 389 -480l117 585q79 395 403 395q391 0 291 -500q-110 -550 -724 -570l-72 -360h-105l72 360q-586 20 -476 570q55 275 280 500zM1268 550q82 410 -201 410q-222 0 -283 -305l-117 -585q509 20 601 480z" />
    <glyph glyph-name="chi" unicode="&#x3c7;" horiz-adv-x="1050" 
d="M388 335l-280 715h125l238 -609l482 609h125l-565 -715l279 -715h-125l-238 609l-482 -609h-125z" />
    <glyph glyph-name="psi" unicode="&#x3c8;" horiz-adv-x="1610" 
d="M627 81l193 969h106l-193 -969q501 22 588 457l102 512h105l-102 -512q-105 -525 -711 -547l-75 -371h-106l75 371q-598 22 -493 547l102 512h105l-102 -512q-87 -435 406 -457z" />
    <glyph glyph-name="omega" unicode="&#x3c9;" horiz-adv-x="1675" 
d="M318 1050h105q-175 -225 -230 -500q-92 -460 163 -460q305 0 452 735h105q-147 -735 158 -735q255 0 347 460q55 275 -30 500h105q85 -225 30 -500q-110 -550 -470 -550q-305 0 -282 389q-128 -389 -433 -389q-360 0 -250 550q55 275 230 500z" />
    <glyph glyph-name="iotadieresis" unicode="&#x3ca;" horiz-adv-x="465" 
d="M353 1050l-210 -1050h-105l210 1050h105zM600 1410l-26 -130h-135l26 130h135zM280 1410l-26 -130h-135l26 130h135z" />
    <glyph glyph-name="upsilondieresis" unicode="&#x3cb;" horiz-adv-x="1210" 
d="M96 438l122 612h105l-122 -612q-72 -358 278 -358t422 358l122 612h105l-122 -612q-90 -448 -545 -448t-365 448zM973 1410l-26 -130h-135l26 130h135zM653 1410l-26 -130h-135l26 130h135z" />
    <glyph glyph-name="omicrontonos" unicode="&#x3cc;" horiz-adv-x="1200" 
d="M476 90q395 0 483 439q86 431 -309 431t-481 -431q-88 -439 307 -439zM63 525q105 525 605 525t395 -525q-105 -524 -605 -524q-498 0 -395 524zM800 1430h159l-287 -239h-84z" />
    <glyph glyph-name="upsilontonos" unicode="&#x3cd;" horiz-adv-x="1210" 
d="M96 438l122 612h105l-122 -612q-72 -358 278 -358t422 358l122 612h105l-122 -612q-90 -448 -545 -448t-365 448zM805 1430h159l-287 -239h-84z" />
    <glyph glyph-name="omegatonos" unicode="&#x3ce;" horiz-adv-x="1675" 
d="M318 1050h105q-175 -225 -230 -500q-92 -460 163 -460q305 0 452 735h105q-147 -735 158 -735q255 0 347 460q55 275 -30 500h105q85 -225 30 -500q-110 -550 -470 -550q-305 0 -282 389q-128 -389 -433 -389q-360 0 -250 550q55 275 230 500zM1038 1430h159l-287 -239
h-84z" />
    <glyph glyph-name="afii10023" unicode="&#x401;" horiz-adv-x="1248" 
d="M1243 1430l-18 -90h-834l-114 -570h800l-18 -90h-800l-118 -590h848l-18 -90h-953l286 1430h939zM1064 1790l-26 -130h-135l26 130h135zM744 1790l-26 -130h-135l26 130h135z" />
    <glyph glyph-name="afii10017" unicode="&#x410;" horiz-adv-x="1492" 
d="M12 0h-119l933 1430h125l364 -1430h-118l-116 480h-601l49 90h531l-187 778z" />
    <glyph glyph-name="afii10018" unicode="&#x411;" horiz-adv-x="1301" 
d="M1305 1430l-18 -90h-895l-249 -1247h487q318 0 379 309q66 328 -306 328h-188l18 90h197q468 0 387 -407q-83 -413 -489 -413h-610l286 1430h1001z" />
    <glyph glyph-name="afii10019" unicode="&#x412;" horiz-adv-x="1330" 
d="M18 0l286 1430h610q408 0 341 -333q-48 -244 -365 -349q303 -53 247 -335q-83 -413 -530 -413h-589zM614 90q346 0 410 320q57 283 -376 283h-80l14 71q509 45 565 326q50 250 -258 250h-498l-250 -1250h473z" />
    <glyph glyph-name="afii10020" unicode="&#x413;" horiz-adv-x="1013" 
d="M18 0l286 1430h853l-18 -90h-748l-268 -1340h-105z" />
    <glyph glyph-name="afii10021" unicode="&#x414;" horiz-adv-x="1619" 
d="M294 90h836l250 1250h-550q-200 -999 -536 -1250zM-218 -380l94 470h184q415 0 665 1250l18 90h760l-268 -1340h185l-94 -470h-105l76 380h-1335l-76 -380h-104z" />
    <glyph glyph-name="afii10022" unicode="&#x415;" horiz-adv-x="1248" 
d="M1243 1430l-18 -90h-834l-114 -570h800l-18 -90h-800l-118 -590h848l-18 -90h-953l286 1430h939z" />
    <glyph glyph-name="afii10024" unicode="&#x416;" horiz-adv-x="2039" 
d="M1683 0q-231 540 -300.5 631.5t-187.5 91.5l14 73q200 0 427 317t415 317h107l-18 -90h-79q-158 0 -346.5 -271.5t-340.5 -310.5q72 -13 142 -112.5t311 -645.5h-144zM1216 1430l-286 -1430h-105l286 1430h105zM-72 0q459 546 569 645.5t188 112.5q-138 39 -217.5 310.5
t-237.5 271.5h-79l18 90h107q188 0 288 -317t300 -317l-14 -73q-118 0 -224.5 -91.5t-553.5 -631.5h-144z" />
    <glyph glyph-name="afii10025" unicode="&#x417;" horiz-adv-x="1115" 
d="M234 1380q212 60 412 60q515 0 437 -390q-51 -256 -303 -325q225 -65 173 -325q-82 -410 -597 -410q-200 0 -388 60l20 100q186 -70 386 -70q410 0 474 320q56 280 -276 280h-328l18 90h325q335 0 391 280q60 300 -350 300q-200 0 -414 -70z" />
    <glyph glyph-name="afii10026" unicode="&#x418;" horiz-adv-x="1435" 
d="M1028 0l254 1272l-1149 -1272h-115l286 1430h105l-254 -1272l1149 1272h115l-286 -1430h-105z" />
    <glyph glyph-name="afii10027" unicode="&#x419;" horiz-adv-x="1435" 
d="M685 1784h85q-36 -180 134 -180t206 180h85q-52 -260 -307 -260t-203 260zM1028 0l254 1272l-1149 -1272h-115l286 1430h105l-254 -1272l1149 1272h115l-286 -1430h-105z" />
    <glyph glyph-name="afii10028" unicode="&#x41a;" horiz-adv-x="1232" 
d="M876 0q-231 540 -300.5 631.5t-187.5 91.5l14 73q200 0 427 317t415 317h107l-18 -90h-79q-158 0 -356.5 -271.5t-330.5 -310.5q72 -13 142 -112.5t311 -645.5h-144zM409 1430l-286 -1430h-105l286 1430h105z" />
    <glyph glyph-name="afii10029" unicode="&#x41b;" horiz-adv-x="1434" 
d="M-124 90q414 0 556 710l126 630h860l-286 -1430h-105l268 1340h-650l-108 -540q-160 -800 -679 -800z" />
    <glyph glyph-name="afii10030" unicode="&#x41c;" horiz-adv-x="1770" 
d="M18 0l286 1430h105l384 -1307l866 1307h95l-286 -1430h-95l247 1237l-815 -1237h-86l-357 1247l-249 -1247h-95z" />
    <glyph glyph-name="afii10031" unicode="&#x41d;" horiz-adv-x="1425" 
d="M18 0l286 1430h105l-130 -650h895l130 650h105l-286 -1430h-105l138 690h-895l-138 -690h-105z" />
    <glyph glyph-name="afii10032" unicode="&#x41e;" horiz-adv-x="1645" 
d="M702 80q592 0 720 639q126 631 -466 631q-603 0 -729 -631q-128 -639 475 -639zM111 713q145 727 863 727q707 0 562 -727q-145 -723 -852 -723q-718 0 -573 723z" />
    <glyph glyph-name="afii10033" unicode="&#x41f;" horiz-adv-x="1425" 
d="M18 0l286 1430h1105l-286 -1430h-105l268 1340h-895l-268 -1340h-105z" />
    <glyph glyph-name="afii10034" unicode="&#x420;" horiz-adv-x="1263" 
d="M18 0l286 1430h600q418 0 339 -393q-77 -387 -767 -493l1 96q586 79 648 389q61 308 -257 308h-478l-267 -1337h-105z" />
    <glyph glyph-name="afii10035" unicode="&#x421;" horiz-adv-x="1405" 
d="M1128 50q-207 -60 -412 -60q-750 0 -601 745q141 705 891 705q205 0 388 -60l-18 -90q-183 60 -368 60q-665 0 -788 -615q-131 -655 534 -655q185 0 392 60z" />
    <glyph glyph-name="afii10036" unicode="&#x422;" horiz-adv-x="1095" 
d="M1229 1430l-18 -90h-490l-268 -1340h-105l268 1340h-480l18 90h1075z" />
    <glyph glyph-name="afii10037" unicode="&#x423;" horiz-adv-x="1307" 
d="M1426 1430l-725 -1162q-168 -268 -443 -268q-128 0 -222 70l18 90q92 -70 212 -70q214 0 313 181l-385 1159h108l355 -1060l650 1060h119z" />
    <glyph glyph-name="afii10038" unicode="&#x424;" horiz-adv-x="1644" 
d="M651 113q-663 37 -548 610q111 557 788 594l23 113h104l-22 -112q663 -34 551 -595q-116 -578 -793 -611l-22 -112h-104zM669 204l204 1022q-563 -36 -657 -507q-96 -478 453 -515zM977 1227l-204 -1024q562 34 659 516q95 475 -455 508z" />
    <glyph glyph-name="afii10039" unicode="&#x425;" horiz-adv-x="1320" 
d="M599 715l-420 715h120l373 -636l627 636h130l-705 -715l419 -715h-119l-373 636l-627 -636h-131z" />
    <glyph glyph-name="afii10040" unicode="&#x426;" horiz-adv-x="1477" 
d="M18 0l286 1430h105l-268 -1340h822l268 1340h105l-268 -1340h185l-94 -470h-105l76 380h-1112z" />
    <glyph glyph-name="afii10041" unicode="&#x427;" horiz-adv-x="1318" 
d="M1302 1430l-286 -1430h-105l127 634q-219 -114 -452 -114q-499 0 -403 481l86 429h105l-86 -432q-77 -384 322 -384q249 0 450 133l137 683h105z" />
    <glyph glyph-name="afii10042" unicode="&#x428;" horiz-adv-x="1775" 
d="M18 0l286 1430h105l-268 -1340h570l268 1340h105l-268 -1340h570l268 1340h105l-286 -1430h-1455z" />
    <glyph glyph-name="afii10043" unicode="&#x429;" horiz-adv-x="1900" 
d="M18 0l286 1430h105l-268 -1340h570l268 1340h105l-268 -1340h570l268 1340h105l-268 -1340h185l-94 -470h-105l76 380h-1535z" />
    <glyph glyph-name="afii10044" unicode="&#x42a;" horiz-adv-x="1710" 
d="M831 1430l-267 -1337h498q308 0 369 309q66 328 -296 328h-278l18 90h278q479 0 398 -407q-83 -413 -501 -413h-610l268 1340h-582l18 90h687z" />
    <glyph glyph-name="afii10045" unicode="&#x42b;" horiz-adv-x="1645" 
d="M409 1430l-267 -1337h498q318 0 379 309q66 328 -306 328h-278l18 90h278q479 0 398 -407q-83 -413 -501 -413h-610l286 1430h105zM1238 0l286 1430h105l-286 -1430h-105z" />
    <glyph glyph-name="afii10046" unicode="&#x42c;" horiz-adv-x="1288" 
d="M409 1430l-267 -1337h498q318 0 379 309q66 328 -306 328h-278l18 90h277q480 0 399 -407q-83 -413 -501 -413h-610l286 1430h105z" />
    <glyph glyph-name="afii10047" unicode="&#x42d;" horiz-adv-x="1375" 
d="M13 150q171 -70 386 -70q612 0 762 600h-970l18 90h971q93 580 -527 580q-215 0 -414 -70l20 100q197 60 412 60q750 0 609 -705q-149 -745 -899 -745q-215 0 -388 60z" />
    <glyph glyph-name="afii10048" unicode="&#x42e;" horiz-adv-x="2012" 
d="M18 0l286 1430h104l-132 -660h495q158 670 710 670q577 0 434 -717q-147 -733 -724 -733q-562 0 -439 690h-494l-136 -680h-104zM1209 80q462 0 590 639q126 631 -336 631q-473 0 -599 -631q-128 -639 345 -639z" />
    <glyph glyph-name="afii10049" unicode="&#x42f;" horiz-adv-x="1225" 
d="M818 0l267 1337h-468q-288 0 -339 -258q-56 -280 371 -345l-14 -71l-608 -663h-144l616 666q-396 124 -337 421q69 343 457 343h590l-286 -1430h-105z" />
    <glyph glyph-name="afii10065" unicode="&#x430;" horiz-adv-x="1127" 
d="M906 932q-130 24 -270 24q-375 0 -461 -433q-85 -423 172 -423q244 0 444 254zM825 0h-85l30 250q-208 -250 -444 -250q-358 0 -254 521q106 529 591 529q213 0 363 -43z" />
    <glyph glyph-name="afii10066" unicode="&#x431;" horiz-adv-x="1187" 
d="M1038 520q-106 -530 -574 -530q-483 0 -377 530l65 325q117 585 651 585q212 0 405 109l-21 -103q-172 -96 -405 -96q-421 0 -518 -485q160 195 422 195q458 0 357 -506zM482 80q362 0 450 440q87 434 -265 434q-383 0 -470 -434q-88 -440 285 -440z" />
    <glyph glyph-name="afii10067" unicode="&#x432;" horiz-adv-x="1116" 
d="M462 80q316 0 358 210q40 200 -213 200h-160l16 81q403 15 446 229q34 170 -244 170q-408 0 -497 -445t294 -445zM63 525q107 535 627 535q378 0 325 -263q-34 -173 -266 -252q223 -53 184 -252q-61 -303 -488 -303q-489 0 -382 535z" />
    <glyph glyph-name="afii10068" unicode="&#x433;" horiz-adv-x="980" 
d="M364 0q-406 0 -346 300q52 260 422 260h100q205 0 243 190q42 210 -260 210q-158 0 -345 -60l20 100q185 50 343 50q407 0 347 -300q-56 -280 -386 -280h-100q-245 0 -279 -170q-42 -210 259 -210q159 0 346 60l-20 -100q-185 -50 -344 -50z" />
    <glyph glyph-name="afii10069" unicode="&#x434;" horiz-adv-x="1140" 
d="M910 586q23 116 33 254q-94 130 -318 130q-362 0 -448 -430q-92 -460 271 -460q361 0 462 506zM1016 590q-120 -600 -587 -600q-463 0 -353 550q102 510 556 510q207 0 316 -100q-24 390 -416 390h-216l18 90h218q632 0 464 -840z" />
    <glyph glyph-name="afii10070" unicode="&#x435;" horiz-adv-x="1075" 
d="M978 776q-57 -284 -427 -284h-380q-80 -402 296 -402q209 0 376 140l-20 -100q-165 -130 -374 -130q-481 0 -374 537q103 513 576 513q382 0 327 -274zM190 586h378q267 0 306 193q36 183 -241 183q-350 0 -443 -376z" />
    <glyph glyph-name="afii10072" unicode="&#x436;" horiz-adv-x="1976" 
d="M1365 663q120 387 409 387q80 0 164 -30l-18 -90q-84 30 -174 30q-235 0 -324 -445q-85 -425 140 -425q100 0 206 80l-18 -90q-106 -80 -216 -80q-310 0 -207 515q6 29 12 57l-344 -71l-100 -501h-105l96 478l-341 -70q-120 -408 -417 -408q-80 0 -164 30l18 90
q84 -30 174 -30q235 0 324 445q85 425 -140 425q-100 0 -206 -80l18 90q106 80 216 80q310 0 207 -515l-7 -36l336 69l96 482h105l-92 -459z" />
    <glyph glyph-name="afii10073" unicode="&#x437;" horiz-adv-x="925" 
d="M158 1000q192 60 342 60q395 0 337 -292q-31 -154 -185 -233q123 -75 93 -225q-64 -320 -459 -320q-150 0 -318 60l20 100q166 -70 316 -70q290 0 336 230q36 180 -196 180h-288l18 90h285q235 0 273 188q40 202 -250 202q-150 0 -344 -70z" />
    <glyph glyph-name="afii10074" unicode="&#x438;" 
d="M1073 1050l-210 -1050h-105l63 314q-247 -314 -530 -314q-273 0 -212 305l149 745h105l-149 -745q-42 -211 131 -211q279 0 528 333l125 623h105z" />
    <glyph glyph-name="afii10075" unicode="&#x439;" 
d="M1073 1050l-210 -1050h-105l63 314q-247 -314 -530 -314q-273 0 -212 305l149 745h105l-149 -745q-42 -211 131 -211q279 0 528 333l125 623h105zM472 1430h85q-36 -180 134 -180t206 180h85q-52 -260 -307 -260t-203 260z" />
    <glyph glyph-name="afii10076" unicode="&#x43a;" horiz-adv-x="989" 
d="M323 1050l-210 -1050h-105l210 1050h105zM693 0l-98 246q-92 277 -280 277l12 63q190 0 310 232t318 232h77l-18 -90h-79q-118 0 -215.5 -181.5t-229.5 -220.5q101 -31 214 -294l113 -264h-124z" />
    <glyph glyph-name="afii10077" unicode="&#x43b;" horiz-adv-x="1127" 
d="M-124 90q237 0 303 330l55 275q71 355 431 355h380l-210 -1050h-105l192 960h-275q-255 0 -309 -270l-54 -270q-84 -420 -426 -420z" />
    <glyph glyph-name="afii10078" unicode="&#x43c;" horiz-adv-x="1420" 
d="M8 0l210 1050h105l273 -946l637 946h105l-210 -1050h-95l173 863l-591 -863h-86l-253 863l-173 -863h-95z" />
    <glyph glyph-name="afii10079" unicode="&#x43d;" horiz-adv-x="1125" 
d="M8 0l210 1050h105l-94 -470h615l94 470h105l-210 -1050h-105l98 490h-615l-98 -490h-105z" />
    <glyph glyph-name="afii10080" unicode="&#x43e;" horiz-adv-x="1160" 
d="M454 80q365 0 455 449q88 441 -277 441t-453 -441q-90 -449 275 -449zM73 525q107 535 577 535t363 -535q-107 -534 -577 -534q-468 0 -363 534z" />
    <glyph glyph-name="afii10081" unicode="&#x43f;" 
d="M18 0l210 1050h85l-43 -314q247 314 510 314q293 0 232 -305l-149 -745h-105l149 745q42 211 -151 211q-259 0 -508 -333l-125 -623h-105z" />
    <glyph glyph-name="afii10082" unicode="&#x440;" horiz-adv-x="1128" 
d="M148 123q165 -29 295 -29q350 0 444 469q77 387 -170 387q-214 0 -455 -254zM228 1049h85l-30 -249q249 250 465 250q338 0 239 -494q-111 -556 -554 -556q-165 0 -305 23l-81 -403h-105z" />
    <glyph glyph-name="afii10083" unicode="&#x441;" horiz-adv-x="1005" 
d="M764 130q-156 -130 -356 -130q-440 0 -333 535q103 515 593 515q150 0 274 -30l-18 -90q-134 30 -264 30q-385 0 -470 -425q-89 -445 246 -445q180 0 348 140z" />
    <glyph glyph-name="afii10084" unicode="&#x442;" horiz-adv-x="1795" 
d="M18 0l210 1050h85l-42 -312q204 312 452 312q290 0 229 -304q213 304 459 304q292 0 225 -335l-143 -715h-105l143 715q48 241 -140 241q-258 0 -454 -336l-124 -620h-105l143 715q48 241 -148 241q-246 0 -456 -336l-124 -620h-105z" />
    <glyph glyph-name="afii10085" unicode="&#x443;" 
d="M821 314q-247 -314 -530 -314q-273 0 -212 305l149 745h105l-149 -745q-42 -211 131 -211q279 0 528 333l125 623h105l-210 -1050q-76 -380 -539 -380q-194 0 -334 50l18 90q143 -50 336 -50q356 0 414 290z" />
    <glyph glyph-name="afii10086" unicode="&#x444;" horiz-adv-x="1831" 
d="M906 927q-165 29 -295 29q-350 0 -444 -469q-77 -387 170 -387q214 0 455 254zM965 696l-114 -573q165 -29 295 -29q350 0 444 469q77 387 -170 387q-214 0 -455 -254zM986 800q249 250 465 250q338 0 239 -494q-111 -556 -554 -556q-165 0 -305 23l-81 -403h-105
l126 630q-249 -250 -465 -250q-338 0 -239 494q111 556 554 556q165 0 305 -23l81 403h105z" />
    <glyph glyph-name="afii10087" unicode="&#x445;" horiz-adv-x="990" 
d="M396 525l-303 525h120l256 -444l434 444h130l-512 -525l302 -525h-120l-256 444l-434 -444h-130z" />
    <glyph glyph-name="afii10088" unicode="&#x446;" horiz-adv-x="1240" 
d="M877 70l189 20q-47 -235 -194 -470h-105q138 190 180 400l-169 -20l43 314q-247 -314 -530 -314q-273 0 -212 305l149 745h105l-149 -745q-42 -211 131 -211q279 0 528 333l125 623h105z" />
    <glyph glyph-name="afii10089" unicode="&#x447;" horiz-adv-x="1138" 
d="M1056 1050l-210 -1050h-105l83 414q-169 -114 -372 -114q-409 0 -327 411l68 339h105l-68 -342q-63 -314 246 -314q219 0 370 133l105 523h105z" />
    <glyph glyph-name="afii10090" unicode="&#x448;" horiz-adv-x="1795" 
d="M1703 1050l-210 -1050h-85l42 312q-204 -312 -452 -312q-290 0 -229 304q-213 -304 -459 -304q-292 0 -225 335l143 715h105l-143 -715q-48 -241 140 -241q258 0 454 336l124 620h105l-143 -715q-48 -241 148 -241q246 0 456 336l124 620h105z" />
    <glyph glyph-name="afii10091" unicode="&#x449;" horiz-adv-x="1870" 
d="M1507 70l189 20q-47 -235 -194 -470h-105q138 190 180 400l-169 -20l42 312q-204 -312 -452 -312q-290 0 -229 304q-213 -304 -459 -304q-292 0 -225 335l143 715h105l-143 -715q-48 -241 140 -241q258 0 454 336l124 620h105l-143 -715q-48 -241 148 -241q246 0 456 336
l124 620h105z" />
    <glyph glyph-name="afii10092" unicode="&#x44a;" horiz-adv-x="1352" 
d="M557 1050l-146 -731q-45 -226 273 -226q338 0 383 229q40 197 -212 197h-268l18 90h268q359 0 300 -296q-63 -313 -511 -313q-420 0 -356 319l128 641h-384l18 90h489z" />
    <glyph glyph-name="afii10093" unicode="&#x44b;" horiz-adv-x="1450" 
d="M1033 0l210 1050h125l-210 -1050h-125zM323 1050l-146 -731q-45 -226 293 -226q318 0 363 229q40 197 -212 197h-268l18 90h267q360 0 301 -296q-63 -313 -491 -313q-440 0 -376 319l146 731h105z" />
    <glyph glyph-name="afii10094" unicode="&#x44c;" horiz-adv-x="1168" 
d="M323 1050l-146 -731q-45 -226 293 -226q318 0 363 229q40 197 -212 197h-268l18 90h267q360 0 301 -296q-63 -313 -491 -313q-440 0 -376 319l146 731h105z" />
    <glyph glyph-name="afii10095" unicode="&#x44d;" horiz-adv-x="970" 
d="M-18 120q124 -30 274 -30q359 0 460 401h-596l18 90h597q60 379 -315 379q-140 0 -276 -30l18 90q136 30 286 30q490 0 389 -505q-109 -545 -599 -545q-150 0 -274 30z" />
    <glyph glyph-name="afii10096" unicode="&#x44e;" horiz-adv-x="1702" 
d="M1019 80q342 0 432 449q88 441 -254 441q-353 0 -441 -441q-90 -449 263 -449zM8 0l210 1050h104l-94 -470h426q123 480 561 480q457 0 350 -537q-107 -533 -564 -533q-449 0 -366 500h-425l-98 -490h-104z" />
    <glyph glyph-name="afii10097" unicode="&#x44f;" horiz-adv-x="1065" 
d="M668 0l191 957h-378q-208 0 -243 -178q-36 -180 253 -235l-18 -91l-451 -453h-139l481 477q-280 69 -227 337q48 236 366 236h480l-210 -1050h-105z" />
    <glyph glyph-name="afii10071" unicode="&#x451;" horiz-adv-x="1075" 
d="M978 776q-57 -284 -427 -284h-380q-80 -402 296 -402q209 0 376 140l-20 -100q-165 -130 -374 -130q-481 0 -374 537q103 513 576 513q382 0 327 -274zM190 586h378q267 0 306 193q36 183 -241 183q-350 0 -443 -376zM915 1410l-26 -130h-135l26 130h135zM595 1410
l-26 -130h-135l26 130h135z" />
    <glyph glyph-name="endash" unicode="&#x2013;" horiz-adv-x="1220" 
d="M1082 570l-18 -90h-1000l18 90h1000z" />
    <glyph glyph-name="emdash" unicode="&#x2014;" horiz-adv-x="1720" 
d="M1582 570l-18 -90h-1500l18 90h1500z" />
    <glyph glyph-name="quoteleft" unicode="&#x2018;" horiz-adv-x="350" 
d="M469 1430l-237 -435h-115l237 435h115z" />
    <glyph glyph-name="quoteright" unicode="&#x2019;" horiz-adv-x="375" 
d="M469 1430l-237 -435h-115l237 435h115z" />
    <glyph glyph-name="quotesinglbase" unicode="&#x201a;" horiz-adv-x="350" 
d="M185 185l-237 -435h-115l237 435h115z" />
    <glyph glyph-name="quotedblleft" unicode="&#x201c;" horiz-adv-x="650" 
d="M769 1430l-237 -435h-115l237 435h115zM469 1430l-237 -435h-115l237 435h115z" />
    <glyph glyph-name="quotedblright" unicode="&#x201d;" horiz-adv-x="650" 
d="M769 1430l-237 -435h-115l237 435h115zM469 1430l-237 -435h-115l237 435h115z" />
    <glyph glyph-name="quotedblbase" unicode="&#x201e;" horiz-adv-x="650" 
d="M485 185l-237 -435h-115l237 435h115zM185 185l-237 -435h-115l237 435h115z" />
    <glyph glyph-name="dagger" unicode="&#x2020;" horiz-adv-x="1065" 
d="M729 1430l-76 -380h420l-18 -90h-420l-268 -1340h-105l268 1340h-420l18 90h420l76 380h105z" />
    <glyph glyph-name="daggerdbl" unicode="&#x2021;" horiz-adv-x="1065" 
d="M729 1430l-76 -380h420l-18 -90h-420l-174 -870h420l-18 -90h-420l-76 -380h-105l76 380h-420l18 90h420l174 870h-420l18 90h420l76 380h105z" />
    <glyph glyph-name="bullet" unicode="&#x2022;" horiz-adv-x="610" 
d="M113 725q39 195 234 195t156 -195t-234 -195t-156 195z" />
    <glyph glyph-name="ellipsis" unicode="&#x2026;" horiz-adv-x="1055" 
d="M478 125l-25 -125h-135l25 125h135zM128 125l-25 -125h-135l25 125h135zM828 125l-25 -125h-135l25 125h135z" />
    <glyph glyph-name="perthousand" unicode="&#x2030;" horiz-adv-x="2047" 
d="M1536 74q174 0 209 177q35 174 -139 174q-178 0 -213 -174q-35 -177 143 -177zM1293 249q52 260 330 260q274 0 222 -260q-52 -259 -326 -259q-278 0 -226 259zM93 0h-125l1303 1430h125zM447 1005q174 0 209 177q35 174 -139 174q-178 0 -213 -174q-35 -177 143 -177z
M204 1180q52 260 330 260q274 0 222 -260q-52 -259 -326 -259q-278 0 -226 259zM851 74q174 0 209 177q35 174 -139 174q-178 0 -213 -174q-35 -177 143 -177zM608 249q52 260 330 260q274 0 222 -260q-52 -259 -326 -259q-278 0 -226 259z" />
    <glyph glyph-name="guilsinglleft" unicode="&#x2039;" horiz-adv-x="550" 
d="M73 525l333 375h122l-333 -375l183 -375h-122z" />
    <glyph glyph-name="guilsinglright" unicode="&#x203a;" horiz-adv-x="550" 
d="M70 150h-122l333 375l-183 375h122l183 -375z" />
    <glyph glyph-name="fraction" unicode="&#x2044;" horiz-adv-x="1290" 
d="M93 0h-125l1231 1430h125z" />
    <glyph glyph-name="Euro" unicode="&#x20ac;" horiz-adv-x="1405" 
d="M1128 50q-197 -60 -412 -60q-750 0 -601 745q141 705 891 705q215 0 388 -60l-20 -100q-171 70 -366 70q-568 0 -733 -438h833l-18 -90h-843l-34 -170h843l-18 -90h-833q-19 -482 549 -482q195 0 394 70z" />
    <glyph glyph-name="trademark" unicode="&#x2122;" horiz-adv-x="1626" 
d="M815 1430l-14 -71h-212l-120 -602h-87l120 602h-212l14 71h511zM770 757l134 673h110l136 -561l354 561h106l-134 -673h-78l108 543l-347 -543h-69l-135 543l-108 -543h-77z" />
    <glyph glyph-name="partialdiff" unicode="&#x2202;" horiz-adv-x="1237" 
d="M479 1217l21 103q227 120 421 120q384 0 299 -427q-23 -113 -79 -256q-315 -767 -815 -767q-313 0 -255 292q14 66 46 148q166 397 632 397h314q36 100 52 180q69 343 -223 343q-207 0 -413 -133zM1021 730h-313q-362 0 -486 -300q-27 -68 -37 -122q-46 -228 183 -228
q381 0 653 650z" />
    <glyph glyph-name="product" unicode="&#x220f;" horiz-adv-x="1570" 
d="M1564 1430l-362 -1810h-95l344 1720h-1070l-344 -1720h-105l362 1810h1270z" />
    <glyph glyph-name="summation" unicode="&#x2211;" horiz-adv-x="1350" 
d="M244 1430h1150l-18 -90h-1040l424 -790l-740 -840h1030l-18 -90h-1150l18 90l745 850l-419 780z" />
    <glyph glyph-name="radical" unicode="&#x221a;" horiz-adv-x="1370" 
d="M153 1050h315l103 -923l898 1727h120l-992 -1861h-125l-107 967h-230z" />
    <glyph glyph-name="infinity" unicode="&#x221e;" horiz-adv-x="1540" 
d="M73 525q59 295 349 295q210 0 326 -220q204 220 414 220q290 0 231 -295t-349 -295q-210 0 -326 220q-204 -220 -414 -220q-290 0 -231 295zM1298 525q43 215 -152 215q-150 0 -363 -215q127 -215 277 -215q195 0 238 215zM320 310q150 0 363 215q-127 215 -277 215
q-195 0 -238 -215t152 -215z" />
    <glyph glyph-name="integral" unicode="&#x222b;" horiz-adv-x="529" 
d="M691 1570q-222 0 -298 -378q-6 -30 -11 -62l-100 -690q-5 -36 -12 -70q-92 -460 -420 -460l18 90q222 0 298 378q6 30 11 62l100 690q5 36 12 70q92 460 420 460z" />
    <glyph glyph-name="approxequal" unicode="&#x2248;" horiz-adv-x="1070" 
d="M902 420l-18 -90q-121 -50 -230 -50t-205 50t-200 50q-103 0 -215 -50l18 90q122 50 230 50q109 0 205 -50t200 -50t215 50zM962 720l-18 -90q-121 -50 -230 -50t-205 50t-200 50q-103 0 -215 -50l18 90q122 50 230 50q109 0 205 -50t200 -50t215 50z" />
    <glyph glyph-name="approxequal" unicode="&#x22f2;" horiz-adv-x="1070" 
d="M902 420l-18 -90q-121 -50 -230 -50t-205 50t-200 50q-103 0 -215 -50l18 90q122 50 230 50q109 0 205 -50t200 -50t215 50zM962 720l-18 -90q-121 -50 -230 -50t-205 50t-200 50q-103 0 -215 -50l18 90q122 50 230 50q109 0 205 -50t200 -50t215 50z" />
    <glyph glyph-name="notequal" unicode="&#x2260;" horiz-adv-x="970" 
d="M331 330l-273 -330h-90l273 330h-207l18 90h264l174 210h-396l18 90h453l273 330h90l-273 -330h207l-18 -90h-264l-174 -210h396l-18 -90h-453z" />
    <glyph glyph-name="lessequal" unicode="&#x2264;" horiz-adv-x="970" 
d="M736 90l-18 -90h-750l18 90h750zM94 630l18 90l820 350l-20 -100l-711 -292l593 -298l-20 -100z" />
    <glyph glyph-name="greaterequal" unicode="&#x2265;" horiz-adv-x="970" 
d="M736 90l-18 -90h-750l18 90h750zM24 280l20 100l713 298l-595 292l20 100l680 -350l-18 -90z" />
    <glyph glyph-name="lozenge" unicode="&#x25ca;" horiz-adv-x="1105" 
d="M644 1430h105l297 -715l-583 -715h-105l-297 715zM166 715l261 -635l514 635l-260 635z" />
    <glyph glyph-name="zero.osf" unicode="&#xe012;" horiz-adv-x="1275" 
d="M517 80q402 0 492 449q88 441 -314 441q-413 0 -501 -441q-90 -449 323 -449zM78 523q107 537 635 537q517 0 410 -537q-107 -533 -624 -533q-528 0 -421 533z" />
    <glyph glyph-name="one.osf" unicode="&#xe013;" horiz-adv-x="854" 
d="M281 90l166 831h-290l14 69l407 60l-192 -960h279l-18 -90h-684l18 90h300z" />
    <glyph glyph-name="two.osf" unicode="&#xe014;" horiz-adv-x="1100" 
d="M-37 0l18 90q834 397 883 640q48 240 -302 240q-200 0 -417 -110l20 100q215 100 415 100q455 0 389 -330q-54 -270 -815 -640h737l-18 -90h-910z" />
    <glyph glyph-name="three.osf" unicode="&#xe015;" horiz-adv-x="1110" 
d="M156 990q212 60 402 60q475 0 407 -340q-51 -256 -311 -315q237 -55 185 -315q-72 -360 -547 -360q-190 0 -378 60l20 100q186 -70 376 -70q370 0 424 270t-278 270h-278l18 90h275q335 0 389 270q50 250 -320 250q-190 0 -404 -70z" />
    <glyph glyph-name="four.osf" unicode="&#xe016;" 
d="M719 -280h-105l62 309h-752l18 90l781 930h114l-782 -930h639l108 538h105l-108 -538l181 -36l-11 -54h-188z" />
    <glyph glyph-name="five.osf" unicode="&#xe017;" horiz-adv-x="1145" 
d="M273 1050h774l-18 -90h-687l-133 -502q193 32 292 32q500 0 428 -360q-84 -420 -644 -420q-180 0 -318 60l20 100q136 -70 326 -70q445 0 511 330q54 270 -341 270q-195 0 -400 -50z" />
    <glyph glyph-name="six.osf" unicode="&#xe018;" horiz-adv-x="1265" 
d="M82 520q105 526 829 853l23 -88q-414 -184 -607 -438q182 53 357 53q504 0 416 -440q-94 -470 -617 -470q-507 0 -401 530zM510 80q413 0 489 380q70 350 -342 350q-204 0 -384 -48q-68 -100 -95 -236q-89 -446 332 -446z" />
    <glyph glyph-name="seven.osf" unicode="&#xe019;" horiz-adv-x="1060" 
d="M108 1050h930l-18 -90l-890 -1240h-131l910 1240h-819z" />
    <glyph glyph-name="eight.osf" unicode="&#xe020;" horiz-adv-x="1250" 
d="M48 374q50 253 348 331q-227 75 -181 303q67 336 537 336t403 -336q-46 -228 -308 -303q271 -78 221 -331q-77 -384 -587 -384t-433 384zM1050 1008q48 242 -325 242q-357 0 -405 -242q-54 -268 316 -268q360 0 414 268zM964 378q54 272 -359 272q-397 0 -451 -272
q-60 -298 350 -298q400 0 460 298z" />
    <glyph glyph-name="nine.osf" unicode="&#xe021;" horiz-adv-x="1265" 
d="M1114 528q-105 -526 -829 -853l-23 88q414 184 607 438q-182 -53 -357 -53q-504 0 -416 440q94 470 617 470q507 0 401 -530zM686 968q-413 0 -489 -380q-70 -350 342 -350q204 0 384 48q68 100 95 236q89 446 -332 446z" />
    <glyph glyph-name="germandbls.cap" unicode="&#xe029;" horiz-adv-x="1511" 
d="M18 0l184 920q106 530 771 530q253 0 537 -90l-16 -80l-606 -500h59q468 0 396 -360q-84 -422 -568 -422q-176 0 -328 70l18 90q163 -70 330 -70q377 0 443 332q54 271 -321 272h-176l16 78l626 522q-224 68 -428 68q-560 0 -648 -440l-184 -920h-105z" />
    <glyph glyph-name="MT.sign" unicode="&#xf000;" horiz-adv-x="1724" 
d="M1181 332v102l-253 13v540h135l51 -400h115l-38 511h-249l-80 -43l-79 43h-250l-38 -511h114l51 400h136v-540l-253 -13v-102h638zM534 1330l37 89l89 -37l53 80l81 -53l68 67l68 -67l81 53l53 -80l89 37l37 -89l94 19l20 -96h97v-96l94 -19l-19 -94l89 -37l-36 -90
l81 -52l-54 -82l68 -67l-69 -69l55 -82l-82 -52l37 -90l-89 -37l19 -94l-94 -19v-96h-97l-20 -96l-94 19l-37 -89l-89 37l-53 -80l-81 53l-68 -67l-68 67l-81 -53l-53 80l-89 -37l-37 89l-95 -19l-19 96h-97v96l-95 19l19 94l-90 39l37 88l-80 53l55 81l-69 69l69 67l-55 82
l82 54l-37 88l89 37l-19 94l94 19v96h97l19 96zM862 1347q-262 0 -447 -185t-185 -446q0 -263 185 -448t447 -185t447 185t185 448q0 261 -185 446t-447 185zM1270 1123.5q169 -169.5 169 -407.5q0 -240 -169 -409.5t-408 -169.5t-408 169.5t-169 409.5q0 238 169 407.5
t408 169.5t408 -169.5z" />
    </font>
</defs>
</svg>
