<?xml version="1.0" standalone="no"?>
<!DOCTYPE svg PUBLIC "-//W3C//DTD SVG 1.1//EN" "http://www.w3.org/Graphics/SVG/1.1/DTD/svg11.dtd" >
<svg xmlns="http://www.w3.org/2000/svg" xmlns:xlink="http://www.w3.org/1999/xlink" version="1.1">
<metadata>
Created by FontForge 20170731 at Wed Oct 31 20:57:27 2012
 By Aleksey,,,
(c) 2011 Bernd Montag
</metadata>
<defs>
<font id="SansationBoldItalic" horiz-adv-x="1235" >
  <font-face 
    font-family="Sansation"
    font-weight="700"
    font-style="italic"
    font-stretch="normal"
    units-per-em="2048"
    panose-1="2 0 0 0 0 0 0 0 0 0"
    ascent="1638"
    descent="-410"
    x-height="1050"
    cap-height="1430"
    bbox="-248 -438 2416.57 1854"
    underline-thickness="210"
    underline-position="-479"
    unicode-range="U+0020-FB02"
  />
<missing-glyph horiz-adv-x="1124" 
d="M50 0v1280h1024v-1280h-1024zM82 32h960v1216h-960v-1216z" />
    <glyph glyph-name="ffi" unicode="ffi" horiz-adv-x="1747" 
d="M819 1050l10 51q80 401 552 401q169 0 325 -70l-42 -210q-140 70 -306 70q-226 0 -263 -183l-11 -59h606l-210 -1050h-265l170 850h-341l-154 -770q-64 -318 -286 -518l-179 145q152 135 200 373l154 770h-361l-154 -770q-64 -318 -286 -518l-179 145q152 135 200 373
l204 1021q76 381 458 381q89 0 163 -30l-42 -210q-58 30 -124 30q-156 0 -189 -163l-11 -59h361z" />
    <glyph glyph-name="ffl" unicode="ffl" horiz-adv-x="1777" 
d="M264 80q-64 -318 -286 -518l-179 145q152 135 200 373l204 1021q76 381 458 381q89 0 163 -30l-42 -210q-58 30 -124 30q-156 0 -189 -163l-11 -59h361l9 49q81 401 603 401q199 0 365 -70l-287 -1432h-265l255 1274q-46 18 -131 18q-236 0 -273 -183l-12 -59h215
l-40 -200h-215l-153 -768q-64 -318 -286 -518l-179 145q152 135 200 373l154 770h-361z" />
    <glyph glyph-name="ff" unicode="ff" horiz-adv-x="1312" 
d="M264 80q-64 -318 -286 -518l-179 145q152 135 200 373l204 1021q76 381 458 381q89 0 163 -30l-42 -210q-58 30 -124 30q-156 0 -189 -163l-11 -59h361q91 432 538 432q119 0 216 -40l-42 -210q-91 40 -197 40q-206 0 -250 -222h315l-40 -200h-315l-154 -770
q-64 -318 -286 -518l-179 145q152 135 200 373l154 770h-361z" />
    <glyph glyph-name="fj" unicode="fj" horiz-adv-x="1121" 
d="M870 80q-64 -318 -286 -518l-179 145q152 135 200 373l154 770h-341l-154 -770q-64 -318 -286 -518l-179 145q152 135 200 373l204 1021q80 401 552 401q169 0 325 -70l-42 -210q-140 70 -306 70q-226 0 -263 -183l-11 -59h606z" />
    <glyph glyph-name="ffj" unicode="ffj" horiz-adv-x="1747" 
d="M1496 80q-64 -318 -286 -518l-179 145q152 135 200 373l152 760h-341l-152 -760q-64 -318 -286 -518l-179 145q152 135 200 373l154 770h-361l-154 -770q-64 -318 -286 -518l-179 145q152 135 200 373l204 1021q76 381 458 381q89 0 163 -30l-42 -210q-58 30 -124 30
q-156 0 -189 -163l-11 -59h361l10 51q80 401 552 401q169 0 325 -70l-42 -210q-140 70 -306 70q-226 0 -263 -183l-11 -59h606z" />
    <glyph glyph-name="fb" unicode="fb" horiz-adv-x="1814" 
d="M1044 800q169 250 415 250q348 0 251 -484q-113 -566 -626 -566q-216 0 -457 43l246 1231q-46 18 -131 18q-236 0 -273 -183l-11 -59h215l-42 -210h-215l-152 -760q-64 -318 -286 -518l-179 145q152 135 200 373l204 1021q80 401 602 401q199 0 365 -70zM999 576
l-67 -333q85 -29 205 -29q240 0 310 349q54 267 -123 267q-164 0 -325 -254z" />
    <glyph glyph-name="ffb" unicode="ffb" horiz-adv-x="2440" 
d="M264 80q-64 -318 -286 -518l-179 145q152 135 200 373l204 1021q76 381 458 381q89 0 163 -30l-42 -210q-58 30 -124 30q-156 0 -189 -163l-11 -59h361l9 49q81 401 603 401q199 0 365 -70l-126 -630q169 250 415 250q348 0 251 -484q-113 -566 -626 -566q-216 0 -457 43
l246 1229q-46 18 -131 18q-236 0 -273 -183l-12 -59h215l-39 -198h-215l-154 -770q-64 -318 -286 -518l-179 145q152 135 200 373l155 772h-361zM1625 576l-67 -333q85 -29 205 -29q240 0 310 349q54 267 -123 267q-164 0 -325 -254z" />
    <glyph glyph-name="fh" unicode="fh" horiz-adv-x="1871" 
d="M884 0h-265l254 1274q-46 18 -131 18q-236 0 -273 -183l-11 -59h215l-42 -210h-215l-152 -760q-64 -318 -286 -518l-179 145q152 135 200 373l204 1021q80 401 602 401q199 0 365 -70l-143 -716q191 334 484 334q303 0 234 -341l-141 -709h-265l142 712q25 124 -118 124
q-189 0 -379 -333z" />
    <glyph glyph-name="ffh" unicode="ffh" horiz-adv-x="2497" 
d="M264 80q-64 -318 -286 -518l-179 145q152 135 200 373l204 1021q76 381 458 381q89 0 163 -30l-42 -210q-58 30 -124 30q-156 0 -189 -163l-11 -59h361l9 49q81 401 603 401q199 0 365 -70l-143 -714q191 334 484 334q303 0 234 -341l-141 -709h-265l142 712
q25 124 -118 124q-189 0 -379 -333l-100 -503h-265l254 1272q-46 18 -131 18q-236 0 -273 -183l-12 -59h215l-40 -200h-215l-153 -768q-64 -318 -286 -518l-179 145q152 135 200 373l154 770h-361z" />
    <glyph glyph-name="fk" unicode="fk" horiz-adv-x="1847" 
d="M884 0h-265l254 1274q-46 18 -131 18q-236 0 -273 -183l-11 -59h215l-42 -210h-215l-152 -760q-64 -318 -286 -518l-179 145q152 135 200 373l204 1021q80 401 602 401q199 0 365 -70l-133 -664q220 282 480 282q322 0 265 -283q-40 -200 -356 -341l239 -426h-304
l-203 396l16 83q311 80 347 259q21 102 -119 102q-183 0 -409 -294z" />
    <glyph glyph-name="ffk" unicode="ffk" horiz-adv-x="2473" 
d="M264 80q-64 -318 -286 -518l-179 145q152 135 200 373l204 1021q76 381 458 381q89 0 163 -30l-42 -210q-58 30 -124 30q-156 0 -189 -163l-11 -59h361l9 49q81 401 603 401q199 0 365 -70l-133 -662q220 282 480 282q322 0 265 -283q-40 -200 -356 -341l239 -426h-304
l-203 396l16 83q311 80 347 259q21 102 -119 102q-183 0 -409 -294l-109 -546h-265l254 1272q-46 18 -131 18q-236 0 -273 -183l-12 -59h215l-40 -200h-215l-153 -768q-64 -318 -286 -518l-179 145q152 135 200 373l154 770h-361z" />
    <glyph glyph-name="fi" unicode="fi" horiz-adv-x="1121" 
d="M203 1101q80 401 552 401q169 0 325 -70l-42 -210q-140 70 -306 70q-226 0 -263 -183l-11 -59h606l-210 -1050h-265l170 850h-341l-154 -770q-64 -318 -286 -518l-179 145q152 135 200 373z" />
    <glyph glyph-name="fl" unicode="fl" horiz-adv-x="1151" 
d="M203 1101q80 401 602 401q199 0 365 -70l-286 -1432h-265l254 1274q-46 18 -131 18q-236 0 -273 -183l-11 -59h215l-42 -210h-215l-152 -760q-64 -318 -286 -518l-179 145q152 135 200 373z" />
    <glyph glyph-name=".notdef" horiz-adv-x="1124" 
d="M50 0v1280h1024v-1280h-1024zM82 32h960v1216h-960v-1216z" />
    <glyph glyph-name=".null" horiz-adv-x="0" 
 />
    <glyph glyph-name="nonmarkingreturn" horiz-adv-x="390" 
 />
    <glyph glyph-name="space" unicode=" " horiz-adv-x="450" 
 />
    <glyph glyph-name="exclam" unicode="!" horiz-adv-x="565" 
d="M559 1430l-212 -1060h-265l212 1060h265zM322 245l-49 -245h-265l49 245h265z" />
    <glyph glyph-name="quotedbl" unicode="&#x22;" horiz-adv-x="815" 
d="M859 1430l-117 -435h-185l57 435h245zM489 1430l-117 -435h-185l57 435h245z" />
    <glyph glyph-name="numbersign" unicode="#" horiz-adv-x="1893" 
d="M836 876l-165 -378h377l165 378h-377zM260 -5l159 349h-392l61 154h402l164 378h-401l61 154h412l179 395h180l-179 -395h378l182 400h180l-181 -400h392l-61 -154h-402l-164 -378h401l-61 -154h-412l-160 -349h-180l160 349h-378l-160 -349h-180z" />
    <glyph glyph-name="dollar" unicode="$" horiz-adv-x="1025" 
d="M503 1231l40 199h255l-39 -195q134 -12 250 -55l-44 -220q-161 70 -366 70q-215 0 -237 -110q-20 -100 105 -100h170q350 0 286 -320q-55 -276 -375 -321l-36 -179h-255l35 175q-146 12 -263 55l44 220q161 -70 390 -70q171 0 193 110q20 100 -95 100h-190
q-320 0 -256 320q55 275 388 321z" />
    <glyph glyph-name="percent" unicode="%" horiz-adv-x="1502" 
d="M223 0h-265l1303 1430h265zM485 995q134 0 163 147q25 124 -109 124q-138 0 -163 -124q-29 -147 109 -147zM186 1140q60 300 388 300q324 0 264 -300q-64 -319 -388 -319q-328 0 -264 319zM969 164q134 0 161 137q27 134 -107 134q-138 0 -165 -134q-27 -137 111 -137z
M668 299q62 310 390 310q324 0 262 -310q-62 -309 -386 -309q-328 0 -266 309z" />
    <glyph glyph-name="ampersand" unicode="&#x26;" horiz-adv-x="1335" 
d="M165 1035q79 395 589 395q185 0 350 -50l-42 -210q-165 50 -337 50q-258 0 -294 -180q-42 -210 163 -210h338l28 142h143l74 -142h182l-42 -210h-162l-26 -130q-99 -493 -647 -493q-525 0 -442 417q46 227 246 313q-166 85 -121 308zM554 620q-207 0 -248 -201
q-41 -209 220 -209q282 0 338 282l26 128h-336z" />
    <glyph glyph-name="quotesingle" unicode="'" horiz-adv-x="445" 
d="M489 1430l-117 -435h-185l57 435h245z" />
    <glyph glyph-name="parenleft" unicode="(" horiz-adv-x="640" 
d="M709 1430q-291 -452 -381 -905q-91 -453 19 -905h-265q-110 452 -19 905q90 453 381 905h265z" />
    <glyph glyph-name="parenright" unicode=")" horiz-adv-x="640" 
d="M484 1430q110 -452 19 -905t-381 -905h-265q290 452 381 905t-19 905h265z" />
    <glyph glyph-name="asterisk" unicode="*" horiz-adv-x="810" 
d="M472 1430h156l-76 -232l229 101l18 -147l-236 -43l125 -170l-142 -92l-72 205l-153 -204l-107 89l196 171l-222 42l78 150l190 -103z" />
    <glyph glyph-name="plus" unicode="+" horiz-adv-x="950" 
d="M354 630l54 270h210l-54 -270h270l-42 -210h-270l-54 -270h-210l54 270h-270l42 210h270z" />
    <glyph glyph-name="comma" unicode="," horiz-adv-x="465" 
d="M335 185l-237 -435h-265l237 435h265z" />
    <glyph glyph-name="hyphen" unicode="-" horiz-adv-x="700" 
d="M584 630l-42 -210h-500l42 210h500z" />
    <glyph glyph-name="hyphen" unicode="&#x2010;" horiz-adv-x="700" 
d="M584 630l-42 -210h-500l42 210h500z" />
    <glyph glyph-name="period" unicode="." horiz-adv-x="465" 
d="M272 245l-49 -245h-265l49 245h265z" />
    <glyph glyph-name="slash" unicode="/" horiz-adv-x="1060" 
d="M168 0h-285l1011 1430h285z" />
    <glyph glyph-name="zero" unicode="0" horiz-adv-x="1445" 
d="M630 220q352 0 452 499q98 491 -254 491q-363 0 -461 -491q-100 -499 263 -499zM91 713q145 727 783 727q627 0 482 -727q-145 -723 -772 -723q-638 0 -493 723z" />
    <glyph glyph-name="one" unicode="1" horiz-adv-x="690" 
d="M108 0l242 1211h-150l22 109l443 140l-292 -1460h-265z" />
    <glyph glyph-name="two" unicode="2" horiz-adv-x="1180" 
d="M-42 0l40 200q814 497 875 800q42 210 -218 210q-220 0 -437 -110l48 240q215 100 435 100q525 0 441 -420q-74 -370 -731 -790h573l-46 -230h-980z" />
    <glyph glyph-name="three" unicode="3" horiz-adv-x="1115" 
d="M234 1380q212 60 432 60q535 0 457 -390q-47 -236 -253 -325q171 -85 123 -325q-82 -410 -617 -410q-220 0 -408 60l48 240q186 -70 406 -70q270 0 312 210q36 180 -156 180h-348l46 230h345q195 0 231 180q38 190 -232 190q-220 0 -434 -70z" />
    <glyph glyph-name="four" unicode="4" horiz-adv-x="1220" 
d="M905 0h-265l62 310h-722l40 200l769 920h284l-748 -910h419l96 478h265l-96 -478l121 -136l-15 -74h-148z" />
    <glyph glyph-name="five" unicode="5" horiz-adv-x="1160" 
d="M319 1430h854l-42 -210h-626l-94 -352q61 22 170 22q540 0 452 -440q-92 -460 -652 -460q-200 0 -388 60l44 220q186 -70 396 -70q285 0 335 250q46 230 -229 230q-225 0 -430 -50z" />
    <glyph glyph-name="six" unicode="6" horiz-adv-x="1250" 
d="M68 550q111 556 873 923l84 -207q-384 -161 -562 -389q130 43 255 43q524 0 436 -440q-98 -490 -661 -490q-537 0 -425 560zM544 200q293 0 349 280q46 230 -226 230q-154 0 -304 -48q-26 -40 -39 -106q-71 -356 220 -356z" />
    <glyph glyph-name="seven" unicode="7" horiz-adv-x="1170" 
d="M244 1430h1020l-42 -210l-886 -1220h-291l892 1200h-739z" />
    <glyph glyph-name="eight" unicode="8" horiz-adv-x="1280" 
d="M23 424q44 223 278 331q-153 95 -107 323q73 366 593 366t447 -366q-46 -228 -242 -323q195 -108 151 -331q-87 -434 -637 -434q-570 0 -483 434zM963 1048q32 162 -221 162q-257 0 -289 -162q-38 -188 222 -188q250 0 288 188zM877 418q42 212 -251 212
q-297 0 -339 -212q-40 -198 270 -198q280 0 320 198z" />
    <glyph glyph-name="nine" unicode="9" horiz-adv-x="1265" 
d="M1235 883q-111 -556 -873 -923l-84 207q374 161 564 399q-132 -53 -257 -53q-524 0 -434 450q96 480 659 480q537 0 425 -560zM759 1233q-293 0 -347 -270q-48 -240 224 -240q154 0 304 48q26 40 39 106q71 356 -220 356z" />
    <glyph glyph-name="colon" unicode=":" horiz-adv-x="490" 
d="M458 1050l-49 -245h-265l49 245h265zM297 245l-49 -245h-265l49 245h265z" />
    <glyph glyph-name="semicolon" unicode=";" horiz-adv-x="615" 
d="M583 1050l-49 -245h-265l49 245h265zM410 185l-237 -435h-265l237 435h265z" />
    <glyph glyph-name="less" unicode="&#x3c;" horiz-adv-x="1100" 
d="M44 430l38 190l976 380l-50 -250l-619 -229l529 -221l-50 -250z" />
    <glyph glyph-name="equal" unicode="=" horiz-adv-x="950" 
d="M798 450l-42 -210h-750l42 210h750zM870 810l-42 -210h-750l42 210h750z" />
    <glyph glyph-name="greater" unicode="&#x3e;" horiz-adv-x="1100" 
d="M-32 50l50 250l617 221l-527 229l50 250l824 -380l-38 -190z" />
    <glyph glyph-name="question" unicode="?" horiz-adv-x="1115" 
d="M422 245l-49 -245h-265l49 245h265zM234 1380q220 50 410 50q515 0 437 -390q-88 -440 -588 -440l-46 -230h-265l88 440h265q255 0 301 230q36 180 -234 180q-190 0 -410 -50z" />
    <glyph glyph-name="at" unicode="@" horiz-adv-x="2190" 
d="M1325 812q-60 24 -200 24q-255 0 -319 -323q-59 -293 98 -293q194 0 358 274zM1452 118q-12 -58 68 -58q175 0 271 480q138 690 -578 690q-744 0 -882 -690q-142 -710 533 -710l-42 -210q-940 0 -756 920q180 900 1174 900q996 0 816 -900q-138 -690 -615 -690
q-301 0 -256 224l28 150l4 46q-172 -270 -408 -270q-368 0 -266 511q108 539 653 539q183 0 433 -43z" />
    <glyph glyph-name="A" unicode="A" horiz-adv-x="1562" 
d="M165 0h-282l893 1430h285l334 -1430h-275l-85 390h-475l137 230h288l-118 537z" />
    <glyph glyph-name="B" unicode="B" horiz-adv-x="1321" 
d="M8 0l286 1430h670q408 0 341 -333q-48 -244 -335 -349q273 -53 219 -325q-85 -423 -532 -423h-649zM692 230q176 0 212 180q45 223 -218 223h-80l34 171q341 55 385 276q24 120 -124 120h-388l-194 -970h373z" />
    <glyph glyph-name="C" unicode="C" horiz-adv-x="1390" 
d="M1160 60q-199 -70 -434 -70q-770 0 -621 745q141 705 911 705q235 0 406 -70l-48 -240q-169 80 -384 80q-515 0 -610 -475q-103 -515 412 -515q215 0 416 80z" />
    <glyph glyph-name="D" unicode="D" horiz-adv-x="1495" 
d="M614 230q445 0 550 524q89 446 -356 446h-295l-194 -970h295zM8 0l286 1430h560q710 0 575 -676q-151 -754 -861 -754h-560z" />
    <glyph glyph-name="E" unicode="E" horiz-adv-x="1238" 
d="M1273 1430l-46 -228h-716l-72 -360h682l-47 -237h-685l-75 -375h733l-46 -230h-993l286 1430h979z" />
    <glyph glyph-name="F" unicode="F" horiz-adv-x="1164" 
d="M1233 1430l-46 -228h-676l-72 -360h642l-47 -237h-645l-121 -605h-260l286 1430h939z" />
    <glyph glyph-name="G" unicode="G" horiz-adv-x="1390" 
d="M1161 66q-188 -76 -448 -76q-757 0 -608 745q141 705 911 705q235 0 406 -70l-48 -240q-169 80 -384 80q-515 0 -610 -475q-103 -515 383 -515q72 0 169 24l83 416h265z" />
    <glyph glyph-name="H" unicode="H" horiz-adv-x="1535" 
d="M8 0l286 1430h265l-118 -590h705l118 590h265l-286 -1430h-265l122 610h-705l-122 -610h-265z" />
    <glyph glyph-name="I" unicode="I" horiz-adv-x="565" 
d="M559 1430l-286 -1430h-265l286 1430h265z" />
    <glyph glyph-name="J" unicode="J" horiz-adv-x="740" 
d="M734 1430l-204 -1018q-82 -412 -647 -412l46 230q300 0 336 182l204 1018h265z" />
    <glyph glyph-name="K" unicode="K" horiz-adv-x="1450" 
d="M559 1430l-286 -1430h-265l286 1430h265zM1525 1430l-793 -694l581 -736h-347l-479 668l34 172l670 590h334z" />
    <glyph glyph-name="L" unicode="L" horiz-adv-x="1083" 
d="M559 1430l-240 -1200h568l-46 -230h-833l286 1430h265z" />
    <glyph glyph-name="M" unicode="M" horiz-adv-x="1800" 
d="M8 0l286 1430h275l268 -1085l692 1085h265l-286 -1430h-245l199 996l-587 -996h-226l-197 996l-199 -996h-245z" />
    <glyph glyph-name="N" unicode="N" horiz-adv-x="1575" 
d="M8 0l286 1430h265l551 -1022l204 1022h255l-286 -1430h-265l-546 1044l-209 -1044h-255z" />
    <glyph glyph-name="O" unicode="O" horiz-adv-x="1625" 
d="M720 220q432 0 532 499q98 491 -334 491q-443 0 -541 -491q-100 -499 343 -499zM101 713q145 727 863 727q707 0 562 -727q-145 -723 -852 -723q-686 0 -573 723z" />
    <glyph glyph-name="P" unicode="P" horiz-adv-x="1253" 
d="M8 0l286 1430h640q438 0 357 -403q-87 -437 -704 -529l9 236q373 65 417 285q35 178 -143 178h-358l-239 -1197h-265z" />
    <glyph glyph-name="Q" unicode="Q" horiz-adv-x="1625" 
d="M720 220q432 0 532 499q98 491 -334 491q-443 0 -541 -491q-100 -499 343 -499zM568 -5q-571 54 -467 718q145 727 863 727q707 0 562 -727q-132 -657 -729 -717q39 -173 260 -176q130 0 216 30l-42 -210q-86 -30 -216 -30q-453 0 -447 385z" />
    <glyph glyph-name="R" unicode="R" horiz-adv-x="1315" 
d="M8 2l286 1428h650q438 0 361 -383q-61 -303 -427 -429l330 -618h-309l-311 623l24 121q368 65 414 295q32 158 -146 158h-363l-239 -1195h-270z" />
    <glyph glyph-name="S" unicode="S" horiz-adv-x="1280" 
d="M-5 60l48 240q199 -80 470 -80q329 0 373 220q32 160 -170 160h-224q-439 0 -359 400q88 440 713 440q240 0 441 -70l-48 -240q-199 80 -439 80q-360 0 -402 -210q-32 -160 142 -160h224q467 0 387 -400q-90 -450 -684 -450q-271 0 -472 70z" />
    <glyph glyph-name="T" unicode="T" horiz-adv-x="1085" 
d="M1229 1430l-46 -230h-410l-240 -1200h-265l240 1200h-410l46 230h1085z" />
    <glyph glyph-name="U" unicode="U" horiz-adv-x="1530" 
d="M120 562l174 868h265l-174 -868q-68 -342 282 -342t418 342l174 868h265l-174 -868q-114 -572 -729 -572t-501 572z" />
    <glyph glyph-name="V" unicode="V" horiz-adv-x="1512" 
d="M1656 1430l-913 -1430h-285l-314 1430h305l224 -1095l661 1095h322z" />
    <glyph glyph-name="W" unicode="W" horiz-adv-x="1890" 
d="M179 1430h259l-52 -1027l577 1027h255l151 -987l359 987h271l-555 -1430h-252l-169 1122l-646 -1122h-249z" />
    <glyph glyph-name="X" unicode="X" horiz-adv-x="1502" 
d="M589 715l-420 715h325l291 -532l499 532h345l-705 -715l419 -715h-325l-291 532l-499 -532h-345z" />
    <glyph glyph-name="Y" unicode="Y" horiz-adv-x="1300" 
d="M169 1430h275l264 -689l516 689h285l-712 -930l-100 -500h-265l100 500z" />
    <glyph glyph-name="Z" unicode="Z" horiz-adv-x="1250" 
d="M1329 1430l-46 -230l-955 -970h761l-46 -230h-1060l46 230l968 970h-754l46 230h1040z" />
    <glyph glyph-name="bracketleft" unicode="[" horiz-adv-x="680" 
d="M774 1430l-42 -210h-265l-278 -1390h265l-42 -210h-530l362 1810h530z" />
    <glyph glyph-name="backslash" unicode="\" horiz-adv-x="1050" 
d="M169 1430h275l439 -1430h-275z" />
    <glyph glyph-name="bracketright" unicode="]" horiz-adv-x="680" 
d="M724 1430l-362 -1810h-530l42 210h265l278 1390h-265l42 210h530z" />
    <glyph glyph-name="asciicircum" unicode="^" horiz-adv-x="1050" 
d="M594 1430h150l254 -730h-230l-154 473l-336 -473h-230z" />
    <glyph glyph-name="underscore" unicode="_" horiz-adv-x="1050" 
d="M883 0l-42 -210h-1000l42 210h1000z" />
    <glyph glyph-name="grave" unicode="`" horiz-adv-x="663" 
d="M655 1171h-224l-187 259h319z" />
    <glyph glyph-name="a" unicode="a" horiz-adv-x="1187" 
d="M817 812q-60 24 -200 24q-255 0 -319 -323q-59 -293 98 -293q194 0 358 274zM920 0h-235l24 270q-172 -270 -408 -270q-368 0 -266 511q108 539 653 539q183 0 433 -43z" />
    <glyph glyph-name="b" unicode="b" horiz-adv-x="1178" 
d="M297 243q85 -29 205 -29q240 0 310 349q53 267 -124 267q-164 0 -324 -254zM269 1430h265l-126 -630q169 250 415 250q348 0 252 -484q-114 -566 -627 -566q-216 0 -456 43z" />
    <glyph glyph-name="c" unicode="c" horiz-adv-x="940" 
d="M764 130q-156 -130 -346 -130q-500 0 -393 535q103 515 643 515q150 0 274 -30l-42 -210q-124 30 -254 30q-295 0 -356 -305q-65 -325 190 -325q170 0 326 130z" />
    <glyph glyph-name="d" unicode="d" horiz-adv-x="1187" 
d="M817 812q-60 24 -200 24q-255 0 -319 -323q-59 -293 98 -293q194 0 358 274zM920 0h-235l24 270q-172 -270 -408 -270q-368 0 -266 511q108 539 653 539q81 0 175 -8l78 388h265z" />
    <glyph glyph-name="e" unicode="e" horiz-adv-x="1081" 
d="M1016 736q-63 -314 -486 -314h-263q-42 -212 234 -212q209 0 394 130l-42 -210q-165 -130 -414 -130q-521 0 -414 537q103 513 606 513q448 0 385 -314zM306 616h265q165 0 188 113q22 113 -170 113q-220 0 -283 -226z" />
    <glyph glyph-name="f" unicode="f" horiz-adv-x="692" 
d="M458 1050h315l-42 -210h-315l-152 -760q-64 -318 -286 -518l-179 145q152 135 200 373l194 970q86 432 558 432q129 0 226 -40l-42 -210q-91 40 -207 40q-226 0 -270 -222z" />
    <glyph glyph-name="g" unicode="g" horiz-adv-x="1187" 
d="M817 812q-60 24 -200 24q-255 0 -319 -323q-59 -293 98 -293q194 0 358 274zM920 0q-76 -380 -639 -380q-194 0 -334 50l42 210q143 -50 336 -50q296 0 330 170l54 270q-172 -270 -408 -270q-368 0 -266 511q108 539 653 539q183 0 433 -43z" />
    <glyph glyph-name="h" unicode="h" 
d="M-17 0l286 1430h265l-143 -714q191 334 484 334q303 0 235 -341l-142 -709h-265l142 712q25 124 -118 124q-189 0 -378 -333l-101 -503h-265z" />
    <glyph glyph-name="i" unicode="i" horiz-adv-x="515" 
d="M534 1430l-42 -210h-265l42 210h265zM458 1050l-210 -1050h-265l210 1050h265z" />
    <glyph glyph-name="j" unicode="j" horiz-adv-x="515" 
d="M534 1430l-42 -210h-265l42 210h265zM458 1050l-194 -970q-64 -318 -286 -518l-179 145q152 135 200 373l194 970h265z" />
    <glyph glyph-name="k" unicode="k" horiz-adv-x="1211" 
d="M-17 0l286 1430h265l-132 -662q219 282 479 282q322 0 265 -283q-40 -200 -356 -341l239 -426h-304l-203 396l17 83q311 80 347 259q20 102 -120 102q-183 0 -409 -294l-109 -546h-265z" />
    <glyph glyph-name="l" unicode="l" horiz-adv-x="515" 
d="M534 1430l-286 -1430h-265l286 1430h265z" />
    <glyph glyph-name="m" unicode="m" horiz-adv-x="1835" 
d="M-17 0l210 1050h235l-38 -342q180 342 408 342q300 0 231 -344q201 344 427 344q322 0 242 -399l-130 -651h-265l132 661q35 175 -83 175q-168 0 -344 -336l-100 -500h-265l132 658q35 178 -81 178q-176 0 -346 -336l-100 -500h-265z" />
    <glyph glyph-name="n" unicode="n" 
d="M-17 0l210 1050h235l-41 -354q195 354 488 354q303 0 235 -341l-142 -709h-265l142 712q25 124 -118 124q-189 0 -378 -333l-101 -503h-265z" />
    <glyph glyph-name="o" unicode="o" horiz-adv-x="1170" 
d="M483 200q245 0 311 329q64 321 -181 321t-309 -321q-66 -329 179 -329zM38 525q107 535 617 535t403 -535q-107 -534 -617 -534q-508 0 -403 534z" />
    <glyph glyph-name="p" unicode="p" horiz-adv-x="1178" 
d="M297 243q85 -29 205 -29q240 0 310 349q53 267 -124 267q-164 0 -325 -254zM193 1050h235l-20 -250q169 250 415 250q348 0 251 -484q-113 -566 -626 -566q-97 0 -198 9l-78 -389h-265z" />
    <glyph glyph-name="q" unicode="q" horiz-adv-x="1187" 
d="M817 812q-60 24 -200 24q-255 0 -319 -323q-59 -293 98 -293q194 0 358 274zM844 -380h-265l130 650q-172 -270 -408 -270q-368 0 -266 511q108 539 653 539q183 0 433 -43z" />
    <glyph glyph-name="r" unicode="r" horiz-adv-x="730" 
d="M-17 0l210 1050h235l-37 -334q178 334 382 334l-45 -224q-198 0 -379 -323l-101 -503h-265z" />
    <glyph glyph-name="s" unicode="s" horiz-adv-x="1025" 
d="M-7 50l44 220q161 -70 390 -70q171 0 193 110q20 100 -95 100h-190q-320 0 -256 320q66 330 533 330q198 0 361 -60l-44 -220q-161 70 -366 70q-215 0 -237 -110q-20 -100 105 -100h170q350 0 286 -320q-66 -330 -512 -330q-219 0 -382 60z" />
    <glyph glyph-name="t" unicode="t" horiz-adv-x="680" 
d="M227 1220h196l6 -170h244l-42 -210h-215l-97 -483q-29 -147 98 -147h88l-42 -210h-216q-264 0 -207 283z" />
    <glyph glyph-name="u" unicode="u" 
d="M1178 1050l-210 -1050h-235l41 354q-195 -354 -488 -354q-303 0 -235 341l142 709h265l-142 -712q-25 -124 118 -124q189 0 378 333l101 503h265z" />
    <glyph glyph-name="v" unicode="v" horiz-adv-x="1080" 
d="M68 1050h280l108 -734l412 734h280l-637 -1050h-252z" />
    <glyph glyph-name="w" unicode="w" horiz-adv-x="1585" 
d="M243 1050h265q-145 -225 -200 -500q-64 -320 71 -320q185 0 249 320l100 500h265l-100 -500q-64 -320 121 -320q135 0 199 320q55 275 0 500h265q55 -225 0 -500q-110 -550 -510 -550q-235 0 -262 289q-138 -289 -373 -289q-400 0 -290 550q55 275 200 500z" />
    <glyph glyph-name="x" unicode="x" horiz-adv-x="1080" 
d="M356 525l-288 525h285l179 -338l311 338h305l-497 -525l287 -525h-285l-179 338l-311 -338h-305z" />
    <glyph glyph-name="y" unicode="y" 
d="M774 354q-195 -354 -488 -354q-303 0 -235 341l142 709h265l-142 -712q-25 -124 118 -124q189 0 378 333l101 503h265l-210 -1050q-76 -380 -639 -380q-194 0 -334 50l42 210q143 -50 336 -50q296 0 330 170z" />
    <glyph glyph-name="z" unicode="z" horiz-adv-x="960" 
d="M168 1050h780l-42 -210l-635 -640h487l-40 -200h-780l40 200l633 640h-485z" />
    <glyph glyph-name="braceleft" unicode="{" horiz-adv-x="755" 
d="M849 1430q-165 -176 -226 -478q-70 -352 -335 -427q235 -75 165 -427q-61 -302 34 -478h-265q-95 176 -34 478q62 312 -148 312l46 230q210 0 272 312q61 302 226 478h265z" />
    <glyph glyph-name="bar" unicode="|" horiz-adv-x="565" 
d="M559 1430l-362 -1810h-265l362 1810h265z" />
    <glyph glyph-name="braceright" unicode="}" horiz-adv-x="755" 
d="M459 1430q95 -176 34 -478q-62 -312 148 -312l-46 -230q-210 0 -272 -312q-61 -302 -226 -478h-265q165 176 226 478q70 352 255 427q-155 75 -85 427q61 302 -34 478h265z" />
    <glyph glyph-name="asciitilde" unicode="~" horiz-adv-x="950" 
d="M80 610q70 61 174 61q86 0 195 -41q109 -40 199 -40q109 0 190 60l-42 -210q-70 -60 -174 -60q-86 0 -195 40q-109 41 -199 41q-109 0 -190 -61z" />
    <glyph glyph-name="nonbreakingspace" unicode="&#xa0;" horiz-adv-x="498" 
 />
    <glyph glyph-name="exclamdown" unicode="&#xa1;" horiz-adv-x="565" 
d="M-68 -380l212 1060h265l-212 -1060h-265zM169 805l49 245h265l-49 -245h-265z" />
    <glyph glyph-name="cent" unicode="&#xa2;" horiz-adv-x="940" 
d="M543 1230l40 200h255l-37 -189q96 -7 180 -27l-42 -210q-124 30 -254 30q-295 0 -356 -305q-65 -325 190 -325q170 0 326 130l-42 -210q-97 -81 -208 -112l-43 -212h-255l41 203q-367 60 -274 526q86 431 479 501z" />
    <glyph glyph-name="sterling" unicode="&#xa3;" horiz-adv-x="1217" 
d="M-6 182q201 75 233 231q23 117 -19 291t-13 323q83 413 641 413q270 0 407 -100l-48 -240q-132 130 -408 130q-274 0 -314 -201q-29 -144 -5 -199h386l-42 -210h-314q18 -104 -2 -204q-27 -137 -99 -178q22 4 49 4q84 0 205 -43q45 -17 97 -17q125 0 283 98l-46 -230
q-137 -84 -301 -84q-94 0 -195 28q-123 32 -240 32q-153 0 -297 -56z" />
    <glyph glyph-name="currency" unicode="&#xa4;" horiz-adv-x="1139" 
d="M226 756l-92 120l131 112l101 -121q121 68 255 68q124 0 212 -68l152 121l88 -112l-142 -120q41 -83 11 -231q-27 -139 -114 -232l104 -120l-132 -112l-104 123q-120 -60 -245 -60q-124 0 -231 60l-140 -123l-87 112l140 120q-36 103 -11 232q28 137 104 231zM286 529
q-49 -246 196 -246t294 246q49 244 -196 244t-294 -244z" />
    <glyph glyph-name="yen" unicode="&#xa5;" horiz-adv-x="1250" 
d="M194 1430h265l190 -510l400 510h295l-545 -660h283l-42 -210h-326l-22 -111h326l-42 -210h-326l-48 -239h-265l48 239h-319l42 210h319l22 111h-319l42 210h277z" />
    <glyph glyph-name="brokenbar" unicode="&#xa6;" horiz-adv-x="565" 
d="M343 350l-146 -730h-265l146 730h265zM558 1430l-146 -730h-264l146 730h264z" />
    <glyph glyph-name="section" unicode="&#xa7;" horiz-adv-x="1090" 
d="M16 40l44 220q163 -60 352 -60q211 0 229 90q20 100 -135 100h-70q-400 0 -338 310q32 158 174 216q-119 60 -86 224q60 300 527 300q198 0 363 -50l-44 -220q-163 60 -361 60q-222 0 -240 -90q-20 -100 135 -100h70q420 0 359 -307q-30 -150 -156 -222q100 -54 67 -221
q-60 -300 -536 -300q-189 0 -354 50zM478 598h70q155 0 176 106q25 127 -130 127h-70q-155 0 -178 -114q-23 -119 132 -119z" />
    <glyph glyph-name="dieresis" unicode="&#xa8;" horiz-adv-x="755" 
d="M799 1430l-38 -190h-215l38 190h215zM459 1430l-38 -190h-215l38 190h215z" />
    <glyph glyph-name="copyright" unicode="&#xa9;" horiz-adv-x="1785" 
d="M752 80q652 0 780 639q126 631 -506 631q-643 0 -769 -631q-128 -639 495 -639zM153 723q143 717 891 717q737 0 594 -717q-147 -733 -884 -733q-748 0 -601 733zM1108 336q-135 -51 -300 -51q-416 0 -327 443q83 416 499 416q165 0 280 -51l-20 -98q-113 58 -264 58
q-325 0 -390 -325q-71 -352 254 -352q151 0 288 58z" />
    <glyph glyph-name="ordfeminine" unicode="&#xaa;" horiz-adv-x="669" 
d="M578 1322q-25 12 -95 12q-147 0 -182 -172q-31 -156 53 -156q107 0 182 107zM608 906h-103l15 125q-84 -125 -202 -125q-179 0 -128 255q54 270 317 270q106 0 201 -22z" />
    <glyph glyph-name="guillemotleft" unicode="&#xab;" horiz-adv-x="1079" 
d="M462 525l333 375h272l-333 -375l183 -375h-272zM13 525l333 375h272l-333 -375l183 -375h-272z" />
    <glyph glyph-name="logicalnot" unicode="&#xac;" horiz-adv-x="1085" 
d="M168 1050h885l-80 -400h-210l38 190h-675z" />
    <glyph glyph-name="minus" unicode="&#xad;" horiz-adv-x="950" 
d="M834 630l-42 -210h-750l42 210h750z" />
    <glyph glyph-name="minus" unicode="&#x2212;" horiz-adv-x="950" 
d="M834 630l-42 -210h-750l42 210h750z" />
    <glyph glyph-name="registered" unicode="&#xae;" horiz-adv-x="1163" 
d="M414 756l107 536h229q153 0 127 -128q-21 -105 -181 -155l134 -253h-91l-123 241l9 45q159 25 178 119q14 74 -72 74h-153l-95 -479h-69zM571 664q360 0 432 361q74 369 -286 369q-357 0 -431 -369q-72 -361 285 -361zM213 1023q85 427 515 427q433 0 348 -427
q-83 -415 -516 -415q-418 0 -347 415z" />
    <glyph glyph-name="macron" unicode="&#xaf;" horiz-adv-x="700" 
d="M744 1430l-42 -210h-500l42 210h500z" />
    <glyph glyph-name="macron" unicode="&#x2c9;" horiz-adv-x="700" 
d="M744 1430l-42 -210h-500l42 210h500z" />
    <glyph glyph-name="degree" unicode="&#xb0;" horiz-adv-x="872" 
d="M489 965q144 0 173 147q29 144 -115 144q-148 0 -177 -144q-29 -147 119 -147zM180 1110q64 320 402 320q334 0 270 -320q-64 -319 -398 -319q-338 0 -274 319z" />
    <glyph glyph-name="plusminus" unicode="&#xb1;" horiz-adv-x="950" 
d="M384 780l54 270h210l-54 -270h270l-42 -210h-270l-54 -270h-210l54 270h-270l42 210h270zM750 210l-42 -210h-750l42 210h750z" />
    <glyph glyph-name="twosuperior" unicode="&#xb2;" horiz-adv-x="590" 
d="M50 710l35 175q332 173 358 305q13 65 -77 65t-198 -55l36 180q107 50 197 50q283 0 235 -240q-31 -155 -308 -305h247l-35 -175h-490z" />
    <glyph glyph-name="threesuperior" unicode="&#xb3;" horiz-adv-x="578" 
d="M188 1400q106 30 206 30q278 0 235 -214q-20 -98 -123 -143q86 -43 66 -143q-45 -224 -323 -224q-100 0 -194 30l36 180q93 -36 193 -36q86 0 96 50q13 66 -33 66h-164l31 154h162q48 0 61 66q8 40 -78 40q-100 0 -207 -36z" />
    <glyph glyph-name="acute" unicode="&#xb4;" horiz-adv-x="663" 
d="M388 1430h319l-291 -259h-224z" />
    <glyph glyph-name="mu" unicode="&#xb5;" 
d="M264 81l-92 -461h-265l286 1430h265l-142 -712q-25 -124 118 -124q189 0 378 333l101 503h265l-210 -1050h-235l41 354q-195 -354 -378 -354q-88 0 -132 81z" />
    <glyph glyph-name="mu" unicode="&#x3bc;" 
d="M264 81l-92 -461h-265l286 1430h265l-142 -712q-25 -124 118 -124q189 0 378 333l101 503h265l-210 -1050h-235l41 354q-195 -354 -378 -354q-88 0 -132 81z" />
    <glyph glyph-name="paragraph" unicode="&#xb6;" horiz-adv-x="953" 
d="M215 -434l194 972q-443 0 -353 448q88 444 531 444h510l-18 -90h-150l-354 -1774h-100l354 1774h-160l-354 -1774h-100z" />
    <glyph glyph-name="periodcentered" unicode="&#xb7;" horiz-adv-x="450" 
d="M63 525q25 125 150 125t100 -125t-150 -125t-100 125z" />
    <glyph glyph-name="periodcentered" unicode="&#x2219;" horiz-adv-x="450" 
d="M63 525q25 125 150 125t100 -125t-150 -125t-100 125z" />
    <glyph glyph-name="cedilla" unicode="&#xb8;" horiz-adv-x="687" 
d="M-90 -244q98 -50 206 -50t119 55q8 44 -75 44h-183l185 270h165l-111 -152q214 0 182 -162q-37 -183 -308 -183q-108 0 -206 50z" />
    <glyph glyph-name="onesuperior" unicode="&#xb9;" horiz-adv-x="328" 
d="M126 710l102 511h-76l19 95l290 110l-143 -716h-192z" />
    <glyph glyph-name="ordmasculine" unicode="&#xba;" horiz-adv-x="700" 
d="M408 1000q148 0 182 170q33 166 -115 166q-147 0 -180 -166q-34 -170 113 -170zM191 1168q53 262 303 262t197 -262q-52 -262 -302 -262q-248 0 -198 262z" />
    <glyph glyph-name="guillemotright" unicode="&#xbb;" horiz-adv-x="1079" 
d="M210 150h-272l333 375l-183 375h272l183 -375zM659 150h-272l333 375l-183 375h272l183 -375z" />
    <glyph glyph-name="onequarter" unicode="&#xbc;" horiz-adv-x="1449" 
d="M203 0h-245l1111 1430h245zM868 690q106 30 206 30q277 0 234 -214q-19 -98 -122 -143q85 -43 65 -143q-45 -224 -322 -224q-100 0 -194 30l36 180q93 -36 193 -36q84 0 94 50q13 66 -33 66h-164l31 154h163q47 0 60 66q8 40 -76 40q-100 0 -207 -36zM176 710l102 511
h-76l19 95l290 110l-143 -716h-192z" />
    <glyph glyph-name="onehalf" unicode="&#xbd;" horiz-adv-x="1442" 
d="M203 0h-245l1111 1430h245zM710 0l35 175q333 173 359 305q13 65 -77 65t-199 -55l36 180q108 50 198 50q282 0 234 -240q-31 -155 -309 -305h248l-35 -175h-490zM176 710l102 511h-76l19 95l290 110l-143 -716h-192z" />
    <glyph glyph-name="threequarters" unicode="&#xbe;" horiz-adv-x="1490" 
d="M294 0h-245l1111 1430h245zM1174 0h-182l30 150h-352l35 174l296 390h192l-291 -390h155l45 224h182l-45 -224l66 -38l-27 -136h-74zM238 1400q106 30 206 30q277 0 234 -214q-19 -98 -122 -143q85 -43 65 -143q-45 -224 -322 -224q-100 0 -194 30l36 180q93 -36 193 -36
q84 0 94 50q13 66 -33 66h-164l31 154h163q47 0 60 66q8 40 -76 40q-100 0 -207 -36z" />
    <glyph glyph-name="questiondown" unicode="&#xbf;" horiz-adv-x="1115" 
d="M619 805l49 245h265l-49 -245h-265zM807 -330q-220 -50 -410 -50q-515 0 -437 390q88 440 588 440l46 230h265l-88 -440h-265q-255 0 -301 -230q-36 -180 234 -180q190 0 410 50z" />
    <glyph glyph-name="Agrave" unicode="&#xc0;" horiz-adv-x="1562" 
d="M165 0h-282l893 1430h285l334 -1430h-275l-85 390h-475l137 230h288l-118 537zM1027 1551h-224l-187 259h319z" />
    <glyph glyph-name="Aacute" unicode="&#xc1;" horiz-adv-x="1562" 
d="M165 0h-282l893 1430h285l334 -1430h-275l-85 390h-475l137 230h288l-118 537zM965 1810h319l-291 -259h-224z" />
    <glyph glyph-name="Acircumflex" unicode="&#xc2;" horiz-adv-x="1562" 
d="M165 0h-282l893 1430h285l334 -1430h-275l-85 390h-475l137 230h288l-118 537zM900 1810h150l123 -260h-180l-44 130l-96 -130h-180z" />
    <glyph glyph-name="Atilde" unicode="&#xc3;" horiz-adv-x="1562" 
d="M165 0h-282l893 1430h285l334 -1430h-275l-85 390h-475l137 230h288l-118 537zM726 1764q69 46 139 46q52 0 105 -26t109 -26q75 0 155 46l-42 -210q-69 -46 -139 -46q-52 0 -105 26t-109 26q-75 0 -155 -46z" />
    <glyph glyph-name="Adieresis" unicode="&#xc4;" horiz-adv-x="1562" 
d="M165 0h-282l893 1430h285l334 -1430h-275l-85 390h-475l137 230h288l-118 537zM1263 1810l-38 -190h-215l38 190h215zM923 1810l-38 -190h-215l38 190h215z" />
    <glyph glyph-name="Aring" unicode="&#xc5;" horiz-adv-x="1562" 
d="M929 1474q134 0 161 137q27 134 -107 134q-138 0 -165 -134q-27 -137 111 -137zM165 0h-282l893 1430h4q-78 49 -52 179q42 210 270 210q224 0 182 -210q-26 -130 -122 -179h3l334 -1430h-275l-85 390h-475l137 230h288l-118 537z" />
    <glyph glyph-name="AE" unicode="&#xc6;" horiz-adv-x="1925" 
d="M800 600l26 -210h-419l-232 -390h-292l893 1430h1148l-46 -230h-788l88 -360h593l-46 -230h-494l90 -380h383l-46 -230h-568l-231 1144l-329 -544h270z" />
    <glyph glyph-name="Ccedilla" unicode="&#xc7;" horiz-adv-x="1390" 
d="M577 -2q-606 69 -472 737q141 705 911 705q235 0 406 -70l-48 -240q-169 80 -384 80q-515 0 -610 -475q-103 -515 412 -515q215 0 416 80l-48 -240q-196 -69 -427 -70l-50 -67q214 0 182 -162q-37 -183 -308 -183q-108 0 -206 50l26 128q98 -50 206 -50t119 55
q9 44 -74 44h-183z" />
    <glyph glyph-name="Egrave" unicode="&#xc8;" horiz-adv-x="1238" 
d="M1273 1430l-46 -228h-716l-72 -360h682l-47 -237h-685l-75 -375h733l-46 -230h-993l286 1430h979zM933 1551h-224l-187 259h319z" />
    <glyph glyph-name="Eacute" unicode="&#xc9;" horiz-adv-x="1238" 
d="M1273 1430l-46 -228h-716l-72 -360h682l-47 -237h-685l-75 -375h733l-46 -230h-993l286 1430h979zM820 1810h319l-291 -259h-224z" />
    <glyph glyph-name="Ecircumflex" unicode="&#xca;" horiz-adv-x="1238" 
d="M1273 1430l-46 -228h-716l-72 -360h682l-47 -237h-685l-75 -375h733l-46 -230h-993l286 1430h979zM756 1810h150l123 -260h-180l-44 130l-96 -130h-180z" />
    <glyph glyph-name="Edieresis" unicode="&#xcb;" horiz-adv-x="1238" 
d="M1273 1430l-46 -228h-716l-72 -360h682l-47 -237h-685l-75 -375h733l-46 -230h-993l286 1430h979zM1108 1810l-38 -190h-215l38 190h215zM768 1810l-38 -190h-215l38 190h215z" />
    <glyph glyph-name="Igrave" unicode="&#xcc;" horiz-adv-x="565" 
d="M559 1430l-286 -1430h-265l286 1430h265zM589 1551h-224l-187 259h319z" />
    <glyph glyph-name="Iacute" unicode="&#xcd;" horiz-adv-x="565" 
d="M559 1430l-286 -1430h-265l286 1430h265zM476 1810h319l-291 -259h-224z" />
    <glyph glyph-name="Icircumflex" unicode="&#xce;" horiz-adv-x="565" 
d="M560 1430l-286 -1430h-265l286 1430h265zM422 1810h150l123 -260h-180l-44 130l-96 -130h-180z" />
    <glyph glyph-name="Idieresis" unicode="&#xcf;" horiz-adv-x="565" 
d="M559 1430l-286 -1430h-265l286 1430h265zM774 1810l-38 -190h-215l38 190h215zM434 1810l-38 -190h-215l38 190h215z" />
    <glyph glyph-name="Eth" unicode="&#xd0;" horiz-adv-x="1455" 
d="M176 840l118 590h520q710 0 575 -676q-151 -754 -861 -754h-520l122 610h-200l46 230h200zM441 840h285l-46 -230h-285l-76 -380h255q445 0 550 524q89 446 -356 446h-255z" />
    <glyph glyph-name="Ntilde" unicode="&#xd1;" horiz-adv-x="1575" 
d="M8 0l286 1430h265l551 -1022l204 1022h255l-286 -1430h-265l-546 1044l-209 -1044h-255zM736 1764q69 46 139 46q52 0 105 -26t109 -26q75 0 155 46l-42 -210q-69 -46 -139 -46q-52 0 -105 26t-109 26q-75 0 -155 -46z" />
    <glyph glyph-name="Ograve" unicode="&#xd2;" horiz-adv-x="1625" 
d="M720 220q432 0 532 499q98 491 -334 491q-443 0 -541 -491q-100 -499 343 -499zM101 713q145 727 863 727q707 0 562 -727q-145 -723 -852 -723q-686 0 -573 723zM1119 1551h-224l-187 259h319z" />
    <glyph glyph-name="Oacute" unicode="&#xd3;" horiz-adv-x="1625" 
d="M720 220q432 0 532 499q98 491 -334 491q-443 0 -541 -491q-100 -499 343 -499zM101 713q145 727 863 727q707 0 562 -727q-145 -723 -852 -723q-686 0 -573 723zM1006 1810h319l-291 -259h-224z" />
    <glyph glyph-name="Ocircumflex" unicode="&#xd4;" horiz-adv-x="1625" 
d="M720 220q432 0 532 499q98 491 -334 491q-443 0 -541 -491q-100 -499 343 -499zM101 713q145 727 863 727q707 0 562 -727q-145 -723 -852 -723q-686 0 -573 723zM942 1810h150l123 -260h-180l-44 130l-96 -130h-180z" />
    <glyph glyph-name="Otilde" unicode="&#xd5;" horiz-adv-x="1625" 
d="M720 220q432 0 532 499q98 491 -334 491q-443 0 -541 -491q-100 -499 343 -499zM101 713q145 727 863 727q707 0 562 -727q-145 -723 -852 -723q-686 0 -573 723zM758 1764q69 46 139 46q52 0 105 -26t109 -26q75 0 155 46l-42 -210q-69 -46 -139 -46q-52 0 -105 26
t-109 26q-75 0 -155 -46z" />
    <glyph glyph-name="Odieresis" unicode="&#xd6;" horiz-adv-x="1625" 
d="M720 220q432 0 532 499q98 491 -334 491q-443 0 -541 -491q-100 -499 343 -499zM101 713q145 727 863 727q707 0 562 -727q-145 -723 -852 -723q-686 0 -573 723zM1314 1810l-38 -190h-215l38 190h215zM974 1810l-38 -190h-215l38 190h215z" />
    <glyph glyph-name="multiply" unicode="&#xd7;" horiz-adv-x="879" 
d="M254 525l-153 191l178 148l153 -191l229 191l118 -148l-229 -191l153 -191l-178 -148l-152 191l-230 -191l-118 148z" />
    <glyph glyph-name="Oslash" unicode="&#xd8;" horiz-adv-x="1625" 
d="M506 264q83 -44 214 -44q432 0 532 499q39 198 -7 316zM383 404l734 768q-78 38 -199 38q-443 0 -541 -491q-39 -196 6 -315zM315 65l-62 -65h-257l179 187q-128 181 -74 526q145 727 863 727q212 0 348 -66l53 56h258l-164 -172q139 -182 67 -545q-145 -723 -852 -723
q-221 0 -359 75z" />
    <glyph glyph-name="Ugrave" unicode="&#xd9;" horiz-adv-x="1530" 
d="M120 562l174 868h265l-174 -868q-68 -342 282 -342t418 342l174 868h265l-174 -868q-114 -572 -729 -572t-501 572zM1061 1551h-224l-187 259h319z" />
    <glyph glyph-name="Uacute" unicode="&#xda;" horiz-adv-x="1530" 
d="M120 562l174 868h265l-174 -868q-68 -342 282 -342t418 342l174 868h265l-174 -868q-114 -572 -729 -572t-501 572zM949 1810h319l-291 -259h-224z" />
    <glyph glyph-name="Ucircumflex" unicode="&#xdb;" horiz-adv-x="1530" 
d="M120 562l174 868h265l-174 -868q-68 -342 282 -342t418 342l174 868h265l-174 -868q-114 -572 -729 -572t-501 572zM894 1810h150l123 -260h-180l-44 130l-96 -130h-180z" />
    <glyph glyph-name="Udieresis" unicode="&#xdc;" horiz-adv-x="1530" 
d="M120 562l174 868h265l-174 -868q-68 -342 282 -342t418 342l174 868h265l-174 -868q-114 -572 -729 -572t-501 572zM1247 1810l-38 -190h-215l38 190h215zM907 1810l-38 -190h-215l38 190h215z" />
    <glyph glyph-name="Yacute" unicode="&#xdd;" horiz-adv-x="1300" 
d="M169 1430h275l264 -689l516 689h285l-712 -930l-100 -500h-265l100 500zM889 1810h319l-291 -259h-224z" />
    <glyph glyph-name="Thorn" unicode="&#xde;" horiz-adv-x="1278" 
d="M8 0l286 1430h274l-62 -308h396q408 0 336 -363q-86 -427 -693 -519l9 236q363 65 405 275q28 138 -120 138h-388l-178 -889h-265z" />
    <glyph glyph-name="germandbls" unicode="&#xdf;" horiz-adv-x="1216" 
d="M174 959q94 468 598 468q470 0 395 -377l-27 -135q-315 -53 -342 -188q-14 -71 70 -111l85 -41q168 -81 131 -275q-60 -300 -484 -300h-212l42 210h214q147 0 167 102q20 91 -78 138l-75 34q-155 72 -111 261q35 177 349 305q33 167 -173 167q-232 0 -284 -261l-175 -876
q-64 -318 -286 -518l-179 145q152 135 200 373z" />
    <glyph glyph-name="agrave" unicode="&#xe0;" horiz-adv-x="1187" 
d="M817 812q-60 24 -200 24q-255 0 -319 -323q-59 -293 98 -293q194 0 358 274zM920 0h-235l24 270q-172 -270 -408 -270q-368 0 -266 511q108 539 653 539q183 0 433 -43zM865 1171h-224l-187 259h319z" />
    <glyph glyph-name="aacute" unicode="&#xe1;" horiz-adv-x="1187" 
d="M817 812q-60 24 -200 24q-255 0 -319 -323q-59 -293 98 -293q194 0 358 274zM920 0h-235l24 270q-172 -270 -408 -270q-368 0 -266 511q108 539 653 539q183 0 433 -43zM752 1430h319l-291 -259h-224z" />
    <glyph glyph-name="acircumflex" unicode="&#xe2;" horiz-adv-x="1187" 
d="M817 812q-60 24 -200 24q-255 0 -319 -323q-59 -293 98 -293q194 0 358 274zM920 0h-235l24 270q-172 -270 -408 -270q-368 0 -266 511q108 539 653 539q183 0 433 -43zM688 1430h150l123 -260h-180l-44 130l-96 -130h-180z" />
    <glyph glyph-name="atilde" unicode="&#xe3;" horiz-adv-x="1187" 
d="M817 812q-60 24 -200 24q-255 0 -319 -323q-59 -293 98 -293q194 0 358 274zM920 0h-235l24 270q-172 -270 -408 -270q-368 0 -266 511q108 539 653 539q183 0 433 -43zM504 1384q69 46 139 46q52 0 105 -26t109 -26q75 0 155 46l-42 -210q-69 -46 -139 -46
q-52 0 -105 26t-109 26q-75 0 -155 -46z" />
    <glyph glyph-name="adieresis" unicode="&#xe4;" horiz-adv-x="1187" 
d="M817 812q-60 24 -200 24q-255 0 -319 -323q-59 -293 98 -293q194 0 358 274zM920 0h-235l24 270q-172 -270 -408 -270q-368 0 -266 511q108 539 653 539q183 0 433 -43zM1040 1430l-38 -190h-215l38 190h215zM700 1430l-38 -190h-215l38 190h215z" />
    <glyph glyph-name="aring" unicode="&#xe5;" horiz-adv-x="1187" 
d="M817 812q-60 24 -200 24q-255 0 -319 -323q-59 -293 98 -293q194 0 358 274zM920 0h-235l24 270q-172 -270 -408 -270q-368 0 -266 511q108 539 653 539q183 0 433 -43zM724 1226q134 0 161 137q27 134 -107 134q-138 0 -165 -134q-27 -137 111 -137zM523 1361
q42 210 270 210q224 0 182 -210q-42 -209 -266 -209q-228 0 -186 209z" />
    <glyph glyph-name="ae" unicode="&#xe6;" horiz-adv-x="1745" 
d="M461 460q-171 0 -197 -130q-28 -140 122 -140q152 0 259 72l36 178q-106 20 -220 20zM979 616h265q165 0 188 113q22 113 -170 113q-220 0 -283 -226zM768 111q-215 -111 -419 -111q-416 0 -350 329q64 321 501 321q104 0 222 -22q42 212 -200 212q-170 0 -342 -48
l41 205q179 53 345 53q272 0 354 -113q148 113 384 113q448 0 385 -314t-486 -314h-263q-42 -212 234 -212q209 0 394 130l-42 -210q-165 -130 -414 -130q-237 0 -344 111z" />
    <glyph glyph-name="ccedilla" unicode="&#xe7;" horiz-adv-x="940" 
d="M294 10q-362 62 -269 525q103 515 643 515q150 0 274 -30l-42 -210q-124 30 -254 30q-295 0 -356 -305q-65 -325 190 -325q170 0 326 130l-42 -210q-143 -119 -314 -129l-58 -78q214 0 182 -162q-37 -183 -308 -183q-108 0 -206 50l26 128q98 -50 206 -50t119 55
q9 44 -74 44h-183z" />
    <glyph glyph-name="egrave" unicode="&#xe8;" horiz-adv-x="1081" 
d="M1016 736q-63 -314 -486 -314h-263q-42 -212 234 -212q209 0 394 130l-42 -210q-165 -130 -414 -130q-521 0 -414 537q103 513 606 513q448 0 385 -314zM306 616h265q165 0 188 113q22 113 -170 113q-220 0 -283 -226zM822 1171h-224l-187 259h319z" />
    <glyph glyph-name="eacute" unicode="&#xe9;" horiz-adv-x="1081" 
d="M1016 736q-63 -314 -486 -314h-263q-42 -212 234 -212q209 0 394 130l-42 -210q-165 -130 -414 -130q-521 0 -414 537q103 513 606 513q448 0 385 -314zM306 616h265q165 0 188 113q22 113 -170 113q-220 0 -283 -226zM669 1430h319l-291 -259h-224z" />
    <glyph glyph-name="ecircumflex" unicode="&#xea;" horiz-adv-x="1081" 
d="M1016 736q-63 -314 -486 -314h-263q-42 -212 234 -212q209 0 394 130l-42 -210q-165 -130 -414 -130q-521 0 -414 537q103 513 606 513q448 0 385 -314zM306 616h265q165 0 188 113q22 113 -170 113q-220 0 -283 -226zM615 1430h150l123 -260h-180l-44 130l-96 -130h-180
z" />
    <glyph glyph-name="edieresis" unicode="&#xeb;" horiz-adv-x="1081" 
d="M1016 736q-63 -314 -486 -314h-263q-42 -212 234 -212q209 0 394 130l-42 -210q-165 -130 -414 -130q-521 0 -414 537q103 513 606 513q448 0 385 -314zM306 616h265q165 0 188 113q22 113 -170 113q-220 0 -283 -226zM967 1430l-38 -190h-215l38 190h215zM627 1430
l-38 -190h-215l38 190h215z" />
    <glyph glyph-name="igrave" unicode="&#xec;" horiz-adv-x="515" 
d="M458 1050l-210 -1050h-265l210 1050h265zM504 1171h-224l-187 259h319z" />
    <glyph glyph-name="iacute" unicode="&#xed;" horiz-adv-x="515" 
d="M458 1050l-210 -1050h-265l210 1050h265zM391 1430h319l-291 -259h-224z" />
    <glyph glyph-name="icircumflex" unicode="&#xee;" horiz-adv-x="515" 
d="M459 1050l-210 -1050h-265l210 1050h265zM327 1430h150l123 -260h-180l-44 130l-96 -130h-180z" />
    <glyph glyph-name="idieresis" unicode="&#xef;" horiz-adv-x="515" 
d="M458 1050l-210 -1050h-265l210 1050h265zM679 1430l-38 -190h-215l38 190h215zM339 1430l-38 -190h-215l38 190h215z" />
    <glyph glyph-name="eth" unicode="&#xf0;" horiz-adv-x="1180" 
d="M827 646q19 96 13 154q-80 50 -224 50q-252 0 -314 -310q-68 -340 185 -340q251 0 340 446zM997 1268q181 -193 96 -618q-132 -660 -649 -660q-513 0 -403 550q102 510 536 510q177 0 268 -90q-35 133 -134 198l-251 -97l24 119l82 32q-48 8 -103 8h-206l42 210h208
q249 0 396 -88l228 88l-24 -119z" />
    <glyph glyph-name="ntilde" unicode="&#xf1;" 
d="M-17 0l210 1050h235l-41 -354q195 354 488 354q303 0 235 -341l-142 -709h-265l142 712q25 124 -118 124q-189 0 -378 -333l-101 -503h-265zM503 1384q69 46 139 46q52 0 105 -26t109 -26q75 0 155 46l-42 -210q-69 -46 -139 -46q-52 0 -105 26t-109 26q-75 0 -155 -46z
" />
    <glyph glyph-name="ograve" unicode="&#xf2;" horiz-adv-x="1170" 
d="M483 200q245 0 311 329q64 321 -181 321t-309 -321q-66 -329 179 -329zM38 525q107 535 617 535t403 -535q-107 -534 -617 -534q-508 0 -403 534zM831 1171h-224l-187 259h319z" />
    <glyph glyph-name="oacute" unicode="&#xf3;" horiz-adv-x="1170" 
d="M483 200q245 0 311 329q64 321 -181 321t-309 -321q-66 -329 179 -329zM38 525q107 535 617 535t403 -535q-107 -534 -617 -534q-508 0 -403 534zM719 1430h319l-291 -259h-224z" />
    <glyph glyph-name="ocircumflex" unicode="&#xf4;" horiz-adv-x="1170" 
d="M483 200q245 0 311 329q64 321 -181 321t-309 -321q-66 -329 179 -329zM38 525q107 535 617 535t403 -535q-107 -534 -617 -534q-508 0 -403 534zM654 1430h150l123 -260h-180l-44 130l-96 -130h-180z" />
    <glyph glyph-name="otilde" unicode="&#xf5;" horiz-adv-x="1170" 
d="M483 200q245 0 311 329q64 321 -181 321t-309 -321q-66 -329 179 -329zM38 525q107 535 617 535t403 -535q-107 -534 -617 -534q-508 0 -403 534zM470 1384q69 46 139 46q52 0 105 -26t109 -26q75 0 155 46l-42 -210q-69 -46 -139 -46q-52 0 -105 26t-109 26
q-75 0 -155 -46z" />
    <glyph glyph-name="odieresis" unicode="&#xf6;" horiz-adv-x="1170" 
d="M483 200q245 0 311 329q64 321 -181 321t-309 -321q-66 -329 179 -329zM38 525q107 535 617 535t403 -535q-107 -534 -617 -534q-508 0 -403 534zM1007 1430l-38 -190h-215l38 190h215zM667 1430l-38 -190h-215l38 190h215z" />
    <glyph glyph-name="divide" unicode="&#xf7;" horiz-adv-x="985" 
d="M869 630l-42 -210h-785l42 210h785zM531 340l-38 -190h-225l38 190h225zM643 900l-38 -190h-225l38 190h225z" />
    <glyph glyph-name="oslash" unicode="&#xf8;" horiz-adv-x="1180" 
d="M386 219q44 -19 107 -19q265 0 331 329q18 90 10 155zM282 379l439 456q-41 15 -98 15q-265 0 -329 -321q-18 -87 -12 -150zM206 32l-31 -32h-257l145 151q-82 132 -35 374q107 535 637 535q141 0 236 -38l27 28h258l-136 -142q88 -133 38 -383q-107 -534 -637 -534
q-147 0 -245 41z" />
    <glyph glyph-name="ugrave" unicode="&#xf9;" 
d="M1178 1050l-210 -1050h-235l41 354q-195 -354 -488 -354q-303 0 -235 341l142 709h265l-142 -712q-25 -124 118 -124q189 0 378 333l101 503h265zM864 1171h-224l-187 259h319z" />
    <glyph glyph-name="uacute" unicode="&#xfa;" 
d="M1178 1050l-210 -1050h-235l41 354q-195 -354 -488 -354q-303 0 -235 341l142 709h265l-142 -712q-25 -124 118 -124q189 0 378 333l101 503h265zM751 1430h319l-291 -259h-224z" />
    <glyph glyph-name="ucircumflex" unicode="&#xfb;" 
d="M1178 1050l-210 -1050h-235l41 354q-195 -354 -488 -354q-303 0 -235 341l142 709h265l-142 -712q-25 -124 118 -124q189 0 378 333l101 503h265zM687 1430h150l123 -260h-180l-44 130l-96 -130h-180z" />
    <glyph glyph-name="udieresis" unicode="&#xfc;" 
d="M1178 1050l-210 -1050h-235l41 354q-195 -354 -488 -354q-303 0 -235 341l142 709h265l-142 -712q-25 -124 118 -124q189 0 378 333l101 503h265zM1039 1430l-38 -190h-215l38 190h215zM699 1430l-38 -190h-215l38 190h215z" />
    <glyph glyph-name="yacute" unicode="&#xfd;" 
d="M774 354q-195 -354 -488 -354q-303 0 -235 341l142 709h265l-142 -712q-25 -124 118 -124q189 0 378 333l101 503h265l-210 -1050q-76 -380 -639 -380q-194 0 -334 50l42 210q143 -50 336 -50q296 0 330 170zM751 1430h319l-291 -259h-224z" />
    <glyph glyph-name="thorn" unicode="&#xfe;" horiz-adv-x="1178" 
d="M408 800q169 250 415 250q348 0 251 -484q-113 -566 -626 -566q-97 0 -198 9l-78 -389h-265l362 1810h265zM363 576l-66 -333q85 -29 205 -29q240 0 310 349q53 267 -124 267q-164 0 -325 -254z" />
    <glyph glyph-name="ydieresis" unicode="&#xff;" 
d="M774 354q-195 -354 -488 -354q-303 0 -235 341l142 709h265l-142 -712q-25 -124 118 -124q189 0 378 333l101 503h265l-210 -1050q-76 -380 -639 -380q-194 0 -334 50l42 210q143 -50 336 -50q296 0 330 170zM1039 1430l-38 -190h-215l38 190h215zM699 1430l-38 -190
h-215l38 190h215z" />
    <glyph glyph-name="Amacron" unicode="&#x100;" horiz-adv-x="1562" 
d="M165 0h-282l893 1430h285l334 -1430h-275l-85 390h-475l137 230h288l-118 537zM1235 1810l-42 -210h-500l42 210h500z" />
    <glyph glyph-name="amacron" unicode="&#x101;" horiz-adv-x="1187" 
d="M817 812q-60 24 -200 24q-255 0 -319 -323q-59 -293 98 -293q194 0 358 274zM920 0h-235l24 270q-172 -270 -408 -270q-368 0 -266 511q108 539 653 539q183 0 433 -43zM993 1430l-42 -210h-500l42 210h500z" />
    <glyph glyph-name="Abreve" unicode="&#x102;" horiz-adv-x="1562" 
d="M165 0h-282l893 1430h285l334 -1430h-275l-85 390h-475l137 230h288l-118 537zM690 1810h175q-28 -140 92 -140t148 140h175q-58 -290 -353 -290t-237 290z" />
    <glyph glyph-name="abreve" unicode="&#x103;" horiz-adv-x="1187" 
d="M817 812q-60 24 -200 24q-255 0 -319 -323q-59 -293 98 -293q194 0 358 274zM920 0h-235l24 270q-172 -270 -408 -270q-368 0 -266 511q108 539 653 539q183 0 433 -43zM448 1430h175q-28 -140 92 -140t148 140h175q-58 -290 -353 -290t-237 290z" />
    <glyph glyph-name="Aogonek" unicode="&#x104;" horiz-adv-x="1562" 
d="M165 0h-282l893 1430h285l334 -1430q-257 -96 -278 -198q-13 -68 72 -68t141 20l-32 -160q-65 -20 -153 -20q-261 0 -221 203q27 131 196 223l-85 390h-475l137 230h288l-118 537z" />
    <glyph glyph-name="aogonek" unicode="&#x105;" horiz-adv-x="1187" 
d="M817 812q-60 24 -200 24q-255 0 -319 -323q-59 -293 98 -293q194 0 358 274zM685 0l24 270q-172 -270 -408 -270q-368 0 -266 511q108 539 653 539q183 0 433 -43l-201 -1007q-257 -96 -278 -198q-13 -68 72 -68t141 20l-32 -160q-65 -20 -153 -20q-261 0 -221 203
q27 131 236 223z" />
    <glyph glyph-name="Cacute" unicode="&#x106;" horiz-adv-x="1390" 
d="M1160 60q-199 -70 -434 -70q-770 0 -621 745q141 705 911 705q235 0 406 -70l-48 -240q-169 80 -384 80q-515 0 -610 -475q-103 -515 412 -515q215 0 416 80zM919 1810h319l-291 -259h-224z" />
    <glyph glyph-name="cacute" unicode="&#x107;" horiz-adv-x="940" 
d="M764 130q-156 -130 -346 -130q-500 0 -393 535q103 515 643 515q150 0 274 -30l-42 -210q-124 30 -254 30q-295 0 -356 -305q-65 -325 190 -325q170 0 326 130zM634 1430h319l-291 -259h-224z" />
    <glyph glyph-name="Ccircumflex" unicode="&#x108;" horiz-adv-x="1390" 
d="M1160 60q-199 -70 -434 -70q-770 0 -621 745q141 705 911 705q235 0 406 -70l-48 -240q-169 80 -384 80q-515 0 -610 -475q-103 -515 412 -515q215 0 416 80zM944 1810h150l123 -260h-180l-44 130l-96 -130h-180z" />
    <glyph glyph-name="ccircumflex" unicode="&#x109;" horiz-adv-x="940" 
d="M764 130q-156 -130 -346 -130q-500 0 -393 535q103 515 643 515q150 0 274 -30l-42 -210q-124 30 -254 30q-295 0 -356 -305q-65 -325 190 -325q170 0 326 130zM579 1430h150l123 -260h-180l-44 130l-96 -130h-180z" />
    <glyph glyph-name="Cdotaccent" unicode="&#x10a;" horiz-adv-x="1390" 
d="M1160 60q-199 -70 -434 -70q-770 0 -621 745q141 705 911 705q235 0 406 -70l-48 -240q-169 80 -384 80q-515 0 -610 -475q-103 -515 412 -515q215 0 416 80zM1137 1810l-44 -220h-235l44 220h235z" />
    <glyph glyph-name="cdotaccent" unicode="&#x10b;" horiz-adv-x="940" 
d="M764 130q-156 -130 -346 -130q-500 0 -393 535q103 515 643 515q150 0 274 -30l-42 -210q-124 30 -254 30q-295 0 -356 -305q-65 -325 190 -325q170 0 326 130zM772 1430l-44 -220h-235l44 220h235z" />
    <glyph glyph-name="Ccaron" unicode="&#x10c;" horiz-adv-x="1390" 
d="M1160 60q-199 -70 -434 -70q-770 0 -621 745q141 705 911 705q235 0 406 -70l-48 -240q-169 80 -384 80q-515 0 -610 -475q-103 -515 412 -515q215 0 416 80zM737 1810h180l44 -130l96 130h180l-227 -260h-150z" />
    <glyph glyph-name="ccaron" unicode="&#x10d;" horiz-adv-x="940" 
d="M764 130q-156 -130 -346 -130q-500 0 -393 535q103 515 643 515q150 0 274 -30l-42 -210q-124 30 -254 30q-295 0 -356 -305q-65 -325 190 -325q170 0 326 130zM384 1430h180l44 -130l96 130h180l-227 -260h-150z" />
    <glyph glyph-name="Dcaron" unicode="&#x10e;" horiz-adv-x="1495" 
d="M614 230q445 0 550 524q89 446 -356 446h-295l-194 -970h295zM8 0l286 1430h560q710 0 575 -676q-151 -754 -861 -754h-560zM535 1810h180l44 -130l96 130h180l-227 -260h-150z" />
    <glyph glyph-name="dcaron" unicode="&#x10f;" horiz-adv-x="1187" 
d="M817 812q-60 24 -200 24q-255 0 -319 -323q-59 -293 98 -293q194 0 358 274zM920 0h-235l24 270q-172 -270 -408 -270q-368 0 -266 511q108 539 653 539q81 0 175 -8l78 388h265zM1701 1430l-237 -435h-245l237 435h245z" />
    <glyph glyph-name="Dcroat" unicode="&#x110;" horiz-adv-x="1500" 
d="M156 840l118 590h520q710 0 575 -676q-151 -754 -861 -754h-520l122 610h-200l46 230h200zM421 840h285l-46 -230h-285l-76 -380h255q445 0 550 524q89 446 -356 446h-255z" />
    <glyph glyph-name="dcroat" unicode="&#x111;" horiz-adv-x="1187" 
d="M817 812q-60 24 -200 24q-255 0 -319 -323q-59 -293 98 -293q194 0 358 274zM921 1330l20 100h265l-286 -1430h-235l24 270q-172 -270 -408 -270q-368 0 -266 511q108 539 653 539q81 0 175 -8l16 78h-682l42 210h682z" />
    <glyph glyph-name="Emacron" unicode="&#x112;" horiz-adv-x="1238" 
d="M1273 1430l-46 -228h-716l-72 -360h682l-47 -237h-685l-75 -375h733l-46 -230h-993l286 1430h979zM1081 1810l-42 -210h-500l42 210h500z" />
    <glyph glyph-name="emacron" unicode="&#x113;" horiz-adv-x="1081" 
d="M1016 736q-63 -314 -486 -314h-263q-42 -212 234 -212q209 0 394 130l-42 -210q-165 -130 -414 -130q-521 0 -414 537q103 513 606 513q448 0 385 -314zM306 616h265q165 0 188 113q22 113 -170 113q-220 0 -283 -226zM940 1430l-42 -210h-500l42 210h500z" />
    <glyph glyph-name="Ebreve" unicode="&#x114;" horiz-adv-x="1238" 
d="M1273 1430l-46 -228h-716l-72 -360h682l-47 -237h-685l-75 -375h733l-46 -230h-993l286 1430h979zM536 1810h175q-28 -140 92 -140t148 140h175q-58 -290 -353 -290t-237 290z" />
    <glyph glyph-name="ebreve" unicode="&#x115;" horiz-adv-x="1081" 
d="M1016 736q-63 -314 -486 -314h-263q-42 -212 234 -212q209 0 394 130l-42 -210q-165 -130 -414 -130q-521 0 -414 537q103 513 606 513q448 0 385 -314zM306 616h265q165 0 188 113q22 113 -170 113q-220 0 -283 -226zM395 1430h175q-28 -140 92 -140t148 140h175
q-58 -290 -353 -290t-237 290z" />
    <glyph glyph-name="Edotaccent" unicode="&#x116;" horiz-adv-x="1238" 
d="M1273 1430l-46 -228h-716l-72 -360h682l-47 -237h-685l-75 -375h733l-46 -230h-993l286 1430h979zM948 1810l-44 -220h-235l44 220h235z" />
    <glyph glyph-name="edotaccent" unicode="&#x117;" horiz-adv-x="1081" 
d="M1016 736q-63 -314 -486 -314h-263q-42 -212 234 -212q209 0 394 130l-42 -210q-165 -130 -414 -130q-521 0 -414 537q103 513 606 513q448 0 385 -314zM306 616h265q165 0 188 113q22 113 -170 113q-220 0 -283 -226zM807 1430l-44 -220h-235l44 220h235z" />
    <glyph glyph-name="Eogonek" unicode="&#x118;" horiz-adv-x="1238" 
d="M706 0h-698l286 1430h969l-46 -228h-706l-72 -360h672l-47 -237h-675l-75 -375h723l-46 -230q-257 -96 -278 -198q-13 -68 72 -68t141 20l-32 -160q-65 -20 -153 -20q-261 0 -221 203q27 131 186 223z" />
    <glyph glyph-name="eogonek" unicode="&#x119;" horiz-adv-x="1081" 
d="M306 616h265q165 0 188 113q22 113 -170 113q-220 0 -283 -226zM576 11q-65 -11 -137 -11q-521 0 -414 537q103 513 606 513q448 0 385 -314t-486 -314h-263q-42 -212 234 -212q209 0 394 130l-52 -260q-273 -176 -294 -278q-13 -68 72 -68t141 20l-32 -160
q-65 -20 -153 -20q-261 0 -221 203q27 131 220 234z" />
    <glyph glyph-name="Ecaron" unicode="&#x11a;" horiz-adv-x="1238" 
d="M1273 1430l-46 -228h-716l-72 -360h682l-47 -237h-685l-75 -375h733l-46 -230h-993l286 1430h979zM581 1810h180l44 -130l96 130h180l-227 -260h-150z" />
    <glyph glyph-name="ecaron" unicode="&#x11b;" horiz-adv-x="1081" 
d="M1016 736q-63 -314 -486 -314h-263q-42 -212 234 -212q209 0 394 130l-42 -210q-165 -130 -414 -130q-521 0 -414 537q103 513 606 513q448 0 385 -314zM306 616h265q165 0 188 113q22 113 -170 113q-220 0 -283 -226zM450 1430h180l44 -130l96 130h180l-227 -260h-150z
" />
    <glyph glyph-name="Gcircumflex" unicode="&#x11c;" horiz-adv-x="1390" 
d="M1161 66q-188 -76 -448 -76q-757 0 -608 745q141 705 911 705q235 0 406 -70l-48 -240q-169 80 -384 80q-515 0 -610 -475q-103 -515 383 -515q72 0 169 24l83 416h265zM934 1810h150l123 -260h-180l-44 130l-96 -130h-180z" />
    <glyph glyph-name="gcircumflex" unicode="&#x11d;" horiz-adv-x="1187" 
d="M817 812q-60 24 -200 24q-255 0 -319 -323q-59 -293 98 -293q194 0 358 274zM920 0q-76 -380 -639 -380q-194 0 -334 50l42 210q143 -50 336 -50q296 0 330 170l54 270q-172 -270 -408 -270q-368 0 -266 511q108 539 653 539q183 0 433 -43zM668 1430h150l123 -260h-180
l-44 130l-96 -130h-180z" />
    <glyph glyph-name="Gbreve" unicode="&#x11e;" horiz-adv-x="1390" 
d="M1161 66q-188 -76 -448 -76q-757 0 -608 745q141 705 911 705q235 0 406 -70l-48 -240q-169 80 -384 80q-515 0 -610 -475q-103 -515 383 -515q72 0 169 24l83 416h265zM674 1810h175q-28 -140 92 -140t148 140h175q-58 -290 -353 -290t-237 290z" />
    <glyph glyph-name="gbreve" unicode="&#x11f;" horiz-adv-x="1187" 
d="M817 812q-60 24 -200 24q-255 0 -319 -323q-59 -293 98 -293q194 0 358 274zM920 0q-76 -380 -639 -380q-194 0 -334 50l42 210q143 -50 336 -50q296 0 330 170l54 270q-172 -270 -408 -270q-368 0 -266 511q108 539 653 539q183 0 433 -43zM448 1430h175
q-28 -140 92 -140t148 140h175q-58 -290 -353 -290t-237 290z" />
    <glyph glyph-name="Gdotaccent" unicode="&#x120;" horiz-adv-x="1390" 
d="M1161 66q-188 -76 -448 -76q-757 0 -608 745q141 705 911 705q235 0 406 -70l-48 -240q-169 80 -384 80q-515 0 -610 -475q-103 -515 383 -515q72 0 169 24l83 416h265zM1137 1810l-44 -220h-235l44 220h235z" />
    <glyph glyph-name="gdotaccent" unicode="&#x121;" horiz-adv-x="1187" 
d="M817 812q-60 24 -200 24q-255 0 -319 -323q-59 -293 98 -293q194 0 358 274zM920 0q-76 -380 -639 -380q-194 0 -334 50l42 210q143 -50 336 -50q296 0 330 170l54 270q-172 -270 -408 -270q-368 0 -266 511q108 539 653 539q183 0 433 -43zM860 1430l-44 -220h-235
l44 220h235z" />
    <glyph glyph-name="Gcommaaccent" unicode="&#x122;" horiz-adv-x="1390" 
d="M1161 66q-188 -76 -448 -76q-757 0 -608 745q141 705 911 705q235 0 406 -70l-48 -240q-169 80 -384 80q-515 0 -610 -475q-103 -515 383 -515q72 0 169 24l83 416h265zM741 -100l-206 -280h-265l206 280h265z" />
    <glyph glyph-name="gcommaaccent" unicode="&#x123;" horiz-adv-x="1187" 
d="M817 812q-60 24 -200 24q-255 0 -319 -323q-59 -293 98 -293q194 0 358 274zM920 0q-76 -380 -639 -380q-194 0 -334 50l42 210q143 -50 336 -50q296 0 330 170l54 270q-172 -270 -408 -270q-368 0 -266 511q108 539 653 539q183 0 433 -43zM1000 1430l-206 -280h-265
l206 280h265z" />
    <glyph glyph-name="Hcircumflex" unicode="&#x124;" horiz-adv-x="1535" 
d="M8 0l286 1430h265l-118 -590h705l118 590h265l-286 -1430h-265l122 610h-705l-122 -610h-265zM897 1810h150l123 -260h-180l-44 130l-96 -130h-180z" />
    <glyph glyph-name="hcircumflex" unicode="&#x125;" 
d="M-17 0l286 1430h265l-143 -714q191 334 484 334q303 0 235 -341l-142 -709h-265l142 712q25 124 -118 124q-189 0 -378 -333l-101 -503h-265zM387 1835h150l123 -260h-180l-44 130l-96 -130h-180z" />
    <glyph glyph-name="Hbar" unicode="&#x126;" horiz-adv-x="1535" 
d="M1230 1260l34 170h265l-286 -1430h-265l122 610h-705l-122 -610h-265l286 1430h265l-34 -170h705zM483 1050l-42 -210h705l42 210h-705z" />
    <glyph glyph-name="hbar" unicode="&#x127;" 
d="M472 1120l-81 -404q191 334 484 334q303 0 235 -341l-142 -709h-265l142 712q25 124 -118 124q-189 0 -378 -333l-101 -503h-265l286 1430h265l-20 -100h720l-42 -210h-720z" />
    <glyph glyph-name="Itilde" unicode="&#x128;" horiz-adv-x="565" 
d="M560 1430l-286 -1430h-265l286 1430h265zM238 1764q69 46 139 46q52 0 105 -26t109 -26q75 0 155 46l-42 -210q-69 -46 -139 -46q-52 0 -105 26t-109 26q-75 0 -155 -46z" />
    <glyph glyph-name="itilde" unicode="&#x129;" horiz-adv-x="515" 
d="M459 1050l-210 -1050h-265l210 1050h265zM143 1384q69 46 139 46q52 0 105 -26t109 -26q75 0 155 46l-42 -210q-69 -46 -139 -46q-52 0 -105 26t-109 26q-75 0 -155 -46z" />
    <glyph glyph-name="Imacron" unicode="&#x12a;" horiz-adv-x="565" 
d="M560 1430l-286 -1430h-265l286 1430h265zM747 1810l-42 -210h-500l42 210h500z" />
    <glyph glyph-name="imacron" unicode="&#x12b;" horiz-adv-x="515" 
d="M459 1050l-210 -1050h-265l210 1050h265zM652 1430l-42 -210h-500l42 210h500z" />
    <glyph glyph-name="Ibreve" unicode="&#x12c;" horiz-adv-x="565" 
d="M560 1430l-286 -1430h-265l286 1430h265zM202 1810h175q-28 -140 92 -140t148 140h175q-58 -290 -353 -290t-237 290z" />
    <glyph glyph-name="ibreve" unicode="&#x12d;" horiz-adv-x="515" 
d="M459 1050l-210 -1050h-265l210 1050h265zM107 1430h175q-28 -140 92 -140t148 140h175q-58 -290 -353 -290t-237 290z" />
    <glyph glyph-name="Iogonek" unicode="&#x12e;" horiz-adv-x="565" 
d="M8 0l286 1430h265l-286 -1430q-237 -96 -257 -198q-14 -68 71 -68t141 20l-32 -160q-65 -20 -153 -20q-261 0 -220 203q26 131 185 223z" />
    <glyph glyph-name="iogonek" unicode="&#x12f;" horiz-adv-x="515" 
d="M534 1430l-42 -210h-265l42 210h265zM-17 0l210 1050h265l-210 -1050q-237 -96 -257 -198q-14 -68 71 -68t141 20l-32 -160q-65 -20 -153 -20q-261 0 -220 203q26 131 185 223z" />
    <glyph glyph-name="Idotaccent" unicode="&#x130;" horiz-adv-x="565" 
d="M559 1430l-286 -1430h-265l286 1430h265zM614 1810l-44 -220h-235l44 220h235z" />
    <glyph glyph-name="dotlessi" unicode="&#x131;" horiz-adv-x="515" 
d="M458 1050l-210 -1050h-265l210 1050h265z" />
    <glyph glyph-name="IJ" unicode="&#x132;" horiz-adv-x="1305" 
d="M559 1430l-286 -1430h-265l286 1430h265zM1299 1430l-204 -1018q-82 -412 -647 -412l46 230q300 0 336 182l204 1018h265z" />
    <glyph glyph-name="ij" unicode="&#x133;" horiz-adv-x="1030" 
d="M534 1430l-42 -210h-265l42 210h265zM458 1050l-210 -1050h-265l210 1050h265zM1049 1430l-42 -210h-265l42 210h265zM973 1050l-194 -970q-64 -318 -286 -518l-179 145q152 135 200 373l194 970h265z" />
    <glyph glyph-name="Jcircumflex" unicode="&#x134;" horiz-adv-x="740" 
d="M734 1430l-204 -1018q-82 -412 -647 -412l46 230q300 0 336 182l204 1018h265zM587 1810h150l123 -260h-180l-44 130l-96 -130h-180z" />
    <glyph glyph-name="jcircumflex" unicode="&#x135;" horiz-adv-x="515" 
d="M458 1050l-194 -970q-64 -318 -286 -518l-179 145q152 135 200 373l194 970h265zM329 1430h150l123 -260h-180l-44 130l-96 -130h-180z" />
    <glyph glyph-name="Kcommaaccent" unicode="&#x136;" horiz-adv-x="1450" 
d="M559 1430l-286 -1430h-265l286 1430h265zM1525 1430l-793 -694l581 -736h-347l-479 668l34 172l670 590h334zM743 -100l-206 -280h-265l206 280h265z" />
    <glyph glyph-name="kcommaaccent" unicode="&#x137;" horiz-adv-x="1221" 
d="M-17 0l286 1430h265l-132 -662q219 282 479 282q322 0 265 -283q-40 -200 -356 -341l239 -426h-304l-203 396l17 83q311 80 347 259q20 102 -120 102q-183 0 -409 -294l-109 -546h-265zM594 -100l-206 -280h-265l206 280h265z" />
    <glyph glyph-name="kgreenlandic" unicode="&#x138;" horiz-adv-x="1142" 
d="M1219 1050l-525 -504l331 -546h-337l-253 505l21 103l445 442h318zM-17 0l210 1050h265l-210 -1050h-265z" />
    <glyph glyph-name="Lacute" unicode="&#x139;" horiz-adv-x="1083" 
d="M559 1430l-240 -1200h568l-46 -230h-833l286 1430h265zM470 1810h319l-291 -259h-224z" />
    <glyph glyph-name="lacute" unicode="&#x13a;" horiz-adv-x="515" 
d="M534 1430l-286 -1430h-265l286 1430h265zM464 1835h319l-291 -259h-224z" />
    <glyph glyph-name="Lcommaaccent" unicode="&#x13b;" horiz-adv-x="1083" 
d="M559 1430l-240 -1200h568l-46 -230h-833l286 1430h265zM562 -100l-206 -280h-265l206 280h265z" />
    <glyph glyph-name="lcommaaccent" unicode="&#x13c;" horiz-adv-x="515" 
d="M534 1430l-286 -1430h-265l286 1430h265zM223 -100l-206 -280h-265l206 280h265z" />
    <glyph glyph-name="Lcaron" unicode="&#x13d;" horiz-adv-x="1083" 
d="M559 1430l-240 -1200h568l-46 -230h-833l286 1430h265zM1129 1430l-237 -435h-245l237 435h245z" />
    <glyph glyph-name="lcaron" unicode="&#x13e;" horiz-adv-x="515" 
d="M534 1430l-286 -1430h-265l286 1430h265zM1029 1430l-237 -435h-245l237 435h245z" />
    <glyph glyph-name="Ldot" unicode="&#x13f;" horiz-adv-x="1083" 
d="M559 1430l-240 -1200h568l-46 -230h-833l286 1430h265zM621 715q25 125 150 125t100 -125t-150 -125t-100 125z" />
    <glyph glyph-name="ldot" unicode="&#x140;" horiz-adv-x="515" 
d="M534 1430l-286 -1430h-265l286 1430h265zM476 572q25 125 150 125t100 -125t-150 -125t-100 125z" />
    <glyph glyph-name="Lslash" unicode="&#x141;" horiz-adv-x="1233" 
d="M260 512l-172 -110l46 230l172 110l138 688h265l-99 -493l279 179l-46 -230l-279 -179l-95 -477h568l-46 -230h-833z" />
    <glyph glyph-name="lslash" unicode="&#x142;" horiz-adv-x="565" 
d="M110 514l-172 -112l46 230l172 112l138 686h265l-98 -490l172 112l-46 -230l-172 -112l-142 -710h-265z" />
    <glyph glyph-name="Nacute" unicode="&#x143;" horiz-adv-x="1575" 
d="M8 0l286 1430h265l551 -1022l204 1022h255l-286 -1430h-265l-546 1044l-209 -1044h-255zM1013 1810h319l-291 -259h-224z" />
    <glyph glyph-name="nacute" unicode="&#x144;" 
d="M-17 0l210 1050h235l-41 -354q195 354 488 354q303 0 235 -341l-142 -709h-265l142 712q25 124 -118 124q-189 0 -378 -333l-101 -503h-265zM751 1430h319l-291 -259h-224z" />
    <glyph glyph-name="Ncommaaccent" unicode="&#x145;" horiz-adv-x="1575" 
d="M8 0l286 1430h265l551 -1022l204 1022h255l-286 -1430h-265l-546 1044l-209 -1044h-255zM884 -100l-206 -280h-265l206 280h265z" />
    <glyph glyph-name="ncommaaccent" unicode="&#x146;" 
d="M-17 0l210 1050h235l-41 -354q195 354 488 354q303 0 235 -341l-142 -709h-265l142 712q25 124 -118 124q-189 0 -378 -333l-101 -503h-265zM623 -100l-206 -280h-265l206 280h265z" />
    <glyph glyph-name="Ncaron" unicode="&#x147;" horiz-adv-x="1575" 
d="M8 0l286 1430h265l551 -1022l204 1022h255l-286 -1430h-265l-546 1044l-209 -1044h-255zM729 1810h180l44 -130l96 130h180l-227 -260h-150z" />
    <glyph glyph-name="ncaron" unicode="&#x148;" 
d="M-17 0l210 1050h235l-41 -354q195 354 488 354q303 0 235 -341l-142 -709h-265l142 712q25 124 -118 124q-189 0 -378 -333l-101 -503h-265zM512 1430h180l44 -130l96 130h180l-227 -260h-150z" />
    <glyph glyph-name="napostrophe" unicode="&#x149;" horiz-adv-x="1335" 
d="M389 1430l-237 -435h-245l237 435h245zM83 0l210 1050h235l-41 -354q195 354 488 354q303 0 235 -341l-142 -709h-265l142 712q25 124 -118 124q-189 0 -378 -333l-101 -503h-265z" />
    <glyph glyph-name="Eng" unicode="&#x14a;" horiz-adv-x="1575" 
d="M1018 0l-546 1044l-209 -1044h-255l286 1430h265l551 -1022l204 1022h255l-270 -1350q-64 -318 -286 -518l-179 145q135 112 184 293z" />
    <glyph glyph-name="eng" unicode="&#x14b;" 
d="M845 712q25 124 -118 124q-189 0 -378 -333l-101 -503h-265l210 1050h235l-41 -354q195 354 488 354q303 0 235 -341l-126 -629q-64 -318 -286 -518l-179 145q152 135 200 373z" />
    <glyph glyph-name="Omacron" unicode="&#x14c;" horiz-adv-x="1625" 
d="M720 220q432 0 532 499q98 491 -334 491q-443 0 -541 -491q-100 -499 343 -499zM101 713q145 727 863 727q707 0 562 -727q-145 -723 -852 -723q-686 0 -573 723zM1287 1810l-42 -210h-500l42 210h500z" />
    <glyph glyph-name="omacron" unicode="&#x14d;" horiz-adv-x="1170" 
d="M483 200q245 0 311 329q64 321 -181 321t-309 -321q-66 -329 179 -329zM38 525q107 535 617 535t403 -535q-107 -534 -617 -534q-508 0 -403 534zM979 1430l-42 -210h-500l42 210h500z" />
    <glyph glyph-name="Obreve" unicode="&#x14e;" horiz-adv-x="1625" 
d="M720 220q432 0 532 499q98 491 -334 491q-443 0 -541 -491q-100 -499 343 -499zM101 713q145 727 863 727q707 0 562 -727q-145 -723 -852 -723q-686 0 -573 723zM742 1810h175q-28 -140 92 -140t148 140h175q-58 -290 -353 -290t-237 290z" />
    <glyph glyph-name="obreve" unicode="&#x14f;" horiz-adv-x="1170" 
d="M483 200q245 0 311 329q64 321 -181 321t-309 -321q-66 -329 179 -329zM38 525q107 535 617 535t403 -535q-107 -534 -617 -534q-508 0 -403 534zM434 1430h175q-28 -140 92 -140t148 140h175q-58 -290 -353 -290t-237 290z" />
    <glyph glyph-name="Ohungarumlaut" unicode="&#x150;" horiz-adv-x="1625" 
d="M720 220q432 0 532 499q98 491 -334 491q-443 0 -541 -491q-100 -499 343 -499zM101 713q145 727 863 727q707 0 562 -727q-145 -723 -852 -723q-686 0 -573 723zM796 1810h319l-291 -259h-224zM1202 1810h319l-291 -259h-224z" />
    <glyph glyph-name="ohungarumlaut" unicode="&#x151;" horiz-adv-x="1170" 
d="M483 200q245 0 311 329q64 321 -181 321t-309 -321q-66 -329 179 -329zM38 525q107 535 617 535t403 -535q-107 -534 -617 -534q-508 0 -403 534zM499 1430h319l-291 -259h-224zM905 1430h319l-291 -259h-224z" />
    <glyph glyph-name="OE" unicode="&#x152;" horiz-adv-x="2215" 
d="M722 230q422 0 520 489q96 481 -326 481q-443 0 -539 -481q-98 -489 345 -489zM101 713q143 717 861 717h1257l-46 -230h-700q88 -112 68 -360h525l-46 -230h-525q-69 -242 -207 -380h706l-46 -230h-1272q-686 0 -575 713z" />
    <glyph glyph-name="oe" unicode="&#x153;" horiz-adv-x="1851" 
d="M483 200q245 0 311 329q64 321 -181 321t-309 -321q-66 -329 179 -329zM1076 616h265q165 0 188 113q22 113 -170 113q-220 0 -283 -226zM862 176q-165 -185 -421 -185q-508 0 -403 534q107 535 617 535q251 0 343 -180q160 170 403 170q448 0 385 -314t-486 -314h-263
q-42 -212 234 -212q209 0 394 130l-42 -210q-165 -130 -414 -130q-252 0 -347 176z" />
    <glyph glyph-name="Racute" unicode="&#x154;" horiz-adv-x="1315" 
d="M8 2l286 1428h650q438 0 361 -383q-61 -303 -427 -429l330 -618h-309l-311 623l24 121q368 65 414 295q32 158 -146 158h-363l-239 -1195h-270zM857 1810h319l-291 -259h-224z" />
    <glyph glyph-name="racute" unicode="&#x155;" horiz-adv-x="730" 
d="M-17 0l210 1050h235l-37 -334q178 334 382 334l-45 -224q-198 0 -379 -323l-101 -503h-265zM549 1430h319l-291 -259h-224z" />
    <glyph glyph-name="Rcommaaccent" unicode="&#x156;" horiz-adv-x="1315" 
d="M8 2l286 1428h650q438 0 361 -383q-61 -303 -427 -429l330 -618h-309l-311 623l24 121q368 65 414 295q32 158 -146 158h-363l-239 -1195h-270zM748 -100l-206 -280h-265l206 280h265z" />
    <glyph glyph-name="rcommaaccent" unicode="&#x157;" horiz-adv-x="730" 
d="M-16 0l210 1050h235l-37 -334q178 334 382 334l-45 -224q-198 0 -379 -323l-101 -503h-265zM231 -100l-206 -280h-265l206 280h265z" />
    <glyph glyph-name="Rcaron" unicode="&#x158;" horiz-adv-x="1375" 
d="M8 2l286 1428h650q438 0 361 -383q-61 -303 -427 -429l330 -618h-309l-311 623l24 121q368 65 414 295q32 158 -146 158h-363l-239 -1195h-270zM584 1810h180l44 -130l96 130h180l-227 -260h-150z" />
    <glyph glyph-name="rcaron" unicode="&#x159;" horiz-adv-x="730" 
d="M-17 0l210 1050h235l-37 -334q178 334 382 334l-45 -224q-198 0 -379 -323l-101 -503h-265zM309 1430h180l44 -130l96 130h180l-227 -260h-150z" />
    <glyph glyph-name="Sacute" unicode="&#x15a;" horiz-adv-x="1280" 
d="M-5 60l48 240q199 -80 470 -80q329 0 373 220q32 160 -170 160h-224q-439 0 -359 400q88 440 713 440q240 0 441 -70l-48 -240q-199 80 -439 80q-360 0 -402 -210q-32 -160 142 -160h224q467 0 387 -400q-90 -450 -684 -450q-271 0 -472 70zM834 1810h319l-291 -259h-224
z" />
    <glyph glyph-name="sacute" unicode="&#x15b;" horiz-adv-x="1025" 
d="M-7 50l44 220q161 -70 390 -70q171 0 193 110q20 100 -95 100h-190q-320 0 -256 320q66 330 533 330q198 0 361 -60l-44 -220q-161 70 -366 70q-215 0 -237 -110q-20 -100 105 -100h170q350 0 286 -320q-66 -330 -512 -330q-219 0 -382 60zM654 1430h319l-291 -259h-224z
" />
    <glyph glyph-name="Scircumflex" unicode="&#x15c;" horiz-adv-x="1280" 
d="M-5 60l48 240q199 -80 470 -80q329 0 373 220q32 160 -170 160h-224q-439 0 -359 400q88 440 713 440q240 0 441 -70l-48 -240q-199 80 -439 80q-360 0 -402 -210q-32 -160 142 -160h224q467 0 387 -400q-90 -450 -684 -450q-271 0 -472 70zM769 1810h150l123 -260h-180
l-44 130l-96 -130h-180z" />
    <glyph glyph-name="scircumflex" unicode="&#x15d;" horiz-adv-x="1025" 
d="M-7 50l44 220q161 -70 390 -70q171 0 193 110q20 100 -95 100h-190q-320 0 -256 320q66 330 533 330q198 0 361 -60l-44 -220q-161 70 -366 70q-215 0 -237 -110q-20 -100 105 -100h170q350 0 286 -320q-66 -330 -512 -330q-219 0 -382 60zM589 1430h150l123 -260h-180
l-44 130l-96 -130h-180z" />
    <glyph glyph-name="Scedilla" unicode="&#x15e;" horiz-adv-x="1280" 
d="M382 -8q-218 9 -387 68l48 240q199 -80 470 -80q329 0 373 220q32 160 -170 160h-224q-439 0 -359 400q88 440 713 440q240 0 441 -70l-48 -240q-199 80 -439 80q-360 0 -402 -210q-32 -160 142 -160h224q467 0 387 -400q-84 -420 -608 -448l-50 -69q214 0 181 -162
q-36 -183 -307 -183q-108 0 -206 50l25 128q98 -50 206 -50t119 55q9 44 -74 44h-183z" />
    <glyph glyph-name="scedilla" unicode="&#x15f;" horiz-adv-x="1025" 
d="M273 -7q-156 11 -280 57l44 220q161 -70 390 -70q171 0 193 110q20 100 -95 100h-190q-320 0 -256 320q66 330 533 330q198 0 361 -60l-44 -220q-161 70 -366 70q-215 0 -237 -110q-20 -100 105 -100h170q350 0 286 -320q-62 -308 -455 -329l-49 -68q214 0 181 -162
q-36 -183 -307 -183q-108 0 -206 50l25 128q98 -50 206 -50t119 55q9 44 -74 44h-183z" />
    <glyph glyph-name="Scaron" unicode="&#x160;" horiz-adv-x="1280" 
d="M-5 60l48 240q199 -80 470 -80q329 0 373 220q32 160 -170 160h-224q-439 0 -359 400q88 440 713 440q240 0 441 -70l-48 -240q-199 80 -439 80q-360 0 -402 -210q-32 -160 142 -160h224q467 0 387 -400q-90 -450 -684 -450q-271 0 -472 70zM594 1810h180l44 -130l96 130
h180l-227 -260h-150z" />
    <glyph glyph-name="scaron" unicode="&#x161;" horiz-adv-x="1025" 
d="M-7 50l44 220q161 -70 390 -70q171 0 193 110q20 100 -95 100h-190q-320 0 -256 320q66 330 533 330q198 0 361 -60l-44 -220q-161 70 -366 70q-215 0 -237 -110q-20 -100 105 -100h170q350 0 286 -320q-66 -330 -512 -330q-219 0 -382 60zM414 1430h180l44 -130l96 130
h180l-227 -260h-150z" />
    <glyph glyph-name="Tcommaaccent" unicode="&#x162;" horiz-adv-x="1085" 
d="M1229 1430l-46 -230h-410l-240 -1200h-265l240 1200h-410l46 230h1085zM505 -100l-206 -280h-265l206 280h265z" />
    <glyph glyph-name="Tcommaaccent" unicode="&#x21a;" horiz-adv-x="1085" 
d="M1229 1430l-46 -230h-410l-240 -1200h-265l240 1200h-410l46 230h1085zM505 -100l-206 -280h-265l206 280h265z" />
    <glyph glyph-name="tcommaaccent" unicode="&#x163;" horiz-adv-x="680" 
d="M227 1220h196l6 -170h244l-42 -210h-215l-97 -483q-29 -147 98 -147h88l-42 -210h-216q-264 0 -207 283zM328 -100l-206 -280h-265l206 280h265z" />
    <glyph glyph-name="tcommaaccent" unicode="&#x21b;" horiz-adv-x="680" 
d="M227 1220h196l6 -170h244l-42 -210h-215l-97 -483q-29 -147 98 -147h88l-42 -210h-216q-264 0 -207 283zM328 -100l-206 -280h-265l206 280h265z" />
    <glyph glyph-name="Tcaron" unicode="&#x164;" horiz-adv-x="1085" 
d="M1229 1430l-46 -230h-410l-240 -1200h-265l240 1200h-410l46 230h1085zM497 1810h180l44 -130l96 130h180l-227 -260h-150z" />
    <glyph glyph-name="tcaron" unicode="&#x165;" horiz-adv-x="680" 
d="M227 1220h196l6 -170h244l-42 -210h-215l-97 -483q-29 -147 98 -147h88l-42 -210h-216q-264 0 -207 283zM1194 1430l-237 -435h-245l237 435h245z" />
    <glyph glyph-name="Tbar" unicode="&#x166;" horiz-adv-x="1085" 
d="M432 820l76 380h-410l46 230h1085l-46 -230h-410l-76 -380h410l-42 -210h-410l-122 -610h-265l122 610h-410l42 210h410z" />
    <glyph glyph-name="tbar" unicode="&#x167;" horiz-adv-x="680" 
d="M114 653l113 567h196l6 -170h244l-42 -210h-215l-37 -187h215l-42 -210h-215l-17 -86q-30 -147 97 -147h88l-42 -210h-216q-264 0 -207 283l32 160h-125l42 210h125z" />
    <glyph glyph-name="Utilde" unicode="&#x168;" horiz-adv-x="1530" 
d="M120 562l174 868h265l-174 -868q-68 -342 282 -342t418 342l174 868h265l-174 -868q-114 -572 -729 -572t-501 572zM710 1764q69 46 139 46q52 0 105 -26t109 -26q75 0 155 46l-42 -210q-69 -46 -139 -46q-52 0 -105 26t-109 26q-75 0 -155 -46z" />
    <glyph glyph-name="utilde" unicode="&#x169;" 
d="M1178 1050l-210 -1050h-235l41 354q-195 -354 -488 -354q-303 0 -235 341l142 709h265l-142 -712q-25 -124 118 -124q189 0 378 333l101 503h265zM503 1384q69 46 139 46q52 0 105 -26t109 -26q75 0 155 46l-42 -210q-69 -46 -139 -46q-52 0 -105 26t-109 26
q-75 0 -155 -46z" />
    <glyph glyph-name="Umacron" unicode="&#x16a;" horiz-adv-x="1530" 
d="M120 562l174 868h265l-174 -868q-68 -342 282 -342t418 342l174 868h265l-174 -868q-114 -572 -729 -572t-501 572zM1219 1810l-42 -210h-500l42 210h500z" />
    <glyph glyph-name="umacron" unicode="&#x16b;" 
d="M1178 1050l-210 -1050h-235l41 354q-195 -354 -488 -354q-303 0 -235 341l142 709h265l-142 -712q-25 -124 118 -124q189 0 378 333l101 503h265zM1012 1430l-42 -210h-500l42 210h500z" />
    <glyph glyph-name="Ubreve" unicode="&#x16c;" horiz-adv-x="1530" 
d="M120 562l174 868h265l-174 -868q-68 -342 282 -342t418 342l174 868h265l-174 -868q-114 -572 -729 -572t-501 572zM674 1810h175q-28 -140 92 -140t148 140h175q-58 -290 -353 -290t-237 290z" />
    <glyph glyph-name="ubreve" unicode="&#x16d;" 
d="M1178 1050l-210 -1050h-235l41 354q-195 -354 -488 -354q-303 0 -235 341l142 709h265l-142 -712q-25 -124 118 -124q189 0 378 333l101 503h265zM467 1430h175q-28 -140 92 -140t148 140h175q-58 -290 -353 -290t-237 290z" />
    <glyph glyph-name="Uring" unicode="&#x16e;" horiz-adv-x="1530" 
d="M120 562l174 868h265l-174 -868q-68 -342 282 -342t418 342l174 868h265l-174 -868q-114 -572 -729 -572t-501 572zM921 1502q134 0 161 137q27 134 -107 134q-138 0 -165 -134q-27 -137 111 -137zM720 1637q42 210 270 210q224 0 182 -210q-42 -209 -266 -209
q-228 0 -186 209z" />
    <glyph glyph-name="uring" unicode="&#x16f;" 
d="M1178 1050l-210 -1050h-235l41 354q-195 -354 -488 -354q-303 0 -235 341l142 709h265l-142 -712q-25 -124 118 -124q189 0 378 333l101 503h265zM728 1226q134 0 161 137q27 134 -107 134q-138 0 -165 -134q-27 -137 111 -137zM527 1361q42 210 270 210q224 0 182 -210
q-42 -209 -266 -209q-228 0 -186 209z" />
    <glyph glyph-name="Uhungarumlaut" unicode="&#x170;" horiz-adv-x="1530" 
d="M120 562l174 868h265l-174 -868q-68 -342 282 -342t418 342l174 868h265l-174 -868q-114 -572 -729 -572t-501 572zM739 1810h319l-291 -259h-224zM1145 1810h319l-291 -259h-224z" />
    <glyph glyph-name="uhungarumlaut" unicode="&#x171;" 
d="M1178 1050l-210 -1050h-235l41 354q-195 -354 -488 -354q-303 0 -235 341l142 709h265l-142 -712q-25 -124 118 -124q189 0 378 333l101 503h265zM521 1430h319l-291 -259h-224zM927 1430h319l-291 -259h-224z" />
    <glyph glyph-name="Uogonek" unicode="&#x172;" horiz-adv-x="1530" 
d="M514 -5q-497 48 -393 567l173 868h265l-173 -868q-69 -342 281 -342t419 342l173 868h265l-173 -868q-100 -501 -586 -563q-215 -100 -234 -197q-14 -68 71 -68t141 20l-32 -160q-65 -20 -153 -20q-261 0 -220 203q25 127 176 218z" />
    <glyph glyph-name="uogonek" unicode="&#x173;" 
d="M968 0q-241 -96 -262 -198q-13 -68 72 -68t141 20l-32 -160q-65 -20 -153 -20q-261 0 -221 203q27 131 220 223l41 354q-195 -354 -488 -354q-303 0 -235 341l142 709h265l-142 -712q-25 -124 118 -124q189 0 378 333l101 503h265z" />
    <glyph glyph-name="Wcircumflex" unicode="&#x174;" horiz-adv-x="1890" 
d="M179 1430h259l-52 -1027l577 1027h255l151 -987l359 987h271l-555 -1430h-252l-169 1122l-646 -1122h-249zM1102 1810h150l123 -260h-180l-44 130l-96 -130h-180z" />
    <glyph glyph-name="wcircumflex" unicode="&#x175;" horiz-adv-x="1585" 
d="M243 1050h265q-145 -225 -200 -500q-64 -320 71 -320q185 0 249 320l100 500h265l-100 -500q-64 -320 121 -320q135 0 199 320q55 275 0 500h265q55 -225 0 -500q-110 -550 -510 -550q-235 0 -262 289q-138 -289 -373 -289q-400 0 -290 550q55 275 200 500zM862 1430h150
l123 -260h-180l-44 130l-96 -130h-180z" />
    <glyph glyph-name="Ycircumflex" unicode="&#x176;" horiz-adv-x="1300" 
d="M169 1430h275l264 -689l516 689h285l-712 -930l-100 -500h-265l100 500zM824 1810h150l123 -260h-180l-44 130l-96 -130h-180z" />
    <glyph glyph-name="ycircumflex" unicode="&#x177;" 
d="M774 354q-195 -354 -488 -354q-303 0 -235 341l142 709h265l-142 -712q-25 -124 118 -124q189 0 378 333l101 503h265l-210 -1050q-76 -380 -639 -380q-194 0 -334 50l42 210q143 -50 336 -50q296 0 330 170zM687 1430h150l123 -260h-180l-44 130l-96 -130h-180z" />
    <glyph glyph-name="Ydieresis" unicode="&#x178;" horiz-adv-x="1300" 
d="M169 1430h275l264 -689l516 689h285l-712 -930l-100 -500h-265l100 500zM1196 1810l-38 -190h-215l38 190h215zM856 1810l-38 -190h-215l38 190h215z" />
    <glyph glyph-name="Zacute" unicode="&#x179;" horiz-adv-x="1250" 
d="M1329 1430l-46 -230l-955 -970h761l-46 -230h-1060l46 230l968 970h-754l46 230h1040zM839 1810h319l-291 -259h-224z" />
    <glyph glyph-name="zacute" unicode="&#x17a;" horiz-adv-x="960" 
d="M168 1050h780l-42 -210l-635 -640h487l-40 -200h-780l40 200l633 640h-485zM614 1430h319l-291 -259h-224z" />
    <glyph glyph-name="Zdot" unicode="&#x17b;" horiz-adv-x="1250" 
d="M1329 1430l-46 -230l-955 -970h761l-46 -230h-1060l46 230l968 970h-754l46 230h1040zM977 1810l-44 -220h-235l44 220h235z" />
    <glyph glyph-name="zdot" unicode="&#x17c;" horiz-adv-x="960" 
d="M168 1050h780l-42 -210l-635 -640h487l-40 -200h-780l40 200l633 640h-485zM742 1430l-44 -220h-235l44 220h235z" />
    <glyph glyph-name="Zcaron" unicode="&#x17d;" horiz-adv-x="1250" 
d="M1329 1430l-46 -230l-955 -970h761l-46 -230h-1060l46 230l968 970h-754l46 230h1040zM609 1810h180l44 -130l96 130h180l-227 -260h-150z" />
    <glyph glyph-name="zcaron" unicode="&#x17e;" horiz-adv-x="960" 
d="M168 1050h780l-42 -210l-635 -640h487l-40 -200h-780l40 200l633 640h-485zM374 1430h180l44 -130l96 130h180l-227 -260h-150z" />
    <glyph glyph-name="longs" unicode="&#x17f;" horiz-adv-x="531" 
d="M193 1050q86 432 558 432q129 0 226 -40l-42 -210q-91 40 -227 40q-206 0 -250 -222l-194 -970q-64 -318 -286 -518l-179 145q152 135 200 373z" />
    <glyph glyph-name="florin" unicode="&#x192;" horiz-adv-x="1047" 
d="M1179 1220q-38 7 -71 7q-159 0 -231 -157l-42 -90h220l-82 -210h-210l-322 -790q-146 -364 -530 -364q-38 0 -79 4l42 210q38 -7 71 -7q159 0 231 157l322 790h-190l82 210h180l42 90q146 364 530 364q38 0 79 -4z" />
    <glyph glyph-name="Scommaaccent" unicode="&#x218;" horiz-adv-x="1280" 
d="M-5 60l48 240q199 -80 470 -80q329 0 373 220q32 160 -170 160h-224q-439 0 -359 400q88 440 713 440q240 0 441 -70l-48 -240q-199 80 -439 80q-360 0 -402 -210q-32 -160 142 -160h224q467 0 387 -400q-90 -450 -684 -450q-271 0 -472 70zM686 -100l-206 -280h-265
l206 280h265z" />
    <glyph glyph-name="scommaaccent" unicode="&#x219;" horiz-adv-x="1025" 
d="M-7 50l44 220q161 -70 390 -70q171 0 193 110q20 100 -95 100h-190q-320 0 -256 320q66 330 533 330q198 0 361 -60l-44 -220q-161 70 -366 70q-215 0 -237 -110q-20 -100 105 -100h170q350 0 286 -320q-66 -330 -512 -330q-219 0 -382 60zM566 -100l-206 -280h-265
l206 280h265z" />
    <glyph glyph-name="circumflex" unicode="&#x2c6;" horiz-adv-x="700" 
d="M419 1430h150l123 -260h-180l-44 130l-96 -130h-180z" />
    <glyph glyph-name="caron" unicode="&#x2c7;" horiz-adv-x="700" 
d="M244 1430h180l44 -130l96 130h180l-227 -260h-150z" />
    <glyph glyph-name="breve" unicode="&#x2d8;" horiz-adv-x="790" 
d="M244 1430h175q-28 -140 92 -140t148 140h175q-58 -290 -353 -290t-237 290z" />
    <glyph glyph-name="dotaccent" unicode="&#x2d9;" horiz-adv-x="435" 
d="M479 1430l-44 -220h-235l44 220h235z" />
    <glyph glyph-name="ring" unicode="&#x2da;" horiz-adv-x="652" 
d="M431 1226q134 0 161 137q27 134 -107 134q-138 0 -165 -134q-27 -137 111 -137zM230 1361q42 210 270 210q224 0 182 -210q-42 -209 -266 -209q-228 0 -186 209z" />
    <glyph glyph-name="ogonek" unicode="&#x2db;" horiz-adv-x="626" 
d="M384 0q-257 -96 -277 -198q-14 -68 71 -68t141 20l-32 -160q-65 -20 -153 -20q-261 0 -220 203q26 131 185 223h285z" />
    <glyph glyph-name="tilde" unicode="&#x2dc;" horiz-adv-x="700" 
d="M235 1384q69 46 139 46q52 0 105 -26t109 -26q75 0 155 46l-42 -210q-69 -46 -139 -46q-52 0 -105 26t-109 26q-75 0 -155 -46z" />
    <glyph glyph-name="hungarumlaut" unicode="&#x2dd;" horiz-adv-x="1069" 
d="M388 1430h319l-291 -259h-224zM794 1430h319l-291 -259h-224z" />
    <glyph glyph-name="commaccent" unicode="&#x326;" horiz-adv-x="465" 
d="M278 -100l-206 -280h-265l206 280h265z" />
    <glyph glyph-name="uni037E" unicode="&#x37e;" horiz-adv-x="615" 
d="M583 1050l-49 -245h-265l49 245h265zM410 185l-237 -435h-265l237 435h265z" />
    <glyph glyph-name="tonos" unicode="&#x384;" horiz-adv-x="663" 
d="M388 1430h319l-291 -259h-224z" />
    <glyph glyph-name="dieresistonos" unicode="&#x385;" horiz-adv-x="1145" 
d="M1189 1430l-38 -190h-215l38 190h215zM459 1430l-38 -190h-215l38 190h215zM618 1430h319l-291 -259h-224z" />
    <glyph glyph-name="Alphatonos" unicode="&#x386;" horiz-adv-x="1562" 
d="M388 1430h319l-291 -259h-224zM165 0h-282l893 1430h285l334 -1430h-275l-85 390h-475l137 230h288l-118 537z" />
    <glyph glyph-name="anoteleia" unicode="&#x387;" horiz-adv-x="465" 
d="M433 1050l-49 -245h-265l49 245h265z" />
    <glyph glyph-name="Epsilontonos" unicode="&#x388;" horiz-adv-x="1551" 
d="M238 1430h319l-291 -259h-224zM1586 1430l-46 -228h-716l-72 -360h682l-47 -237h-685l-75 -375h733l-46 -230h-993l286 1430h979z" />
    <glyph glyph-name="Etatonos" unicode="&#x389;" horiz-adv-x="1848" 
d="M238 1430h319l-291 -259h-224zM321 0l286 1430h265l-118 -590h705l118 590h265l-286 -1430h-265l122 610h-705l-122 -610h-265z" />
    <glyph glyph-name="Iotatonos" unicode="&#x38a;" horiz-adv-x="878" 
d="M238 1430h319l-291 -259h-224zM872 1430l-286 -1430h-265l286 1430h265z" />
    <glyph glyph-name="Omicrontonos" unicode="&#x38c;" horiz-adv-x="1788" 
d="M238 1430h319l-291 -259h-224zM883 220q432 0 532 499q98 491 -334 491q-443 0 -541 -491q-100 -499 343 -499zM263 713q146 727 864 727q707 0 561 -727q-144 -723 -851 -723q-686 0 -574 723z" />
    <glyph glyph-name="Upsilontonos" unicode="&#x38e;" horiz-adv-x="1713" 
d="M238 1430h319l-291 -259h-224zM582 1430h275l264 -689l516 689h285l-712 -930l-100 -500h-265l100 500z" />
    <glyph glyph-name="Omegatonos" unicode="&#x38f;" horiz-adv-x="1773" 
d="M238 1430h319l-291 -259h-224zM156 0l46 230h265q-242 190 -166 570q130 650 815 650t555 -650q-76 -380 -394 -570h265l-46 -230h-550l46 230q338 190 414 570q84 420 -336 420t-504 -420q-76 -380 186 -570l-46 -230h-550z" />
    <glyph glyph-name="iotadieresistonos" unicode="&#x390;" horiz-adv-x="565" 
d="M483 1050l-210 -1050h-265l210 1050h265zM959 1430l-38 -190h-215l38 190h215zM229 1430l-38 -190h-215l38 190h215zM388 1430h319l-291 -259h-224z" />
    <glyph glyph-name="Alpha" unicode="&#x391;" horiz-adv-x="1562" 
d="M165 0h-282l893 1430h285l334 -1430h-275l-85 390h-475l137 230h288l-118 537z" />
    <glyph glyph-name="Beta" unicode="&#x392;" horiz-adv-x="1321" 
d="M8 0l286 1430h670q408 0 341 -333q-48 -244 -335 -349q273 -53 219 -325q-85 -423 -532 -423h-649zM692 230q176 0 212 180q45 223 -218 223h-80l34 171q341 55 385 276q24 120 -124 120h-388l-194 -970h373z" />
    <glyph glyph-name="Gamma" unicode="&#x393;" horiz-adv-x="1083" 
d="M8 0l286 1430h933l-46 -230h-668l-240 -1200h-265z" />
    <glyph glyph-name="Delta" unicode="&#x394;" horiz-adv-x="1562" 
d="M305 230h765l-203 927zM-117 0l893 1430h285l334 -1430h-1512z" />
    <glyph glyph-name="Delta" unicode="&#x2206;" horiz-adv-x="1562" 
d="M305 230h765l-203 927zM-117 0l893 1430h285l334 -1430h-1512z" />
    <glyph glyph-name="Epsilon" unicode="&#x395;" horiz-adv-x="1238" 
d="M1273 1430l-46 -228h-716l-72 -360h682l-47 -237h-685l-75 -375h733l-46 -230h-993l286 1430h979z" />
    <glyph glyph-name="Zeta" unicode="&#x396;" horiz-adv-x="1250" 
d="M1329 1430l-46 -230l-955 -970h761l-46 -230h-1060l46 230l968 970h-754l46 230h1040z" />
    <glyph glyph-name="Eta" unicode="&#x397;" horiz-adv-x="1535" 
d="M8 0l286 1430h265l-118 -590h705l118 590h265l-286 -1430h-265l122 610h-705l-122 -610h-265z" />
    <glyph glyph-name="Theta" unicode="&#x398;" horiz-adv-x="1665" 
d="M740 220q432 0 532 499q98 491 -334 491q-443 0 -541 -491q-100 -499 343 -499zM121 713q145 727 863 727q707 0 562 -727q-145 -723 -852 -723q-718 0 -573 723zM552 853h615l-46 -230h-615z" />
    <glyph glyph-name="Iota" unicode="&#x399;" horiz-adv-x="565" 
d="M559 1430l-286 -1430h-265l286 1430h265z" />
    <glyph glyph-name="Kappa" unicode="&#x39a;" horiz-adv-x="1450" 
d="M559 1430l-286 -1430h-265l286 1430h265zM1525 1430l-793 -694l581 -736h-347l-479 668l34 172l670 590h334z" />
    <glyph glyph-name="Lambda" unicode="&#x39b;" horiz-adv-x="1562" 
d="M867 1157l-702 -1157h-282l893 1430h285l334 -1430h-275z" />
    <glyph glyph-name="Mu" unicode="&#x39c;" horiz-adv-x="1800" 
d="M8 0l286 1430h275l268 -1085l692 1085h265l-286 -1430h-245l199 996l-587 -996h-226l-197 996l-199 -996h-245z" />
    <glyph glyph-name="Nu" unicode="&#x39d;" horiz-adv-x="1575" 
d="M8 0l286 1430h265l551 -1022l204 1022h255l-286 -1430h-265l-546 1044l-209 -1044h-255z" />
    <glyph glyph-name="Xi" unicode="&#x39e;" horiz-adv-x="1196" 
d="M6 240h996l-48 -240h-996zM244 1430h996l-48 -240h-996zM189 853h876l-48 -240h-876z" />
    <glyph glyph-name="Omicron" unicode="&#x39f;" horiz-adv-x="1625" 
d="M720 220q432 0 532 499q98 491 -334 491q-443 0 -541 -491q-100 -499 343 -499zM101 713q145 727 863 727q707 0 562 -727q-145 -723 -852 -723q-686 0 -573 723z" />
    <glyph glyph-name="Pi" unicode="&#x3a0;" horiz-adv-x="1565" 
d="M8 0l286 1430h1265l-286 -1430h-265l240 1200h-735l-240 -1200h-265z" />
    <glyph glyph-name="Rho" unicode="&#x3a1;" horiz-adv-x="1253" 
d="M8 0l286 1430h640q438 0 357 -403q-87 -437 -704 -529l9 236q373 65 417 285q35 178 -143 178h-358l-239 -1197h-265z" />
    <glyph glyph-name="Sigma" unicode="&#x3a3;" horiz-adv-x="1200" 
d="M244 1430h1000l-46 -230h-710l340 -450l-514 -520h690l-46 -230h-1000l46 230l529 530l-335 440z" />
    <glyph glyph-name="Tau" unicode="&#x3a4;" horiz-adv-x="1085" 
d="M1229 1430l-46 -230h-410l-240 -1200h-265l240 1200h-410l46 230h1085z" />
    <glyph glyph-name="Upsilon" unicode="&#x3a5;" horiz-adv-x="1300" 
d="M169 1430h275l264 -689l516 689h285l-712 -930l-100 -500h-265l100 500z" />
    <glyph glyph-name="Phi" unicode="&#x3a6;" horiz-adv-x="1724" 
d="M611 113q-623 37 -510 600q113 567 750 604l23 113h264l-22 -112q623 -34 509 -605q-114 -568 -751 -601l-22 -112h-264zM657 344l148 742q-363 -36 -429 -367q-68 -338 281 -375zM1069 1087l-148 -744q362 34 431 376q67 335 -283 368z" />
    <glyph glyph-name="Chi" unicode="&#x3a7;" horiz-adv-x="1502" 
d="M589 715l-420 715h325l291 -532l499 532h345l-705 -715l419 -715h-325l-291 532l-499 -532h-345z" />
    <glyph glyph-name="Psi" unicode="&#x3a8;" horiz-adv-x="1650" 
d="M675 619l162 811h264l-162 -811q338 50 402 369l88 442h265l-88 -442q-110 -550 -713 -602l-78 -386h-264l78 386q-583 52 -473 602l88 442h265l-88 -442q-64 -319 254 -369z" />
    <glyph glyph-name="Omega" unicode="&#x3a9;" horiz-adv-x="1610" 
d="M-7 0l46 230h265q-242 190 -166 570q130 650 815 650t555 -650q-76 -380 -394 -570h265l-46 -230h-550l46 230q338 190 414 570q84 420 -336 420t-504 -420q-76 -380 186 -570l-46 -230h-550z" />
    <glyph glyph-name="Omega" unicode="&#x2126;" horiz-adv-x="1610" 
d="M-7 0l46 230h265q-242 190 -166 570q130 650 815 650t555 -650q-76 -380 -394 -570h265l-46 -230h-550l46 230q338 190 414 570q84 420 -336 420t-504 -420q-76 -380 186 -570l-46 -230h-550z" />
    <glyph glyph-name="Iotadieresis" unicode="&#x3aa;" horiz-adv-x="565" 
d="M559 1430l-286 -1430h-265l286 1430h265zM774 1810l-38 -190h-215l38 190h215zM434 1810l-38 -190h-215l38 190h215z" />
    <glyph glyph-name="Upsilondieresis" unicode="&#x3ab;" horiz-adv-x="1300" 
d="M169 1430h275l264 -689l516 689h285l-712 -930l-100 -500h-265l100 500zM1177 1810l-38 -190h-215l38 190h215zM837 1810l-38 -190h-215l38 190h215z" />
    <glyph glyph-name="alphatonos" unicode="&#x3ac;" horiz-adv-x="1379" 
d="M23 525q105 525 595 525q311 0 371 -264l141 264h267l-284 -528l60 -522h-270l-28 290q-184 -290 -467 -290q-488 0 -385 525zM450 210q195 0 369 319q-48 311 -243 311q-225 0 -287 -311q-64 -319 161 -319zM828 1430h319l-291 -259h-224z" />
    <glyph glyph-name="epsilontonos" unicode="&#x3ad;" horiz-adv-x="915" 
d="M856 790q-138 60 -308 60t-190 -102q-20 -98 185 -98h195l-42 -210h-198q-212 0 -236 -120t156 -120q170 0 332 60l-44 -220q-160 -50 -330 -50q-445 0 -385 300q40 200 279 255q-208 49 -171 233q56 282 501 282q160 0 300 -50zM591 1430h319l-291 -259h-224z" />
    <glyph glyph-name="etatonos" unicode="&#x3ae;" 
d="M-17 0l210 1050h235l-41 -354q195 354 488 354q303 0 235 -341l-218 -1089h-265l218 1092q25 124 -118 124q-189 0 -378 -333l-101 -503h-265zM751 1430h319l-291 -259h-224z" />
    <glyph glyph-name="iotatonos" unicode="&#x3af;" horiz-adv-x="565" 
d="M483 1050l-210 -1050h-265l210 1050h265zM416 1430h319l-291 -259h-224z" />
    <glyph glyph-name="upsilondieresistonos" unicode="&#x3b0;" horiz-adv-x="1210" 
d="M54 428l124 622h265l-124 -622q-48 -238 182 -238t278 238l124 622h265l-124 -622q-90 -448 -585 -448t-405 448zM1222 1430l-38 -190h-215l38 190h215zM492 1430l-38 -190h-215l38 190h215zM651 1430h319l-291 -259h-224z" />
    <glyph glyph-name="alpha" unicode="&#x3b1;" horiz-adv-x="1379" 
d="M23 525q105 525 595 525q311 0 371 -264l141 264h267l-284 -528l60 -522h-270l-28 290q-184 -290 -467 -290q-488 0 -385 525zM450 210q195 0 369 319q-48 311 -243 311q-225 0 -287 -311q-64 -319 161 -319z" />
    <glyph glyph-name="beta" unicode="&#x3b2;" horiz-adv-x="1291" 
d="M-89 -362l247 1233q111 559 685 559q450 0 375 -376q-46 -232 -390 -295q391 -37 323 -378q-77 -383 -571 -383q-136 0 -230 60l42 210q95 -60 232 -60q227 0 262 173q53 268 -318 269l36 178q329 54 363 226q33 166 -183 166q-292 0 -362 -352l-246 -1230h-265z" />
    <glyph glyph-name="gamma" unicode="&#x3b3;" horiz-adv-x="1090" 
d="M93 1050h275l87 -777l403 777h275l-606 -1050l-76 -380h-265l76 380z" />
    <glyph glyph-name="delta" unicode="&#x3b4;" horiz-adv-x="1200" 
d="M449 -10q-533 0 -425 540q98 490 613 490q-126 143 -361 200l42 210h865l-42 -210h-467q502 -265 432 -680q-110 -550 -657 -550zM840 536q59 294 -223 294q-272 0 -332 -300q-66 -330 207 -330q281 0 348 336z" />
    <glyph glyph-name="epsilon" unicode="&#x3b5;" horiz-adv-x="915" 
d="M856 790q-138 60 -308 60t-190 -102q-20 -98 185 -98h195l-42 -210h-198q-212 0 -236 -120t156 -120q170 0 332 60l-44 -220q-160 -50 -330 -50q-445 0 -385 300q40 200 279 255q-208 49 -171 233q56 282 501 282q160 0 300 -50z" />
    <glyph glyph-name="zeta" unicode="&#x3b6;" horiz-adv-x="1058" 
d="M447 1430h730l-42 -210q-748 -373 -833 -799q-42 -211 166 -211h121q334 0 283 -253q-47 -236 -470 -357l-64 178q263 89 275 147q15 75 -61 75h-121q-473 0 -390 417q90 449 772 803h-408z" />
    <glyph glyph-name="eta" unicode="&#x3b7;" 
d="M-17 0l210 1050h235l-41 -354q195 354 488 354q303 0 235 -341l-218 -1089h-265l218 1092q25 124 -118 124q-189 0 -378 -333l-101 -503h-265z" />
    <glyph glyph-name="theta" unicode="&#x3b8;" horiz-adv-x="1245" 
d="M343 640q-68 -440 183 -440q241 0 348 440h-531zM913 850q45 380 -181 380q-235 0 -344 -380h525zM81 713q145 727 693 727q537 0 392 -727q-145 -723 -682 -723q-548 0 -403 723z" />
    <glyph glyph-name="iota" unicode="&#x3b9;" horiz-adv-x="565" 
d="M483 1050l-210 -1050h-265l210 1050h265z" />
    <glyph glyph-name="kappa" unicode="&#x3ba;" horiz-adv-x="1142" 
d="M1219 1050l-525 -504l331 -546h-337l-253 505l21 103l445 442h318zM-17 0l210 1050h265l-210 -1050h-265z" />
    <glyph glyph-name="lambda" unicode="&#x3bb;" horiz-adv-x="1081" 
d="M471 1056q-45 174 -206 251l165 181q230 -121 289 -407l220 -1081h-286l-118 756l-406 -756h-271z" />
    <glyph glyph-name="nu" unicode="&#x3bd;" horiz-adv-x="1080" 
d="M68 1050h280l108 -734l412 734h280l-637 -1050h-252z" />
    <glyph glyph-name="xi" unicode="&#x3be;" horiz-adv-x="1048" 
d="M760 1430h304l-42 -210h-303q-162 0 -189 -134t136 -134h292l-42 -210h-282q-268 0 -328 -301q-46 -231 132 -231h141q344 0 287 -283q-41 -206 -464 -327l-74 178q273 89 285 147q15 75 -71 75h-141q-443 0 -356 437q63 312 352 411q-169 54 -125 274q62 308 488 308z
" />
    <glyph glyph-name="omicron" unicode="&#x3bf;" horiz-adv-x="1200" 
d="M500 210q275 0 339 319q62 311 -213 311t-337 -311q-64 -319 211 -319zM23 525q105 525 645 525t435 -525q-105 -524 -645 -524q-538 0 -435 524z" />
    <glyph glyph-name="pi" unicode="&#x3c0;" horiz-adv-x="1440" 
d="M56 990q152 60 302 60h1090l-42 -210h-245l-104 -520q-22 -112 142 -112q19 0 41 2l-42 -210q-51 -5 -95 -5q-376 0 -311 325l104 520h-355l-168 -841h-265l168 841q-110 0 -262 -60z" />
    <glyph glyph-name="rho" unicode="&#x3c1;" horiz-adv-x="1197" 
d="M260 284q66 -64 210 -64q307 0 373 330q57 286 -218 286q-255 0 -312 -286zM670 1050q535 0 435 -500q-110 -550 -678 -550q-136 0 -212 60l-88 -440h-265l186 930q100 500 622 500z" />
    <glyph glyph-name="sigma1" unicode="&#x3c2;" horiz-adv-x="988" 
d="M930 790q-142 50 -275 50q-309 0 -365 -279q-35 -173 110 -226l129 -46q319 -104 271 -344q-65 -325 -545 -325l42 210q217 0 239 111q17 86 -77 120l-168 62q-329 98 -262 434q99 493 668 493q133 0 275 -50z" />
    <glyph glyph-name="sigma" unicode="&#x3c3;" horiz-adv-x="1267" 
d="M500 210q275 0 339 319q62 311 -203 311q-285 0 -347 -311q-64 -319 211 -319zM23 525q105 525 655 525h657l-42 -210h-261q114 -99 71 -315q-105 -524 -645 -524q-538 0 -435 524z" />
    <glyph glyph-name="tau" unicode="&#x3c4;" horiz-adv-x="824" 
d="M68 1050h774l-42 -210h-275l-94 -470q-32 -161 159 -161q16 0 34 1l-42 -210q-47 -4 -89 -4q-402 0 -327 374l94 470h-234z" />
    <glyph glyph-name="upsilon" unicode="&#x3c5;" horiz-adv-x="1210" 
d="M54 428l124 622h265l-124 -622q-48 -238 182 -238t278 238l124 622h265l-124 -622q-90 -448 -585 -448t-405 448z" />
    <glyph glyph-name="phi" unicode="&#x3c6;" horiz-adv-x="1585" 
d="M308 1050h285q-245 -225 -300 -500q-68 -340 253 -360l93 465q79 395 513 395q441 0 341 -500q-110 -550 -724 -570l-72 -360h-265l72 360q-586 20 -476 570q55 275 280 500zM1228 550q58 290 -115 290q-172 0 -209 -185l-93 -465q349 20 417 360z" />
    <glyph glyph-name="chi" unicode="&#x3c7;" horiz-adv-x="1180" 
d="M373 335l-280 715h285l181 -494l379 494h275l-558 -707l282 -723h-285l-185 502l-385 -502h-275z" />
    <glyph glyph-name="psi" unicode="&#x3c8;" horiz-adv-x="1630" 
d="M580 199l170 851h266l-170 -851q326 47 385 339l102 512h265l-102 -512q-101 -503 -693 -553l-73 -365h-266l73 365q-572 50 -471 553l102 512h265l-102 -512q-59 -292 249 -339z" />
    <glyph glyph-name="omega" unicode="&#x3c9;" horiz-adv-x="1585" 
d="M273 1050h265q-175 -225 -230 -500q-64 -320 71 -320q185 0 304 595h265q-119 -595 66 -595q135 0 199 320q55 275 -30 500h265q85 -225 30 -500q-110 -550 -510 -550q-235 0 -262 289q-138 -289 -373 -289q-400 0 -290 550q55 275 230 500z" />
    <glyph glyph-name="iotadieresis" unicode="&#x3ca;" horiz-adv-x="565" 
d="M483 1050l-210 -1050h-265l210 1050h265zM704 1430l-38 -190h-215l38 190h215zM364 1430l-38 -190h-215l38 190h215z" />
    <glyph glyph-name="upsilondieresis" unicode="&#x3cb;" horiz-adv-x="1210" 
d="M54 428l124 622h265l-124 -622q-48 -238 182 -238t278 238l124 622h265l-124 -622q-90 -448 -585 -448t-405 448zM1027 1430l-38 -190h-215l38 190h215zM687 1430l-38 -190h-215l38 190h215z" />
    <glyph glyph-name="omicrontonos" unicode="&#x3cc;" horiz-adv-x="1200" 
d="M500 210q275 0 339 319q62 311 -213 311t-337 -311q-64 -319 211 -319zM23 525q105 525 645 525t435 -525q-105 -524 -645 -524q-538 0 -435 524zM734 1430h319l-291 -259h-224z" />
    <glyph glyph-name="upsilontonos" unicode="&#x3cd;" horiz-adv-x="1210" 
d="M54 428l124 622h265l-124 -622q-48 -238 182 -238t278 238l124 622h265l-124 -622q-90 -448 -585 -448t-405 448zM739 1430h319l-291 -259h-224z" />
    <glyph glyph-name="omegatonos" unicode="&#x3ce;" horiz-adv-x="1585" 
d="M273 1050h265q-175 -225 -230 -500q-64 -320 71 -320q185 0 304 595h265q-119 -595 66 -595q135 0 199 320q55 275 -30 500h265q85 -225 30 -500q-110 -550 -510 -550q-235 0 -262 289q-138 -289 -373 -289q-400 0 -290 550q55 275 230 500zM926 1430h319l-291 -259h-224
z" />
    <glyph glyph-name="afii10023" unicode="&#x401;" horiz-adv-x="1238" 
d="M1273 1430l-46 -228h-716l-72 -360h682l-47 -237h-685l-75 -375h733l-46 -230h-993l286 1430h979zM1127 1810l-38 -190h-215l38 190h215zM787 1810l-38 -190h-215l38 190h215z" />
    <glyph glyph-name="afii10017" unicode="&#x410;" horiz-adv-x="1562" 
d="M165 0h-282l893 1430h285l334 -1430h-275l-85 390h-475l137 230h288l-118 537z" />
    <glyph glyph-name="afii10018" unicode="&#x411;" horiz-adv-x="1291" 
d="M1295 1430l-46 -230h-735l-193 -967h327q208 0 241 169q38 188 -224 188h-108l46 230h117q518 0 437 -407q-83 -413 -539 -413h-610l286 1430h1001z" />
    <glyph glyph-name="afii10019" unicode="&#x412;" horiz-adv-x="1321" 
d="M8 0l286 1430h670q408 0 341 -333q-48 -244 -335 -349q273 -53 219 -325q-85 -423 -532 -423h-649zM692 230q176 0 212 180q45 223 -218 223h-80l34 171q341 55 385 276q24 120 -124 120h-388l-194 -970h373z" />
    <glyph glyph-name="afii10020" unicode="&#x413;" horiz-adv-x="1083" 
d="M8 0l286 1430h933l-46 -230h-668l-240 -1200h-265z" />
    <glyph glyph-name="afii10021" unicode="&#x414;" horiz-adv-x="1779" 
d="M482 230h676l194 970h-390q-160 -799 -480 -970zM-218 -380l122 610h184q415 0 609 970l46 230h920l-240 -1200h185l-122 -610h-265l76 380h-1175l-76 -380h-264z" />
    <glyph glyph-name="afii10022" unicode="&#x415;" horiz-adv-x="1238" 
d="M1273 1430l-46 -228h-716l-72 -360h682l-47 -237h-685l-75 -375h733l-46 -230h-993l286 1430h979z" />
    <glyph glyph-name="afii10024" unicode="&#x416;" horiz-adv-x="2209" 
d="M-117 0q440 570 542 653t185 105q-145 39 -193 250.5t-166 211.5h-79l42 210h107q278 0 343 -292t205 -292l-38 -193q-78 0 -161 -72t-453 -581h-334zM1381 1430l-286 -1430h-265l286 1430h265zM1728 0q-166 509 -220 581t-152 72l38 193q140 0 322 292t460 292h107
l-42 -210h-79q-108 0 -241 -211.5t-302 -250.5q73 -22 142 -105t281 -653h-314z" />
    <glyph glyph-name="afii10025" unicode="&#x417;" horiz-adv-x="1115" 
d="M234 1380q212 60 432 60q535 0 457 -390q-47 -236 -253 -325q171 -85 123 -325q-82 -410 -617 -410q-220 0 -408 60l48 240q186 -70 406 -70q270 0 306 180q42 210 -150 210h-348l46 230h345q195 0 237 210q32 160 -238 160q-220 0 -434 -70z" />
    <glyph glyph-name="afii10026" unicode="&#x418;" horiz-adv-x="1485" 
d="M938 0l202 1008l-867 -1008h-265l286 1430h255l-208 -1041l873 1041h265l-286 -1430h-255z" />
    <glyph glyph-name="afii10027" unicode="&#x419;" horiz-adv-x="1485" 
d="M665 1784h175q-28 -140 92 -140t148 140h175q-58 -290 -353 -290t-237 290zM938 0l202 1008l-867 -1008h-265l286 1430h255l-208 -1041l873 1041h265l-286 -1430h-255z" />
    <glyph glyph-name="afii10028" unicode="&#x41a;" horiz-adv-x="1387" 
d="M559 1430l-286 -1430h-265l286 1430h265zM906 0q-166 509 -220 581t-152 72l38 193q140 0 322 292t460 292h107l-42 -210h-79q-108 0 -241 -211.5t-302 -250.5q73 -22 142 -105t281 -653h-314z" />
    <glyph glyph-name="afii10029" unicode="&#x41b;" horiz-adv-x="1514" 
d="M-100 210q344 0 441 487l147 733h1020l-286 -1430h-265l240 1200h-490l-101 -503q-139 -697 -748 -697z" />
    <glyph glyph-name="afii10030" unicode="&#x41c;" horiz-adv-x="1800" 
d="M8 0l286 1430h275l268 -1085l692 1085h265l-286 -1430h-245l199 996l-587 -996h-226l-197 996l-199 -996h-245z" />
    <glyph glyph-name="afii10031" unicode="&#x41d;" horiz-adv-x="1565" 
d="M8 0l286 1430h265l-116 -580h735l116 580h265l-286 -1430h-265l124 620h-735l-124 -620h-265z" />
    <glyph glyph-name="afii10032" unicode="&#x41e;" horiz-adv-x="1625" 
d="M720 220q432 0 532 499q98 491 -334 491q-443 0 -541 -491q-100 -499 343 -499zM101 713q145 727 863 727q707 0 562 -727q-145 -723 -852 -723q-686 0 -573 723z" />
    <glyph glyph-name="afii10033" unicode="&#x41f;" horiz-adv-x="1565" 
d="M8 0l286 1430h1265l-286 -1430h-265l240 1200h-735l-240 -1200h-265z" />
    <glyph glyph-name="afii10034" unicode="&#x420;" horiz-adv-x="1253" 
d="M8 0l286 1430h640q438 0 357 -403q-87 -437 -704 -529l9 236q373 65 417 285q35 178 -143 178h-358l-239 -1197h-265z" />
    <glyph glyph-name="afii10035" unicode="&#x421;" horiz-adv-x="1390" 
d="M1160 60q-199 -70 -434 -70q-770 0 -621 745q141 705 911 705q235 0 406 -70l-48 -240q-169 80 -384 80q-515 0 -610 -475q-103 -515 412 -515q215 0 416 80z" />
    <glyph glyph-name="afii10036" unicode="&#x422;" horiz-adv-x="1085" 
d="M1229 1430l-46 -230h-410l-240 -1200h-265l240 1200h-410l46 230h1085z" />
    <glyph glyph-name="afii10037" unicode="&#x423;" horiz-adv-x="1307" 
d="M1426 1430l-725 -1162q-168 -268 -443 -268q-128 0 -222 70l42 210q92 -70 209 -70q134 0 192 106l-285 1114h274l189 -830l475 830h294z" />
    <glyph glyph-name="afii10038" unicode="&#x424;" horiz-adv-x="1724" 
d="M611 113q-623 37 -510 600q113 567 750 604l23 113h264l-22 -112q623 -34 509 -605q-114 -568 -751 -601l-22 -112h-264zM657 344l148 742q-363 -36 -429 -367q-68 -338 281 -375zM1069 1087l-148 -744q362 34 431 376q67 335 -283 368z" />
    <glyph glyph-name="afii10039" unicode="&#x425;" horiz-adv-x="1502" 
d="M589 715l-420 715h325l291 -532l499 532h345l-705 -715l419 -715h-325l-291 532l-499 -532h-345z" />
    <glyph glyph-name="afii10040" unicode="&#x426;" horiz-adv-x="1547" 
d="M8 0l286 1430h265l-240 -1200h662l240 1200h265l-240 -1200h185l-122 -610h-265l76 380h-1112z" />
    <glyph glyph-name="afii10041" unicode="&#x427;" horiz-adv-x="1388" 
d="M1462 1430l-286 -1430h-265l117 584q-219 -114 -452 -114q-499 0 -395 521l88 439h265l-88 -442q-57 -284 202 -284q229 0 430 133l119 593h265z" />
    <glyph glyph-name="afii10042" unicode="&#x428;" horiz-adv-x="1995" 
d="M8 0l286 1430h265l-240 -1200h450l240 1200h265l-240 -1200h450l240 1200h265l-286 -1430h-1695z" />
    <glyph glyph-name="afii10043" unicode="&#x429;" horiz-adv-x="2105" 
d="M8 0l286 1430h265l-240 -1200h450l240 1200h265l-240 -1200h450l240 1200h265l-240 -1200h185l-122 -610h-265l76 380h-1615z" />
    <glyph glyph-name="afii10044" unicode="&#x42a;" horiz-adv-x="1710" 
d="M911 1430l-239 -1197h408q158 0 191 169q38 188 -174 188h-188l46 230h198q479 0 398 -407q-83 -413 -501 -413h-690l240 1200h-502l46 230h767z" />
    <glyph glyph-name="afii10045" unicode="&#x42b;" horiz-adv-x="1715" 
d="M559 1430l-239 -1197h408q158 0 191 169q38 188 -174 188h-188l46 230h198q479 0 398 -407q-83 -413 -501 -413h-690l286 1430h265zM1238 0l286 1430h265l-286 -1430h-265z" />
    <glyph glyph-name="afii10046" unicode="&#x42c;" horiz-adv-x="1278" 
d="M559 1430l-239 -1197h408q158 0 191 169q38 188 -174 188h-188l46 230h197q480 0 399 -407q-83 -413 -501 -413h-690l286 1430h265z" />
    <glyph glyph-name="afii10047" unicode="&#x42d;" horiz-adv-x="1375" 
d="M41 290q171 -70 366 -70q462 0 570 390h-800l46 230h801q51 370 -419 370q-195 0 -394 -70l48 240q197 60 412 60q750 0 609 -705q-149 -745 -899 -745q-215 0 -388 60z" />
    <glyph glyph-name="afii10048" unicode="&#x42e;" horiz-adv-x="2002" 
d="M8 0l286 1430h264l-118 -590h245q174 600 746 600q617 0 472 -727q-145 -723 -762 -723q-582 0 -503 620h-244l-122 -610h-264zM1187 220q342 0 442 499q98 491 -244 491q-353 0 -451 -491q-100 -499 253 -499z" />
    <glyph glyph-name="afii10049" unicode="&#x42f;" horiz-adv-x="1375" 
d="M813 2l239 1195h-353q-188 0 -221 -168q-44 -220 333 -285l-24 -121l-560 -623h-344l577 618q-311 150 -243 496q64 316 532 316h620l-286 -1428h-270z" />
    <glyph glyph-name="afii10065" unicode="&#x430;" horiz-adv-x="1187" 
d="M817 812q-60 24 -200 24q-255 0 -319 -323q-59 -293 98 -293q194 0 358 274zM920 0h-235l24 270q-172 -270 -408 -270q-368 0 -266 511q108 539 653 539q183 0 433 -43z" />
    <glyph glyph-name="afii10066" unicode="&#x431;" horiz-adv-x="1192" 
d="M1078 520q-106 -530 -624 -530q-523 0 -417 530l65 325q117 585 711 585q242 0 435 109l-45 -223q-172 -96 -435 -96q-321 0 -387 -328q154 158 357 158q446 0 345 -505zM496 200q252 0 316 320q63 314 -179 314q-263 0 -326 -314q-64 -320 189 -320z" />
    <glyph glyph-name="afii10067" unicode="&#x432;" horiz-adv-x="1141" 
d="M38 525q109 545 699 545q408 0 347 -303q-28 -143 -270 -222q233 -53 196 -238q-65 -327 -552 -327q-529 0 -420 545zM497 180q216 0 245 143q21 107 -122 107h-110l36 181q247 35 270 149q22 110 -126 110q-318 0 -387 -345t194 -345z" />
    <glyph glyph-name="afii10068" unicode="&#x433;" horiz-adv-x="1020" 
d="M377 -10q-446 0 -380 330q64 320 414 320h150q125 0 145 100q22 110 -193 110q-175 0 -364 -70l44 220q187 60 355 60q467 0 401 -330q-64 -320 -384 -320h-170q-115 0 -135 -100q-22 -110 149 -110q199 0 388 70l-44 -220q-187 -60 -376 -60z" />
    <glyph glyph-name="afii10069" unicode="&#x434;" horiz-adv-x="1180" 
d="M827 646q19 96 13 154q-80 50 -224 50q-252 0 -314 -310q-68 -340 185 -340q251 0 340 446zM1093 650q-132 -660 -649 -660q-513 0 -403 550q102 510 536 510q177 0 268 -90q-50 260 -382 260h-206l42 210h208q742 0 586 -780z" />
    <glyph glyph-name="afii10070" unicode="&#x435;" horiz-adv-x="1081" 
d="M1016 736q-63 -314 -486 -314h-263q-42 -212 234 -212q209 0 394 130l-42 -210q-165 -130 -414 -130q-521 0 -414 537q103 513 606 513q448 0 385 -314zM306 616h265q165 0 188 113q22 113 -170 113q-220 0 -283 -226z" />
    <glyph glyph-name="afii10072" unicode="&#x436;" horiz-adv-x="2051" 
d="M1412 730q133 320 467 320q90 0 174 -30l-42 -210q-74 30 -144 30q-185 0 -244 -295q-67 -335 88 -335q90 0 206 80l-42 -210q-126 -80 -236 -80q-380 0 -287 517l-255 -46l-94 -471h-265l84 422l-235 -42q-125 -380 -489 -380q-90 0 -174 30l42 210q74 -30 144 -30
q185 0 244 295q67 335 -88 335q-90 0 -206 -80l42 210q126 80 236 80q358 0 295 -459l231 41l84 418h265l-74 -369z" />
    <glyph glyph-name="afii10073" unicode="&#x437;" horiz-adv-x="885" 
d="M118 1000q212 60 362 60q415 0 357 -292q-31 -154 -185 -233q123 -75 93 -225q-64 -320 -479 -320q-150 0 -338 60l44 220q186 -70 336 -70t172 110q24 120 -88 120h-288l42 210h285q115 0 141 128q16 82 -134 82t-364 -70z" />
    <glyph glyph-name="afii10074" unicode="&#x438;" 
d="M1178 1050l-210 -1050h-235l41 354q-195 -354 -488 -354q-303 0 -235 341l142 709h265l-142 -712q-25 -124 118 -124q189 0 378 333l101 503h265z" />
    <glyph glyph-name="afii10075" unicode="&#x439;" 
d="M1178 1050l-210 -1050h-235l41 354q-195 -354 -488 -354q-303 0 -235 341l142 709h265l-142 -712q-25 -124 118 -124q189 0 378 333l101 503h265zM467 1430h175q-28 -140 92 -140t148 140h175q-58 -290 -353 -290t-237 290z" />
    <glyph glyph-name="afii10076" unicode="&#x43a;" horiz-adv-x="1199" 
d="M459 1057l-211 -1057h-265l211 1057h265zM738 0l-98 246q-84 217 -192 217l36 183q113 0 236 204.5t351 204.5h107l-43 -216h-79q-98 0 -183.5 -121t-189.5 -170q123 -21 236 -284l113 -264h-294z" />
    <glyph glyph-name="afii10077" unicode="&#x43b;" horiz-adv-x="1242" 
d="M-100 210q237 0 279 210l41 205q85 425 525 425h440l-210 -1050h-265l168 840h-175q-175 0 -217 -210l-42 -210q-84 -420 -586 -420z" />
    <glyph glyph-name="afii10078" unicode="&#x43c;" horiz-adv-x="1510" 
d="M-17 0l210 1050h285l212 -717l478 717h285l-210 -1050h-245l128 640l-436 -640h-146l-188 640l-128 -640h-245z" />
    <glyph glyph-name="afii10079" unicode="&#x43d;" horiz-adv-x="1215" 
d="M-17 0l210 1050h265l-82 -410h435l82 410h265l-210 -1050h-265l86 430h-435l-86 -430h-265z" />
    <glyph glyph-name="afii10080" unicode="&#x43e;" horiz-adv-x="1170" 
d="M483 200q245 0 311 329q64 321 -181 321t-309 -321q-66 -329 179 -329zM38 525q107 535 617 535t403 -535q-107 -534 -617 -534q-508 0 -403 534z" />
    <glyph glyph-name="afii10081" unicode="&#x43f;" 
d="M-17 0l210 1050h235l-41 -354q195 354 488 354q303 0 235 -341l-142 -709h-265l142 712q25 124 -118 124q-189 0 -378 -333l-101 -503h-265z" />
    <glyph glyph-name="afii10082" unicode="&#x440;" horiz-adv-x="1178" 
d="M297 243q85 -29 205 -29q240 0 310 349q53 267 -124 267q-164 0 -325 -254zM193 1050h235l-20 -250q169 250 415 250q348 0 251 -484q-113 -566 -626 -566q-97 0 -198 9l-78 -389h-265z" />
    <glyph glyph-name="afii10083" unicode="&#x441;" horiz-adv-x="940" 
d="M764 130q-156 -130 -346 -130q-500 0 -393 535q103 515 643 515q150 0 274 -30l-42 -210q-124 30 -254 30q-295 0 -356 -305q-65 -325 190 -325q170 0 326 130z" />
    <glyph glyph-name="afii10084" unicode="&#x442;" horiz-adv-x="1835" 
d="M-17 0l210 1050h235l-38 -342q180 342 408 342q300 0 231 -344q201 344 427 344q322 0 242 -399l-130 -651h-265l132 661q35 175 -83 175q-168 0 -344 -336l-100 -500h-265l132 658q35 178 -81 178q-176 0 -346 -336l-100 -500h-265z" />
    <glyph glyph-name="afii10085" unicode="&#x443;" 
d="M774 354q-195 -354 -488 -354q-303 0 -235 341l142 709h265l-142 -712q-25 -124 118 -124q189 0 378 333l101 503h265l-210 -1050q-76 -380 -639 -380q-194 0 -334 50l42 210q143 -50 336 -50q296 0 330 170z" />
    <glyph glyph-name="afii10086" unicode="&#x444;" horiz-adv-x="1841" 
d="M1071 800q169 250 415 250q348 0 251 -484q-113 -566 -626 -566q-97 0 -198 9l-78 -389h-265l126 630q-169 -250 -415 -250q-348 0 -251 484q113 566 626 566q97 0 198 -9l78 389h265zM807 807q-85 29 -205 29q-240 0 -310 -349q-53 -267 124 -267q164 0 325 254z
M1026 576l-66 -333q85 -29 205 -29q240 0 310 349q53 267 -124 267q-164 0 -325 -254z" />
    <glyph glyph-name="afii10087" unicode="&#x445;" horiz-adv-x="1080" 
d="M356 525l-288 525h285l179 -338l311 338h305l-497 -525l287 -525h-285l-179 338l-311 -338h-305z" />
    <glyph glyph-name="afii10088" unicode="&#x446;" horiz-adv-x="1330" 
d="M1000 160l195 50q-59 -295 -218 -590h-265q138 190 186 430l-165 -50l41 354q-195 -354 -488 -354q-303 0 -235 341l142 709h265l-142 -712q-25 -124 118 -124q189 0 378 333l101 503h265z" />
    <glyph glyph-name="afii10089" unicode="&#x447;" horiz-adv-x="1248" 
d="M1191 1050l-210 -1050h-265l77 384q-169 -114 -372 -114q-409 0 -321 441l68 339h265l-68 -342q-45 -224 124 -224q199 0 350 133l87 433h265z" />
    <glyph glyph-name="afii10090" unicode="&#x448;" horiz-adv-x="1835" 
d="M1778 1050l-210 -1050h-235l38 342q-180 -342 -408 -342q-300 0 -231 344q-201 -344 -427 -344q-322 0 -242 399l130 651h265l-132 -661q-35 -175 83 -175q168 0 344 336l100 500h265l-132 -658q-35 -178 81 -178q176 0 346 336l100 500h265z" />
    <glyph glyph-name="afii10091" unicode="&#x449;" horiz-adv-x="1930" 
d="M1600 160l195 50q-59 -295 -218 -590h-265q138 190 186 430l-165 -50l38 342q-180 -342 -408 -342q-300 0 -231 344q-201 -344 -427 -344q-322 0 -242 399l130 651h265l-132 -661q-35 -175 83 -175q168 0 344 336l100 500h265l-132 -658q-35 -178 81 -178q176 0 346 336
l100 500h265z" />
    <glyph glyph-name="afii10092" unicode="&#x44a;" horiz-adv-x="1312" 
d="M637 1050l-130 -651q-37 -186 181 -186q198 0 223 129q20 97 -82 97h-178l42 210h188q359 0 298 -306q-69 -343 -537 -343q-480 0 -400 399l88 441h-304l42 210h569z" />
    <glyph glyph-name="afii10093" unicode="&#x44b;" horiz-adv-x="1540" 
d="M1008 0l210 1050h265l-210 -1050h-265zM458 1050l-130 -651q-37 -186 201 -186q178 0 203 129q20 97 -82 97h-178l42 210h187q360 0 299 -306q-69 -343 -517 -343q-500 0 -420 399l130 651h265z" />
    <glyph glyph-name="afii10094" unicode="&#x44c;" horiz-adv-x="1133" 
d="M458 1050l-130 -651q-37 -186 201 -186q178 0 203 129q20 97 -82 97h-178l42 210h187q360 0 299 -306q-69 -343 -517 -343q-500 0 -420 399l130 651h265z" />
    <glyph glyph-name="afii10095" unicode="&#x44d;" horiz-adv-x="955" 
d="M-19 240q124 -30 254 -30q269 0 344 221h-496l42 210h497q14 199 -261 199q-130 0 -266 -30l42 210q136 30 286 30q550 0 449 -505q-109 -545 -659 -545q-150 0 -274 30z" />
    <glyph glyph-name="afii10096" unicode="&#x44e;" horiz-adv-x="1637" 
d="M988 200q212 0 278 329q64 321 -148 321q-223 0 -287 -321q-66 -329 157 -329zM-17 0l210 1050h264l-82 -410h206q121 420 579 420q487 0 380 -537q-107 -533 -594 -533q-469 0 -408 440h-205l-86 -430h-264z" />
    <glyph glyph-name="afii10097" unicode="&#x44f;" horiz-adv-x="1120" 
d="M588 0l167 837h-253q-83 0 -100 -88q-26 -130 185 -175l-28 -141l-370 -433h-306l411 449q-206 117 -159 353q50 248 388 248h540l-210 -1050h-265z" />
    <glyph glyph-name="afii10071" unicode="&#x451;" horiz-adv-x="1081" 
d="M1016 736q-63 -314 -486 -314h-263q-42 -212 234 -212q209 0 394 130l-42 -210q-165 -130 -414 -130q-521 0 -414 537q103 513 606 513q448 0 385 -314zM306 616h265q165 0 188 113q22 113 -170 113q-220 0 -283 -226zM967 1430l-38 -190h-215l38 190h215zM627 1430
l-38 -190h-215l38 190h215z" />
    <glyph glyph-name="endash" unicode="&#x2013;" horiz-adv-x="1200" 
d="M1084 630l-42 -210h-1000l42 210h1000z" />
    <glyph glyph-name="emdash" unicode="&#x2014;" horiz-adv-x="1700" 
d="M1584 630l-42 -210h-1500l42 210h1500z" />
    <glyph glyph-name="quoteleft" unicode="&#x2018;" horiz-adv-x="495" 
d="M589 1430l-237 -435h-245l237 435h245z" />
    <glyph glyph-name="quoteright" unicode="&#x2019;" horiz-adv-x="495" 
d="M589 1430l-237 -435h-245l237 435h245z" />
    <glyph glyph-name="quotesinglbase" unicode="&#x201a;" horiz-adv-x="435" 
d="M280 185l-237 -435h-185l237 435h185z" />
    <glyph glyph-name="quotedblleft" unicode="&#x201c;" horiz-adv-x="925" 
d="M1019 1430l-237 -435h-245l237 435h245zM589 1430l-237 -435h-245l237 435h245z" />
    <glyph glyph-name="quotedblright" unicode="&#x201d;" horiz-adv-x="925" 
d="M1019 1430l-237 -435h-245l237 435h245zM589 1430l-237 -435h-245l237 435h245z" />
    <glyph glyph-name="quotedblbase" unicode="&#x201e;" horiz-adv-x="925" 
d="M770 185l-237 -435h-245l237 435h245zM340 185l-237 -435h-245l237 435h245z" />
    <glyph glyph-name="dagger" unicode="&#x2020;" horiz-adv-x="1115" 
d="M839 1430l-84 -420h370l-46 -230h-370l-156 -780h-265l156 780h-380l46 230h380l84 420h265z" />
    <glyph glyph-name="daggerdbl" unicode="&#x2021;" horiz-adv-x="1045" 
d="M799 1430l-76 -380h340l-42 -210h-340l-126 -630h340l-42 -210h-340l-76 -380h-265l76 380h-340l42 210h340l126 630h-340l42 210h340l76 380h265z" />
    <glyph glyph-name="bullet" unicode="&#x2022;" horiz-adv-x="630" 
d="M103 725q43 215 258 215t172 -215t-258 -215t-172 215z" />
    <glyph glyph-name="ellipsis" unicode="&#x2026;" horiz-adv-x="1465" 
d="M272 245l-49 -245h-265l49 245h265zM772 245l-49 -245h-265l49 245h265zM1272 245l-49 -245h-265l49 245h265z" />
    <glyph glyph-name="perthousand" unicode="&#x2030;" horiz-adv-x="2231" 
d="M223 0h-265l1303 1430h265zM485 995q134 0 163 147q25 124 -109 124q-138 0 -163 -124q-29 -147 109 -147zM186 1140q60 300 388 300q324 0 264 -300q-64 -319 -388 -319q-328 0 -264 319zM1698 164q134 0 161 137q27 134 -107 134q-138 0 -165 -134q-27 -137 111 -137z
M1397 299q62 310 390 310q324 0 262 -310q-62 -309 -386 -309q-328 0 -266 309zM969 164q134 0 161 137q27 134 -107 134q-138 0 -165 -134q-27 -137 111 -137zM668 299q62 310 390 310q324 0 262 -310q-62 -309 -386 -309q-328 0 -266 309z" />
    <glyph glyph-name="guilsinglleft" unicode="&#x2039;" horiz-adv-x="630" 
d="M13 525l333 375h272l-333 -375l183 -375h-272z" />
    <glyph glyph-name="guilsinglright" unicode="&#x203a;" horiz-adv-x="630" 
d="M210 150h-272l333 375l-183 375h272l183 -375z" />
    <glyph glyph-name="fraction" unicode="&#x2044;" horiz-adv-x="1270" 
d="M203 0h-245l1111 1430h245z" />
    <glyph glyph-name="Euro" unicode="&#x20ac;" horiz-adv-x="1385" 
d="M1118 50q-197 -60 -412 -60q-750 0 -601 745q141 705 891 705q215 0 388 -60l-48 -240q-171 70 -366 70q-418 0 -531 -228h673l-42 -210h-693l-14 -70h693l-42 -210h-673q3 -272 431 -272q195 0 394 70z" />
    <glyph glyph-name="trademark" unicode="&#x2122;" horiz-adv-x="1606" 
d="M805 1430l-14 -71h-212l-120 -602h-87l120 602h-212l14 71h511zM760 757l134 673h110l136 -561l354 561h106l-134 -673h-78l108 543l-347 -543h-69l-135 543l-108 -543h-77z" />
    <glyph glyph-name="partialdiff" unicode="&#x2202;" horiz-adv-x="1293" 
d="M434 1090l46 230q237 120 481 120q476 0 381 -475q-24 -118 -82 -265q-284 -710 -864 -710q-391 0 -329 311q12 59 40 129q174 437 720 437h234q30 71 41 127q47 236 -204 236q-257 0 -464 -140zM983 640h-233q-282 0 -378 -210q-23 -51 -31 -90q-28 -140 131 -140
q301 0 511 440z" />
    <glyph glyph-name="product" unicode="&#x220f;" horiz-adv-x="1730" 
d="M1724 1430l-362 -1810h-255l316 1580h-910l-316 -1580h-265l362 1810h1430z" />
    <glyph glyph-name="summation" unicode="&#x2211;" horiz-adv-x="1350" 
d="M244 1430h1150l-46 -230h-880l422 -640l-672 -710h860l-46 -230h-1150l46 230l687 720l-417 630z" />
    <glyph glyph-name="radical" unicode="&#x221a;" horiz-adv-x="1370" 
d="M143 1050h385l78 -705l743 1509h250l-952 -1861h-225l-101 847h-220z" />
    <glyph glyph-name="infinity" unicode="&#x221e;" horiz-adv-x="1660" 
d="M63 525q69 345 439 345q200 0 324 -180q196 180 396 180q370 0 301 -345t-439 -345q-200 0 -324 180q-196 -180 -396 -180q-370 0 -301 345zM1288 525q25 125 -110 125q-110 0 -265 -125q105 -125 215 -125q135 0 160 125zM408 400q110 0 245 125q-85 125 -195 125
q-135 0 -160 -125t110 -125z" />
    <glyph glyph-name="integral" unicode="&#x222b;" horiz-adv-x="589" 
d="M737 1450q-183 0 -236 -267q-5 -25 -9 -53l-124 -810q-5 -28 -10 -54q-95 -476 -542 -476l42 210q183 0 236 267q5 25 9 53l124 810q5 28 10 54q95 476 542 476z" />
    <glyph glyph-name="approxequal" unicode="&#x2248;" horiz-adv-x="1050" 
d="M900 460l-42 -210q-121 -50 -230 -50t-205 50t-200 50q-103 0 -215 -50l42 210q122 50 230 50q109 0 205 -50t200 -50t215 50zM968 800l-42 -210q-121 -50 -230 -50t-205 50t-200 50q-103 0 -215 -50l42 210q122 50 230 50q109 0 205 -50t200 -50t215 50z" />
    <glyph glyph-name="approxequal" unicode="&#x22f2;" horiz-adv-x="1050" 
d="M900 460l-42 -210q-121 -50 -230 -50t-205 50t-200 50q-103 0 -215 -50l42 210q122 50 230 50q109 0 205 -50t200 -50t215 50zM968 800l-42 -210q-121 -50 -230 -50t-205 50t-200 50q-103 0 -215 -50l42 210q122 50 230 50q109 0 205 -50t200 -50t215 50z" />
    <glyph glyph-name="notequal" unicode="&#x2260;" horiz-adv-x="950" 
d="M151 250h-143l42 210h263l100 130h-337l42 210h457l193 250h150l-193 -250h143l-42 -210h-263l-100 -130h337l-42 -210h-457l-193 -250h-150z" />
    <glyph glyph-name="lessequal" unicode="&#x2264;" horiz-adv-x="950" 
d="M750 210l-42 -210h-750l42 210h750zM78 600l30 150l814 320l-44 -220l-511 -171l441 -179l-44 -220z" />
    <glyph glyph-name="greaterequal" unicode="&#x2265;" horiz-adv-x="950" 
d="M750 210l-42 -210h-750l42 210h750zM14 280l44 220l513 179l-443 171l44 220l686 -320l-30 -150z" />
    <glyph glyph-name="lozenge" unicode="&#x25ca;" horiz-adv-x="1085" 
d="M564 1430h245l227 -715l-513 -715h-245l-227 715zM316 715l131 -485l324 485l-130 485z" />
    <glyph glyph-name="zero.osf" unicode="&#xe012;" horiz-adv-x="1275" 
d="M541 200q262 0 328 329q64 321 -198 321q-273 0 -337 -321q-66 -329 207 -329zM58 523q107 537 655 537q537 0 430 -537q-107 -533 -644 -533q-548 0 -441 533z" />
    <glyph glyph-name="one.osf" unicode="&#xe013;" horiz-adv-x="854" 
d="M235 210l118 591h-260l32 159l545 100l-170 -850h249l-42 -210h-774l42 210h260z" />
    <glyph glyph-name="two.osf" unicode="&#xe014;" horiz-adv-x="1100" 
d="M-57 0l42 210q680 277 729 520q24 120 -176 120q-210 0 -427 -110l44 220q215 100 425 100q465 0 399 -330q-58 -290 -631 -520h577l-42 -210h-940z" />
    <glyph glyph-name="three.osf" unicode="&#xe015;" horiz-adv-x="1110" 
d="M146 990q212 60 392 60q525 0 449 -380q-37 -186 -243 -275q173 -75 133 -275q-80 -400 -605 -400q-180 0 -368 60l44 220q186 -70 366 -70q260 0 298 190q34 170 -158 170h-298l42 210h295q195 0 229 170t-226 170q-180 0 -394 -70z" />
    <glyph glyph-name="four.osf" unicode="&#xe016;" horiz-adv-x="1165" 
d="M779 -280h-265l62 309h-652l42 210l667 810h294l-688 -810h379l84 418h265l-84 -418l133 -76l-27 -134h-148z" />
    <glyph glyph-name="five.osf" unicode="&#xe017;" horiz-adv-x="1145" 
d="M243 1050h824l-42 -210h-597l-73 -302q81 22 160 22q520 0 438 -410q-88 -440 -668 -440q-180 0 -318 60l44 220q136 -70 326 -70q305 0 349 220q42 210 -233 210q-195 0 -400 -50z" />
    <glyph glyph-name="six.osf" unicode="&#xe018;" horiz-adv-x="1265" 
d="M72 520q105 526 849 853l66 -197q-315 -116 -522 -339q114 63 249 63q494 0 406 -440q-94 -470 -637 -470q-517 0 -411 530zM544 200q263 0 315 260q46 230 -216 230q-144 0 -264 -48q-38 -50 -53 -126q-63 -316 218 -316z" />
    <glyph glyph-name="seven.osf" unicode="&#xe019;" horiz-adv-x="1060" 
d="M98 1050h960l-42 -210l-856 -1120h-291l876 1120h-689z" />
    <glyph glyph-name="eight.osf" unicode="&#xe020;" horiz-adv-x="1250" 
d="M40 384q46 233 316 321q-195 85 -151 303q67 336 547 336t413 -336q-44 -218 -278 -303q239 -88 193 -321q-79 -394 -599 -394t-441 394zM894 978q30 152 -193 152q-207 0 -237 -152q-36 -178 184 -178q210 0 246 178zM818 398q38 192 -225 192q-247 0 -285 -192
q-40 -198 220 -198q250 0 290 198z" />
    <glyph glyph-name="nine.osf" unicode="&#xe021;" horiz-adv-x="1270" 
d="M1118 527q-105 -526 -849 -853l-66 197q315 116 522 339q-114 -63 -249 -63q-494 0 -406 440q94 470 637 470q517 0 411 -530zM646 847q-263 0 -315 -260q-46 -230 216 -230q144 0 264 48q38 50 53 126q63 316 -218 316z" />
    <glyph glyph-name="germandbls.cap" unicode="&#xe029;" horiz-adv-x="1551" 
d="M8 0l184 920q106 530 801 530q273 0 557 -90l-44 -220l-439 -313q456 -5 380 -387q-88 -442 -642 -442q-156 0 -298 70l46 230q143 -70 300 -70q277 0 319 212q34 171 -231 172h-226l40 198l502 370q-136 40 -310 40q-430 0 -490 -300l-184 -920h-265z" />
    <glyph glyph-name="MT.sign" unicode="&#xf000;" horiz-adv-x="1724" 
d="M1181 332v102l-253 13v540h135l51 -400h115l-38 511h-249l-80 -43l-79 43h-250l-38 -511h114l51 400h136v-540l-253 -13v-102h638zM534 1330l37 89l89 -37l53 80l81 -53l68 67l68 -67l81 53l53 -80l89 37l37 -89l94 19l20 -96h97v-96l94 -19l-19 -94l89 -37l-36 -90
l81 -52l-54 -82l68 -67l-69 -69l55 -82l-82 -52l37 -90l-89 -37l19 -94l-94 -19v-96h-97l-20 -96l-94 19l-37 -89l-89 37l-53 -80l-81 53l-68 -67l-68 67l-81 -53l-53 80l-89 -37l-37 89l-95 -19l-19 96h-97v96l-95 19l19 94l-90 39l37 88l-80 53l55 81l-69 69l69 67l-55 82
l82 54l-37 88l89 37l-19 94l94 19v96h97l19 96zM862 1347q-262 0 -447 -185t-185 -446q0 -263 185 -448t447 -185t447 185t185 448q0 261 -185 446t-447 185zM1270 1123.5q169 -169.5 169 -407.5q0 -240 -169 -409.5t-408 -169.5t-408 169.5t-169 409.5q0 238 169 407.5
t408 169.5t408 -169.5z" />
    </font>
</defs>
</svg>
